ISO-10303-21;
HEADER;
FILE_DESCRIPTION(('STEP AP214'),'1');
FILE_NAME('cctmp_EED51D54-77B6-4DB1-B0C6-1BC9D96E8048_2026_03_11_13_56_24_0981_26380..stp','2026-03-11T12:56:25',('KiM GmbH'),('CADClick - www.CADClick.com'),'Spatial InterOp 3D',' ','unknown authorization');
FILE_SCHEMA(('AUTOMOTIVE_DESIGN'));
ENDSEC;
DATA;
#1=MECHANICAL_DESIGN_GEOMETRIC_PRESENTATION_REPRESENTATION(' ',(#10,#11,#12,#13,#14,#15,#16,#17,#18,#19,#20,#21,#22,#23,#24,#25,#26,#27,#28,#29,#30,#31,#32,#33,#34,#35,#36),#6);
#2=PRODUCT_DEFINITION_CONTEXT('',#37,'design');
#3=APPLICATION_PROTOCOL_DEFINITION('INTERNATIONAL STANDARD','automotive_design',1994,#37);
#4=PRODUCT_CATEGORY_RELATIONSHIP('NONE','NONE',#38,#39);
#5=SHAPE_DEFINITION_REPRESENTATION(#40,#41);
#6= (GEOMETRIC_REPRESENTATION_CONTEXT(3)GLOBAL_UNCERTAINTY_ASSIGNED_CONTEXT((#44))GLOBAL_UNIT_ASSIGNED_CONTEXT((#46,#47,#48))REPRESENTATION_CONTEXT('NONE','WORKSPACE'));
#10=STYLED_ITEM('',(#50),#51);
#11=STYLED_ITEM('',(#52),#53);
#12=STYLED_ITEM('',(#54),#55);
#13=STYLED_ITEM('',(#56),#57);
#14=STYLED_ITEM('',(#58),#59);
#15=STYLED_ITEM('',(#60),#61);
#16=STYLED_ITEM('',(#62),#63);
#17=STYLED_ITEM('',(#64),#65);
#18=STYLED_ITEM('',(#66),#67);
#19=STYLED_ITEM('',(#68),#69);
#20=STYLED_ITEM('',(#70),#71);
#21=STYLED_ITEM('',(#72),#73);
#22=STYLED_ITEM('',(#74),#75);
#23=STYLED_ITEM('',(#76),#77);
#24=STYLED_ITEM('',(#78),#79);
#25=STYLED_ITEM('',(#80),#81);
#26=STYLED_ITEM('',(#82),#83);
#27=STYLED_ITEM('',(#84),#85);
#28=STYLED_ITEM('',(#86),#87);
#29=STYLED_ITEM('',(#88),#89);
#30=STYLED_ITEM('',(#90),#91);
#31=STYLED_ITEM('',(#92),#93);
#32=STYLED_ITEM('',(#94),#95);
#33=STYLED_ITEM('',(#96),#97);
#34=STYLED_ITEM('',(#98),#99);
#35=STYLED_ITEM('',(#100),#101);
#36=STYLED_ITEM('',(#102),#103);
#37=APPLICATION_CONTEXT(' ');
#38=PRODUCT_CATEGORY('part','NONE');
#39=PRODUCT_RELATED_PRODUCT_CATEGORY('detail',' ',(#104));
#40=PRODUCT_DEFINITION_SHAPE('NONE','NONE',#105);
#41=ADVANCED_BREP_SHAPE_REPRESENTATION('item_0041940_Nutenstein 6 St M6_1',(#103,#106),#6);
#44=UNCERTAINTY_MEASURE_WITH_UNIT(LENGTH_MEASURE(1.0E-06),#46,'','');
#46= (CONVERSION_BASED_UNIT('MILLIMETRE',#109)LENGTH_UNIT()NAMED_UNIT(#112));
#47= (NAMED_UNIT(#114)PLANE_ANGLE_UNIT()SI_UNIT($,.RADIAN.));
#48= (NAMED_UNIT(#114)SOLID_ANGLE_UNIT()SI_UNIT($,.STERADIAN.));
#50=PRESENTATION_STYLE_ASSIGNMENT((#120));
#51=ADVANCED_FACE('',(#121),#122,.F.);
#52=PRESENTATION_STYLE_ASSIGNMENT((#123));
#53=ADVANCED_FACE('',(#124),#125,.F.);
#54=PRESENTATION_STYLE_ASSIGNMENT((#126));
#55=ADVANCED_FACE('',(#127),#128,.T.);
#56=PRESENTATION_STYLE_ASSIGNMENT((#129));
#57=ADVANCED_FACE('',(#130),#131,.T.);
#58=PRESENTATION_STYLE_ASSIGNMENT((#132));
#59=ADVANCED_FACE('',(#133),#134,.F.);
#60=PRESENTATION_STYLE_ASSIGNMENT((#135));
#61=ADVANCED_FACE('',(#136),#137,.F.);
#62=PRESENTATION_STYLE_ASSIGNMENT((#138));
#63=ADVANCED_FACE('',(#139),#140,.T.);
#64=PRESENTATION_STYLE_ASSIGNMENT((#141));
#65=ADVANCED_FACE('',(#142),#143,.T.);
#66=PRESENTATION_STYLE_ASSIGNMENT((#144));
#67=ADVANCED_FACE('',(#145),#146,.T.);
#68=PRESENTATION_STYLE_ASSIGNMENT((#147));
#69=ADVANCED_FACE('',(#148),#149,.T.);
#70=PRESENTATION_STYLE_ASSIGNMENT((#150));
#71=ADVANCED_FACE('',(#151),#152,.T.);
#72=PRESENTATION_STYLE_ASSIGNMENT((#153));
#73=ADVANCED_FACE('',(#154),#155,.T.);
#74=PRESENTATION_STYLE_ASSIGNMENT((#156));
#75=ADVANCED_FACE('',(#157),#158,.F.);
#76=PRESENTATION_STYLE_ASSIGNMENT((#159));
#77=ADVANCED_FACE('',(#160),#161,.T.);
#78=PRESENTATION_STYLE_ASSIGNMENT((#162));
#79=ADVANCED_FACE('',(#163),#164,.T.);
#80=PRESENTATION_STYLE_ASSIGNMENT((#165));
#81=ADVANCED_FACE('',(#166),#167,.F.);
#82=PRESENTATION_STYLE_ASSIGNMENT((#168));
#83=ADVANCED_FACE('',(#169),#170,.F.);
#84=PRESENTATION_STYLE_ASSIGNMENT((#171));
#85=ADVANCED_FACE('',(#172),#173,.T.);
#86=PRESENTATION_STYLE_ASSIGNMENT((#174));
#87=ADVANCED_FACE('',(#175),#176,.F.);
#88=PRESENTATION_STYLE_ASSIGNMENT((#177));
#89=ADVANCED_FACE('',(#178),#179,.T.);
#90=PRESENTATION_STYLE_ASSIGNMENT((#180));
#91=ADVANCED_FACE('',(#181),#182,.T.);
#92=PRESENTATION_STYLE_ASSIGNMENT((#183));
#93=ADVANCED_FACE('',(#184),#185,.T.);
#94=PRESENTATION_STYLE_ASSIGNMENT((#186));
#95=ADVANCED_FACE('',(#187),#188,.T.);
#96=PRESENTATION_STYLE_ASSIGNMENT((#189));
#97=ADVANCED_FACE('',(#190),#191,.T.);
#98=PRESENTATION_STYLE_ASSIGNMENT((#192));
#99=ADVANCED_FACE('',(#193),#194,.F.);
#100=PRESENTATION_STYLE_ASSIGNMENT((#195));
#101=ADVANCED_FACE('',(#196),#197,.T.);
#102=PRESENTATION_STYLE_ASSIGNMENT((#198));
#103=MANIFOLD_SOLID_BREP('item_0041940_Nutenstein 6 St M6_1',#199);
#104=PRODUCT('item_0041940_Nutenstein 6 St M6_1','item_0041940_Nutenstein 6 St M6_1','PART-item_0041940_Nutenstein 6 St M6_1-DESC',(#200));
#105=PRODUCT_DEFINITION('','NONE',#201,#2);
#106=AXIS2_PLACEMENT_3D('',#202,#203,#204);
#109=LENGTH_MEASURE_WITH_UNIT(LENGTH_MEASURE(1.0),#205);
#112=DIMENSIONAL_EXPONENTS(1.0,0.0,0.0,0.0,0.0,0.0,0.0);
#114=DIMENSIONAL_EXPONENTS(0.0,0.0,0.0,0.0,0.0,0.0,0.0);
#120=SURFACE_STYLE_USAGE(.BOTH.,#206);
#121=FACE_OUTER_BOUND('',#207,.T.);
#122=CYLINDRICAL_SURFACE('',#208,3.0);
#123=SURFACE_STYLE_USAGE(.BOTH.,#209);
#124=FACE_OUTER_BOUND('',#210,.T.);
#125=CYLINDRICAL_SURFACE('',#211,3.0);
#126=SURFACE_STYLE_USAGE(.BOTH.,#212);
#127=FACE_OUTER_BOUND('',#213,.T.);
#128=CYLINDRICAL_SURFACE('',#214,0.299999997801141);
#129=SURFACE_STYLE_USAGE(.BOTH.,#215);
#130=FACE_OUTER_BOUND('',#216,.T.);
#131=CYLINDRICAL_SURFACE('',#217,0.299999722806537);
#132=SURFACE_STYLE_USAGE(.BOTH.,#218);
#133=FACE_OUTER_BOUND('',#219,.T.);
#134=CYLINDRICAL_SURFACE('',#220,4.59999993893219);
#135=SURFACE_STYLE_USAGE(.BOTH.,#221);
#136=FACE_OUTER_BOUND('',#222,.T.);
#137=CYLINDRICAL_SURFACE('',#223,4.60000010816029);
#138=SURFACE_STYLE_USAGE(.BOTH.,#224);
#139=FACE_OUTER_BOUND('',#225,.T.);
#140=CYLINDRICAL_SURFACE('',#226,0.299999966642096);
#141=SURFACE_STYLE_USAGE(.BOTH.,#227);
#142=FACE_OUTER_BOUND('',#228,.T.);
#143=CYLINDRICAL_SURFACE('',#229,20.0000000792393);
#144=SURFACE_STYLE_USAGE(.BOTH.,#230);
#145=FACE_OUTER_BOUND('',#231,.T.);
#146=CYLINDRICAL_SURFACE('',#232,1.99999989637446);
#147=SURFACE_STYLE_USAGE(.BOTH.,#233);
#148=FACE_OUTER_BOUND('',#234,.T.);
#149=CYLINDRICAL_SURFACE('',#235,2.00000006878256);
#150=SURFACE_STYLE_USAGE(.BOTH.,#236);
#151=FACE_OUTER_BOUND('',#237,.T.);
#152=CYLINDRICAL_SURFACE('',#238,0.600000000659642);
#153=SURFACE_STYLE_USAGE(.BOTH.,#239);
#154=FACE_OUTER_BOUND('',#240,.T.);
#155=PLANE('',#241);
#156=SURFACE_STYLE_USAGE(.BOTH.,#242);
#157=FACE_OUTER_BOUND('',#243,.T.);
#158=CYLINDRICAL_SURFACE('',#244,0.300000014872194);
#159=SURFACE_STYLE_USAGE(.BOTH.,#245);
#160=FACE_OUTER_BOUND('',#246,.T.);
#161=CYLINDRICAL_SURFACE('',#247,0.299999997801141);
#162=SURFACE_STYLE_USAGE(.BOTH.,#248);
#163=FACE_OUTER_BOUND('',#249,.T.);
#164=CYLINDRICAL_SURFACE('',#250,0.299999966642096);
#165=SURFACE_STYLE_USAGE(.BOTH.,#251);
#166=FACE_OUTER_BOUND('',#252,.T.);
#167=CYLINDRICAL_SURFACE('',#253,4.60000010816029);
#168=SURFACE_STYLE_USAGE(.BOTH.,#254);
#169=FACE_OUTER_BOUND('',#255,.T.);
#170=CYLINDRICAL_SURFACE('',#256,4.59999993893219);
#171=SURFACE_STYLE_USAGE(.BOTH.,#257);
#172=FACE_OUTER_BOUND('',#258,.T.);
#173=CYLINDRICAL_SURFACE('',#259,0.299999722806537);
#174=SURFACE_STYLE_USAGE(.BOTH.,#260);
#175=FACE_OUTER_BOUND('',#261,.T.);
#176=CYLINDRICAL_SURFACE('',#262,0.300000014872193);
#177=SURFACE_STYLE_USAGE(.BOTH.,#263);
#178=FACE_OUTER_BOUND('',#264,.T.);
#179=PLANE('',#265);
#180=SURFACE_STYLE_USAGE(.BOTH.,#266);
#181=FACE_OUTER_BOUND('',#267,.T.);
#182=CYLINDRICAL_SURFACE('',#268,0.599999991728367);
#183=SURFACE_STYLE_USAGE(.BOTH.,#269);
#184=FACE_OUTER_BOUND('',#270,.T.);
#185=CYLINDRICAL_SURFACE('',#271,19.9999999390696);
#186=SURFACE_STYLE_USAGE(.BOTH.,#272);
#187=FACE_OUTER_BOUND('',#273,.T.);
#188=CYLINDRICAL_SURFACE('',#274,2.00000006878256);
#189=SURFACE_STYLE_USAGE(.BOTH.,#275);
#190=FACE_OUTER_BOUND('',#276,.T.);
#191=CYLINDRICAL_SURFACE('',#277,1.99999989637446);
#192=SURFACE_STYLE_USAGE(.BOTH.,#278);
#193=FACE_OUTER_BOUND('',#279,.T.);
#194=PLANE('',#280);
#195=SURFACE_STYLE_USAGE(.BOTH.,#281);
#196=FACE_OUTER_BOUND('',#282,.T.);
#197=PLANE('',#283);
#198=SURFACE_STYLE_USAGE(.BOTH.,#284);
#199=CLOSED_SHELL('',(#51,#53,#55,#57,#59,#61,#63,#65,#67,#69,#71,#73,#75,#77,#79,#81,#83,#85,#87,#89,#91,#93,#95,#97,#99,#101));
#200=PRODUCT_CONTEXT('',#37,'mechanical');
#201=PRODUCT_DEFINITION_FORMATION_WITH_SPECIFIED_SOURCE(' ','NONE',#104,.NOT_KNOWN.);
#202=CARTESIAN_POINT('',(0.0,0.0,0.0));
#203=DIRECTION('',(0.0,0.0,1.0));
#204=DIRECTION('',(1.0,0.0,0.0));
#205= (NAMED_UNIT(#112)LENGTH_UNIT()SI_UNIT(.MILLI.,.METRE.));
#206=SURFACE_SIDE_STYLE('',(#286));
#207=EDGE_LOOP('',(#287,#288,#289,#290,#291,#292,#293,#294,#295,#296,#297,#298));
#208=AXIS2_PLACEMENT_3D('',#299,#300,#301);
#209=SURFACE_SIDE_STYLE('',(#302));
#210=EDGE_LOOP('',(#303,#304,#305,#306,#307,#308,#309,#310,#311,#312,#313,#314));
#211=AXIS2_PLACEMENT_3D('',#315,#316,#317);
#212=SURFACE_SIDE_STYLE('',(#318));
#213=EDGE_LOOP('',(#319,#320,#321,#322,#323,#324,#325));
#214=AXIS2_PLACEMENT_3D('',#326,#327,#328);
#215=SURFACE_SIDE_STYLE('',(#329));
#216=EDGE_LOOP('',(#330,#331,#332,#333));
#217=AXIS2_PLACEMENT_3D('',#334,#335,#336);
#218=SURFACE_SIDE_STYLE('',(#337));
#219=EDGE_LOOP('',(#338,#339,#340,#341));
#220=AXIS2_PLACEMENT_3D('',#342,#343,#344);
#221=SURFACE_SIDE_STYLE('',(#345));
#222=EDGE_LOOP('',(#346,#347,#348,#349));
#223=AXIS2_PLACEMENT_3D('',#350,#351,#352);
#224=SURFACE_SIDE_STYLE('',(#353));
#225=EDGE_LOOP('',(#354,#355,#356,#357));
#226=AXIS2_PLACEMENT_3D('',#358,#359,#360);
#227=SURFACE_SIDE_STYLE('',(#361));
#228=EDGE_LOOP('',(#362,#363,#364,#365,#366,#367,#368));
#229=AXIS2_PLACEMENT_3D('',#369,#370,#371);
#230=SURFACE_SIDE_STYLE('',(#372));
#231=EDGE_LOOP('',(#373,#374,#375,#376));
#232=AXIS2_PLACEMENT_3D('',#377,#378,#379);
#233=SURFACE_SIDE_STYLE('',(#380));
#234=EDGE_LOOP('',(#381,#382,#383,#384));
#235=AXIS2_PLACEMENT_3D('',#385,#386,#387);
#236=SURFACE_SIDE_STYLE('',(#388));
#237=EDGE_LOOP('',(#389,#390,#391,#392));
#238=AXIS2_PLACEMENT_3D('',#393,#394,#395);
#239=SURFACE_SIDE_STYLE('',(#396));
#240=EDGE_LOOP('',(#397,#398,#399,#400));
#241=AXIS2_PLACEMENT_3D('',#401,#402,#403);
#242=SURFACE_SIDE_STYLE('',(#404));
#243=EDGE_LOOP('',(#405,#406,#407,#408));
#244=AXIS2_PLACEMENT_3D('',#409,#410,#411);
#245=SURFACE_SIDE_STYLE('',(#412));
#246=EDGE_LOOP('',(#413,#414,#415,#416,#417,#418,#419));
#247=AXIS2_PLACEMENT_3D('',#420,#421,#422);
#248=SURFACE_SIDE_STYLE('',(#423));
#249=EDGE_LOOP('',(#424,#425,#426,#427));
#250=AXIS2_PLACEMENT_3D('',#428,#429,#430);
#251=SURFACE_SIDE_STYLE('',(#431));
#252=EDGE_LOOP('',(#432,#433,#434,#435));
#253=AXIS2_PLACEMENT_3D('',#436,#437,#438);
#254=SURFACE_SIDE_STYLE('',(#439));
#255=EDGE_LOOP('',(#440,#441,#442,#443));
#256=AXIS2_PLACEMENT_3D('',#444,#445,#446);
#257=SURFACE_SIDE_STYLE('',(#447));
#258=EDGE_LOOP('',(#448,#449,#450,#451));
#259=AXIS2_PLACEMENT_3D('',#452,#453,#454);
#260=SURFACE_SIDE_STYLE('',(#455));
#261=EDGE_LOOP('',(#456,#457,#458,#459));
#262=AXIS2_PLACEMENT_3D('',#460,#461,#462);
#263=SURFACE_SIDE_STYLE('',(#463));
#264=EDGE_LOOP('',(#464,#465,#466,#467));
#265=AXIS2_PLACEMENT_3D('',#468,#469,#470);
#266=SURFACE_SIDE_STYLE('',(#471));
#267=EDGE_LOOP('',(#472,#473,#474,#475));
#268=AXIS2_PLACEMENT_3D('',#476,#477,#478);
#269=SURFACE_SIDE_STYLE('',(#479));
#270=EDGE_LOOP('',(#480,#481,#482,#483,#484,#485,#486));
#271=AXIS2_PLACEMENT_3D('',#487,#488,#489);
#272=SURFACE_SIDE_STYLE('',(#490));
#273=EDGE_LOOP('',(#491,#492,#493,#494));
#274=AXIS2_PLACEMENT_3D('',#495,#496,#497);
#275=SURFACE_SIDE_STYLE('',(#498));
#276=EDGE_LOOP('',(#499,#500,#501,#502));
#277=AXIS2_PLACEMENT_3D('',#503,#504,#505);
#278=SURFACE_SIDE_STYLE('',(#506));
#279=EDGE_LOOP('',(#507,#508,#509,#510,#511,#512,#513,#514,#515,#516,#517,#518,#519,#520,#521,#522));
#280=AXIS2_PLACEMENT_3D('',#523,#524,#525);
#281=SURFACE_SIDE_STYLE('',(#526));
#282=EDGE_LOOP('',(#527,#528,#529,#530,#531,#532,#533,#534,#535,#536,#537,#538,#539,#540,#541,#542));
#283=AXIS2_PLACEMENT_3D('',#543,#544,#545);
#284=SURFACE_SIDE_STYLE('',(#546));
#286=SURFACE_STYLE_FILL_AREA(#547);
#287=ORIENTED_EDGE('',*,*,#548,.F.);
#288=ORIENTED_EDGE('',*,*,#549,.F.);
#289=ORIENTED_EDGE('',*,*,#550,.F.);
#290=ORIENTED_EDGE('',*,*,#551,.F.);
#291=ORIENTED_EDGE('',*,*,#552,.F.);
#292=ORIENTED_EDGE('',*,*,#553,.F.);
#293=ORIENTED_EDGE('',*,*,#554,.F.);
#294=ORIENTED_EDGE('',*,*,#555,.F.);
#295=ORIENTED_EDGE('',*,*,#556,.F.);
#296=ORIENTED_EDGE('',*,*,#557,.F.);
#297=ORIENTED_EDGE('',*,*,#558,.F.);
#298=ORIENTED_EDGE('',*,*,#559,.F.);
#299=CARTESIAN_POINT('',(0.0,0.0,2.9));
#300=DIRECTION('',(0.0,0.0,-1.0));
#301=DIRECTION('',(-1.0,0.0,0.0));
#302=SURFACE_STYLE_FILL_AREA(#560);
#303=ORIENTED_EDGE('',*,*,#548,.T.);
#304=ORIENTED_EDGE('',*,*,#561,.F.);
#305=ORIENTED_EDGE('',*,*,#562,.F.);
#306=ORIENTED_EDGE('',*,*,#563,.F.);
#307=ORIENTED_EDGE('',*,*,#564,.F.);
#308=ORIENTED_EDGE('',*,*,#555,.T.);
#309=ORIENTED_EDGE('',*,*,#565,.F.);
#310=ORIENTED_EDGE('',*,*,#566,.F.);
#311=ORIENTED_EDGE('',*,*,#567,.F.);
#312=ORIENTED_EDGE('',*,*,#568,.F.);
#313=ORIENTED_EDGE('',*,*,#569,.F.);
#314=ORIENTED_EDGE('',*,*,#570,.F.);
#315=CARTESIAN_POINT('',(0.0,0.0,2.9));
#316=DIRECTION('',(0.0,0.0,-1.0));
#317=DIRECTION('',(-1.0,0.0,0.0));
#318=SURFACE_STYLE_FILL_AREA(#571);
#319=ORIENTED_EDGE('',*,*,#549,.T.);
#320=ORIENTED_EDGE('',*,*,#570,.T.);
#321=ORIENTED_EDGE('',*,*,#572,.T.);
#322=ORIENTED_EDGE('',*,*,#573,.T.);
#323=ORIENTED_EDGE('',*,*,#574,.F.);
#324=ORIENTED_EDGE('',*,*,#575,.T.);
#325=ORIENTED_EDGE('',*,*,#576,.T.);
#326=CARTESIAN_POINT('',(-2.90000000219886,5.5,-0.300000032198874));
#327=DIRECTION('',(0.0,-1.0,0.0));
#328=DIRECTION('',(-1.0,0.0,7.32958162503237E-09));
#329=SURFACE_STYLE_FILL_AREA(#577);
#330=ORIENTED_EDGE('',*,*,#569,.T.);
#331=ORIENTED_EDGE('',*,*,#578,.T.);
#332=ORIENTED_EDGE('',*,*,#579,.T.);
#333=ORIENTED_EDGE('',*,*,#572,.F.);
#334=CARTESIAN_POINT('',(-2.98111144631592,5.5,-0.311173467539382));
#335=DIRECTION('',(0.0,-1.0,0.0));
#336=DIRECTION('',(0.270371404203692,0.0,-0.962756097767718));
#337=SURFACE_STYLE_FILL_AREA(#580);
#338=ORIENTED_EDGE('',*,*,#568,.T.);
#339=ORIENTED_EDGE('',*,*,#581,.T.);
#340=ORIENTED_EDGE('',*,*,#582,.T.);
#341=ORIENTED_EDGE('',*,*,#578,.F.);
#342=CARTESIAN_POINT('',(-1.59205269983133E-08,5.5,-4.19999993893219));
#343=DIRECTION('',(0.0,-1.0,0.0));
#344=DIRECTION('',(3.46098472034903E-09,0.0,1.0));
#345=SURFACE_STYLE_FILL_AREA(#583);
#346=ORIENTED_EDGE('',*,*,#567,.T.);
#347=ORIENTED_EDGE('',*,*,#584,.T.);
#348=ORIENTED_EDGE('',*,*,#585,.T.);
#349=ORIENTED_EDGE('',*,*,#581,.F.);
#350=CARTESIAN_POINT('',(-4.14805181314648E-08,5.5,-4.20000010816029));
#351=DIRECTION('',(0.0,-1.0,0.0));
#352=DIRECTION('',(0.608390105581928,0.0,0.793638128765252));
#353=SURFACE_STYLE_FILL_AREA(#586);
#354=ORIENTED_EDGE('',*,*,#566,.T.);
#355=ORIENTED_EDGE('',*,*,#587,.T.);
#356=ORIENTED_EDGE('',*,*,#588,.T.);
#357=ORIENTED_EDGE('',*,*,#584,.F.);
#358=CARTESIAN_POINT('',(2.98111155742065,5.5,-0.311173245472737));
#359=DIRECTION('',(0.0,-1.0,-0.0));
#360=DIRECTION('',(-0.608390225717558,0.0,-0.793638036671214));
#361=SURFACE_STYLE_FILL_AREA(#589);
#362=ORIENTED_EDGE('',*,*,#556,.T.);
#363=ORIENTED_EDGE('',*,*,#564,.T.);
#364=ORIENTED_EDGE('',*,*,#590,.T.);
#365=ORIENTED_EDGE('',*,*,#591,.T.);
#366=ORIENTED_EDGE('',*,*,#592,.F.);
#367=ORIENTED_EDGE('',*,*,#593,.T.);
#368=ORIENTED_EDGE('',*,*,#594,.T.);
#369=CARTESIAN_POINT('',(-12.3053629916885,5.5,-8.73689633974446));
#370=DIRECTION('',(0.0,-1.0,0.0));
#371=DIRECTION('',(0.876565101611506,0.0,0.481283308080396));
#372=SURFACE_STYLE_FILL_AREA(#595);
#373=ORIENTED_EDGE('',*,*,#563,.T.);
#374=ORIENTED_EDGE('',*,*,#596,.T.);
#375=ORIENTED_EDGE('',*,*,#597,.T.);
#376=ORIENTED_EDGE('',*,*,#590,.F.);
#377=CARTESIAN_POINT('',(3.45500981158153E-08,5.5,4.40000007362554));
#378=DIRECTION('',(0.0,-1.0,0.0));
#379=DIRECTION('',(0.683631363145785,0.0,0.729827486001614));
#380=SURFACE_STYLE_FILL_AREA(#598);
#381=ORIENTED_EDGE('',*,*,#562,.T.);
#382=ORIENTED_EDGE('',*,*,#599,.T.);
#383=ORIENTED_EDGE('',*,*,#600,.T.);
#384=ORIENTED_EDGE('',*,*,#596,.F.);
#385=CARTESIAN_POINT('',(3.35859327067913E-08,5.5,4.39999990121744));
#386=DIRECTION('',(0.0,-1.0,0.0));
#387=DIRECTION('',(-1.67929658275453E-08,0.0,1.0));
#388=SURFACE_STYLE_FILL_AREA(#601);
#389=ORIENTED_EDGE('',*,*,#602,.T.);
#390=ORIENTED_EDGE('',*,*,#603,.F.);
#391=ORIENTED_EDGE('',*,*,#604,.T.);
#392=ORIENTED_EDGE('',*,*,#592,.T.);
#393=CARTESIAN_POINT('',(4.69999999584142,5.5,0.599999970659614));
#394=DIRECTION('',(0.0,-1.0,-0.0));
#395=DIRECTION('',(-3.09735700450693E-07,0.0,-0.999999999999952));
#396=SURFACE_STYLE_FILL_AREA(#605);
#397=ORIENTED_EDGE('',*,*,#606,.T.);
#398=ORIENTED_EDGE('',*,*,#607,.F.);
#399=ORIENTED_EDGE('',*,*,#608,.T.);
#400=ORIENTED_EDGE('',*,*,#603,.T.);
#401=CARTESIAN_POINT('',(4.099999905,5.5,-3.0E-08));
#402=DIRECTION('',(0.0,0.0,-1.0));
#403=DIRECTION('',(1.0,0.0,0.0));
#404=SURFACE_STYLE_FILL_AREA(#609);
#405=ORIENTED_EDGE('',*,*,#610,.T.);
#406=ORIENTED_EDGE('',*,*,#611,.F.);
#407=ORIENTED_EDGE('',*,*,#612,.F.);
#408=ORIENTED_EDGE('',*,*,#607,.T.);
#409=CARTESIAN_POINT('',(3.50000001487219,5.5,-0.300000044872194));
#410=DIRECTION('',(0.0,-1.0,0.0));
#411=DIRECTION('',(-4.95739735777539E-08,0.0,0.999999999999999));
#412=SURFACE_STYLE_FILL_AREA(#613);
#413=ORIENTED_EDGE('',*,*,#565,.T.);
#414=ORIENTED_EDGE('',*,*,#554,.T.);
#415=ORIENTED_EDGE('',*,*,#614,.F.);
#416=ORIENTED_EDGE('',*,*,#615,.T.);
#417=ORIENTED_EDGE('',*,*,#611,.T.);
#418=ORIENTED_EDGE('',*,*,#616,.T.);
#419=ORIENTED_EDGE('',*,*,#587,.F.);
#420=CARTESIAN_POINT('',(2.90000000219886,5.5,-0.300000032198874));
#421=DIRECTION('',(0.0,-1.0,0.0));
#422=DIRECTION('',(3.26003807081694E-07,0.0,-0.999999999999947));
#423=SURFACE_STYLE_FILL_AREA(#617);
#424=ORIENTED_EDGE('',*,*,#553,.T.);
#425=ORIENTED_EDGE('',*,*,#618,.F.);
#426=ORIENTED_EDGE('',*,*,#619,.T.);
#427=ORIENTED_EDGE('',*,*,#614,.T.);
#428=CARTESIAN_POINT('',(2.98111155742065,5.5,-0.311173245472737));
#429=DIRECTION('',(0.0,-1.0,-0.0));
#430=DIRECTION('',(-0.608390225717558,0.0,-0.793638036671214));
#431=SURFACE_STYLE_FILL_AREA(#620);
#432=ORIENTED_EDGE('',*,*,#552,.T.);
#433=ORIENTED_EDGE('',*,*,#621,.F.);
#434=ORIENTED_EDGE('',*,*,#622,.F.);
#435=ORIENTED_EDGE('',*,*,#618,.T.);
#436=CARTESIAN_POINT('',(-4.14805181314648E-08,5.5,-4.20000010816029));
#437=DIRECTION('',(0.0,-1.0,0.0));
#438=DIRECTION('',(0.608390105581928,0.0,0.793638128765252));
#439=SURFACE_STYLE_FILL_AREA(#623);
#440=ORIENTED_EDGE('',*,*,#551,.T.);
#441=ORIENTED_EDGE('',*,*,#624,.F.);
#442=ORIENTED_EDGE('',*,*,#625,.F.);
#443=ORIENTED_EDGE('',*,*,#621,.T.);
#444=CARTESIAN_POINT('',(-1.59205269983133E-08,5.5,-4.19999993893219));
#445=DIRECTION('',(0.0,-1.0,0.0));
#446=DIRECTION('',(3.46098472034903E-09,0.0,1.0));
#447=SURFACE_STYLE_FILL_AREA(#626);
#448=ORIENTED_EDGE('',*,*,#550,.T.);
#449=ORIENTED_EDGE('',*,*,#576,.F.);
#450=ORIENTED_EDGE('',*,*,#627,.T.);
#451=ORIENTED_EDGE('',*,*,#624,.T.);
#452=CARTESIAN_POINT('',(-2.98111144631592,5.5,-0.311173467539382));
#453=DIRECTION('',(0.0,-1.0,0.0));
#454=DIRECTION('',(0.270371404203692,0.0,-0.962756097767718));
#455=SURFACE_STYLE_FILL_AREA(#628);
#456=ORIENTED_EDGE('',*,*,#629,.T.);
#457=ORIENTED_EDGE('',*,*,#630,.F.);
#458=ORIENTED_EDGE('',*,*,#631,.F.);
#459=ORIENTED_EDGE('',*,*,#574,.T.);
#460=CARTESIAN_POINT('',(-3.50000001487219,5.5,-0.300000044872193));
#461=DIRECTION('',(0.0,-1.0,0.0));
#462=DIRECTION('',(0.999999999999999,0.0,4.95739724675311E-08));
#463=SURFACE_STYLE_FILL_AREA(#632);
#464=ORIENTED_EDGE('',*,*,#633,.T.);
#465=ORIENTED_EDGE('',*,*,#634,.F.);
#466=ORIENTED_EDGE('',*,*,#635,.T.);
#467=ORIENTED_EDGE('',*,*,#630,.T.);
#468=CARTESIAN_POINT('',(-4.099999905,5.5,-3.0E-08));
#469=DIRECTION('',(0.0,0.0,-1.0));
#470=DIRECTION('',(1.0,0.0,0.0));
#471=SURFACE_STYLE_FILL_AREA(#636);
#472=ORIENTED_EDGE('',*,*,#637,.T.);
#473=ORIENTED_EDGE('',*,*,#638,.F.);
#474=ORIENTED_EDGE('',*,*,#639,.T.);
#475=ORIENTED_EDGE('',*,*,#634,.T.);
#476=CARTESIAN_POINT('',(-4.70000001093414,5.5,0.599999961728333));
#477=DIRECTION('',(0.0,-1.0,0.0));
#478=DIRECTION('',(-0.876565177194147,0.0,0.481283170421109));
#479=SURFACE_STYLE_FILL_AREA(#640);
#480=ORIENTED_EDGE('',*,*,#561,.T.);
#481=ORIENTED_EDGE('',*,*,#559,.T.);
#482=ORIENTED_EDGE('',*,*,#641,.F.);
#483=ORIENTED_EDGE('',*,*,#642,.T.);
#484=ORIENTED_EDGE('',*,*,#638,.T.);
#485=ORIENTED_EDGE('',*,*,#643,.T.);
#486=ORIENTED_EDGE('',*,*,#599,.F.);
#487=CARTESIAN_POINT('',(12.3053628795675,5.5,-8.7368962527099));
#488=DIRECTION('',(0.0,-1.0,0.0));
#489=DIRECTION('',(-0.68363128056107,0.0,0.729827563358929));
#490=SURFACE_STYLE_FILL_AREA(#644);
#491=ORIENTED_EDGE('',*,*,#558,.T.);
#492=ORIENTED_EDGE('',*,*,#645,.F.);
#493=ORIENTED_EDGE('',*,*,#646,.T.);
#494=ORIENTED_EDGE('',*,*,#641,.T.);
#495=CARTESIAN_POINT('',(3.35859327067913E-08,5.5,4.39999990121744));
#496=DIRECTION('',(0.0,-1.0,0.0));
#497=DIRECTION('',(-1.67929658275453E-08,0.0,1.0));
#498=SURFACE_STYLE_FILL_AREA(#647);
#499=ORIENTED_EDGE('',*,*,#557,.T.);
#500=ORIENTED_EDGE('',*,*,#594,.F.);
#501=ORIENTED_EDGE('',*,*,#648,.T.);
#502=ORIENTED_EDGE('',*,*,#645,.T.);
#503=CARTESIAN_POINT('',(3.45500981158153E-08,5.5,4.40000007362554));
#504=DIRECTION('',(0.0,-1.0,0.0));
#505=DIRECTION('',(0.683631363145785,0.0,0.729827486001614));
#506=SURFACE_STYLE_FILL_AREA(#649);
#507=ORIENTED_EDGE('',*,*,#593,.F.);
#508=ORIENTED_EDGE('',*,*,#604,.F.);
#509=ORIENTED_EDGE('',*,*,#608,.F.);
#510=ORIENTED_EDGE('',*,*,#612,.T.);
#511=ORIENTED_EDGE('',*,*,#615,.F.);
#512=ORIENTED_EDGE('',*,*,#619,.F.);
#513=ORIENTED_EDGE('',*,*,#622,.T.);
#514=ORIENTED_EDGE('',*,*,#625,.T.);
#515=ORIENTED_EDGE('',*,*,#627,.F.);
#516=ORIENTED_EDGE('',*,*,#575,.F.);
#517=ORIENTED_EDGE('',*,*,#631,.T.);
#518=ORIENTED_EDGE('',*,*,#635,.F.);
#519=ORIENTED_EDGE('',*,*,#639,.F.);
#520=ORIENTED_EDGE('',*,*,#642,.F.);
#521=ORIENTED_EDGE('',*,*,#646,.F.);
#522=ORIENTED_EDGE('',*,*,#648,.F.);
#523=CARTESIAN_POINT('',(-2.6888328230612E-09,5.5,2.19988489361405));
#524=DIRECTION('',(0.0,-1.0,0.0));
#525=DIRECTION('',(-1.0,0.0,0.0));
#526=SURFACE_STYLE_FILL_AREA(#650);
#527=ORIENTED_EDGE('',*,*,#602,.F.);
#528=ORIENTED_EDGE('',*,*,#591,.F.);
#529=ORIENTED_EDGE('',*,*,#597,.F.);
#530=ORIENTED_EDGE('',*,*,#600,.F.);
#531=ORIENTED_EDGE('',*,*,#643,.F.);
#532=ORIENTED_EDGE('',*,*,#637,.F.);
#533=ORIENTED_EDGE('',*,*,#633,.F.);
#534=ORIENTED_EDGE('',*,*,#629,.F.);
#535=ORIENTED_EDGE('',*,*,#573,.F.);
#536=ORIENTED_EDGE('',*,*,#579,.F.);
#537=ORIENTED_EDGE('',*,*,#582,.F.);
#538=ORIENTED_EDGE('',*,*,#585,.F.);
#539=ORIENTED_EDGE('',*,*,#588,.F.);
#540=ORIENTED_EDGE('',*,*,#616,.F.);
#541=ORIENTED_EDGE('',*,*,#610,.F.);
#542=ORIENTED_EDGE('',*,*,#606,.F.);
#543=CARTESIAN_POINT('',(-2.68883290632793E-09,-11.5,2.19988489361405));
#544=DIRECTION('',(0.0,-1.0,0.0));
#545=DIRECTION('',(-1.0,0.0,0.0));
#546=SURFACE_STYLE_FILL_AREA(#651);
#547=FILL_AREA_STYLE('',(#652));
#548=EDGE_CURVE('',#653,#654,#655,.T.);
#549=EDGE_CURVE('',#656,#653,#657,.T.);
#550=EDGE_CURVE('',#658,#656,#659,.T.);
#551=EDGE_CURVE('',#660,#658,#661,.T.);
#552=EDGE_CURVE('',#662,#660,#663,.T.);
#553=EDGE_CURVE('',#664,#662,#665,.T.);
#554=EDGE_CURVE('',#666,#664,#667,.T.);
#555=EDGE_CURVE('',#668,#666,#669,.T.);
#556=EDGE_CURVE('',#670,#668,#671,.T.);
#557=EDGE_CURVE('',#672,#670,#673,.T.);
#558=EDGE_CURVE('',#674,#672,#675,.T.);
#559=EDGE_CURVE('',#654,#674,#676,.T.);
#560=FILL_AREA_STYLE('',(#677));
#561=EDGE_CURVE('',#678,#654,#679,.T.);
#562=EDGE_CURVE('',#680,#678,#681,.T.);
#563=EDGE_CURVE('',#682,#680,#683,.T.);
#564=EDGE_CURVE('',#668,#682,#684,.T.);
#565=EDGE_CURVE('',#685,#666,#686,.T.);
#566=EDGE_CURVE('',#687,#685,#688,.T.);
#567=EDGE_CURVE('',#689,#687,#690,.T.);
#568=EDGE_CURVE('',#691,#689,#692,.T.);
#569=EDGE_CURVE('',#693,#691,#694,.T.);
#570=EDGE_CURVE('',#653,#693,#695,.T.);
#571=FILL_AREA_STYLE('',(#696));
#572=EDGE_CURVE('',#693,#697,#698,.T.);
#573=EDGE_CURVE('',#697,#699,#700,.T.);
#574=EDGE_CURVE('',#701,#699,#702,.T.);
#575=EDGE_CURVE('',#701,#703,#704,.T.);
#576=EDGE_CURVE('',#703,#656,#705,.T.);
#577=FILL_AREA_STYLE('',(#706));
#578=EDGE_CURVE('',#691,#707,#708,.T.);
#579=EDGE_CURVE('',#707,#697,#709,.T.);
#580=FILL_AREA_STYLE('',(#710));
#581=EDGE_CURVE('',#689,#711,#712,.T.);
#582=EDGE_CURVE('',#711,#707,#713,.T.);
#583=FILL_AREA_STYLE('',(#714));
#584=EDGE_CURVE('',#687,#715,#716,.T.);
#585=EDGE_CURVE('',#715,#711,#717,.T.);
#586=FILL_AREA_STYLE('',(#718));
#587=EDGE_CURVE('',#685,#719,#720,.T.);
#588=EDGE_CURVE('',#719,#715,#721,.T.);
#589=FILL_AREA_STYLE('',(#722));
#590=EDGE_CURVE('',#682,#723,#724,.T.);
#591=EDGE_CURVE('',#723,#725,#726,.T.);
#592=EDGE_CURVE('',#727,#725,#728,.T.);
#593=EDGE_CURVE('',#727,#729,#730,.T.);
#594=EDGE_CURVE('',#729,#670,#731,.T.);
#595=FILL_AREA_STYLE('',(#732));
#596=EDGE_CURVE('',#680,#733,#734,.T.);
#597=EDGE_CURVE('',#733,#723,#735,.T.);
#598=FILL_AREA_STYLE('',(#736));
#599=EDGE_CURVE('',#678,#737,#738,.T.);
#600=EDGE_CURVE('',#737,#733,#739,.T.);
#601=FILL_AREA_STYLE('',(#740));
#602=EDGE_CURVE('',#725,#741,#742,.T.);
#603=EDGE_CURVE('',#743,#741,#744,.T.);
#604=EDGE_CURVE('',#743,#727,#745,.T.);
#605=FILL_AREA_STYLE('',(#746));
#606=EDGE_CURVE('',#741,#747,#748,.T.);
#607=EDGE_CURVE('',#749,#747,#750,.T.);
#608=EDGE_CURVE('',#749,#743,#751,.T.);
#609=FILL_AREA_STYLE('',(#752));
#610=EDGE_CURVE('',#747,#753,#754,.T.);
#611=EDGE_CURVE('',#755,#753,#756,.T.);
#612=EDGE_CURVE('',#749,#755,#757,.T.);
#613=FILL_AREA_STYLE('',(#758));
#614=EDGE_CURVE('',#759,#664,#760,.T.);
#615=EDGE_CURVE('',#759,#755,#761,.T.);
#616=EDGE_CURVE('',#753,#719,#762,.T.);
#617=FILL_AREA_STYLE('',(#763));
#618=EDGE_CURVE('',#764,#662,#765,.T.);
#619=EDGE_CURVE('',#764,#759,#766,.T.);
#620=FILL_AREA_STYLE('',(#767));
#621=EDGE_CURVE('',#768,#660,#769,.T.);
#622=EDGE_CURVE('',#764,#768,#770,.T.);
#623=FILL_AREA_STYLE('',(#771));
#624=EDGE_CURVE('',#772,#658,#773,.T.);
#625=EDGE_CURVE('',#768,#772,#774,.T.);
#626=FILL_AREA_STYLE('',(#775));
#627=EDGE_CURVE('',#703,#772,#776,.T.);
#628=FILL_AREA_STYLE('',(#777));
#629=EDGE_CURVE('',#699,#778,#779,.T.);
#630=EDGE_CURVE('',#780,#778,#781,.T.);
#631=EDGE_CURVE('',#701,#780,#782,.T.);
#632=FILL_AREA_STYLE('',(#783));
#633=EDGE_CURVE('',#778,#784,#785,.T.);
#634=EDGE_CURVE('',#786,#784,#787,.T.);
#635=EDGE_CURVE('',#786,#780,#788,.T.);
#636=FILL_AREA_STYLE('',(#789));
#637=EDGE_CURVE('',#784,#790,#791,.T.);
#638=EDGE_CURVE('',#792,#790,#793,.T.);
#639=EDGE_CURVE('',#792,#786,#794,.T.);
#640=FILL_AREA_STYLE('',(#795));
#641=EDGE_CURVE('',#796,#674,#797,.T.);
#642=EDGE_CURVE('',#796,#792,#798,.T.);
#643=EDGE_CURVE('',#790,#737,#799,.T.);
#644=FILL_AREA_STYLE('',(#800));
#645=EDGE_CURVE('',#801,#672,#802,.T.);
#646=EDGE_CURVE('',#801,#796,#803,.T.);
#647=FILL_AREA_STYLE('',(#804));
#648=EDGE_CURVE('',#729,#801,#805,.T.);
#649=FILL_AREA_STYLE('',(#806));
#650=FILL_AREA_STYLE('',(#807));
#651=FILL_AREA_STYLE('',(#808));
#652=FILL_AREA_STYLE_COLOUR('',#809);
#653=VERTEX_POINT('',#810);
#654=VERTEX_POINT('',#811);
#655=LINE('',#812,#813);
#656=VERTEX_POINT('',#814);
#657=B_SPLINE_CURVE_WITH_KNOTS('',3,(#815,#816,#817,#818,#819,#820,#821,#822,#823,#824),.UNSPECIFIED.,.F.,.F.,(4,2,2,2,4),(3.82444542501793,4.31020929130648,4.79597315759503,5.28173702388359,5.76750089017214),.UNSPECIFIED.);
#658=VERTEX_POINT('',#825);
#659=B_SPLINE_CURVE_WITH_KNOTS('',3,(#826,#827,#828,#829,#830,#831),.UNSPECIFIED.,.F.,.F.,(4,2,4),(3.14506365209842,3.4281543105161,3.85595914373973),.UNSPECIFIED.);
#660=VERTEX_POINT('',#832);
#661=B_SPLINE_CURVE_WITH_KNOTS('',3,(#833,#834,#835,#836,#837,#838,#839,#840,#841,#842,#843,#844,#845,#846,#847,#848,#849,#850),.UNSPECIFIED.,.F.,.F.,(4,2,2,2,2,2,2,2,4),(4.11324929464224,4.69754718149086,5.28184506713509,5.86614295277933,6.45044083842356,7.0347387240678,7.62482763208427,8.21491654010075,8.80500544811722),.UNSPECIFIED.);
#662=VERTEX_POINT('',#851);
#663=B_SPLINE_CURVE_WITH_KNOTS('',3,(#852,#853,#854,#855,#856,#857,#858,#859,#860,#861,#862,#863,#864,#865,#866,#867,#868,#869),.UNSPECIFIED.,.F.,.F.,(4,2,2,2,2,2,2,2,4),(0.590088906206738,1.18017781241348,1.77026671862021,2.36035562482695,2.94465351104323,3.5289513972595,4.11324928347578,4.69754716969206,5.28184505277035),.UNSPECIFIED.);
#664=VERTEX_POINT('',#870);
#665=B_SPLINE_CURVE_WITH_KNOTS('',3,(#871,#872,#873,#874,#875,#876),.UNSPECIFIED.,.F.,.F.,(4,2,4),(4.71157000579112,5.1393749023641,5.42246564862228),.UNSPECIFIED.);
#666=VERTEX_POINT('',#877);
#667=B_SPLINE_CURVE_WITH_KNOTS('',3,(#878,#879,#880,#881,#882,#883,#884,#885,#886,#887),.UNSPECIFIED.,.F.,.F.,(4,2,2,2,4),(3.82444542501792,4.31020929130647,4.79597315759502,5.28173702388358,5.76750089017213),.UNSPECIFIED.);
#668=VERTEX_POINT('',#888);
#669=LINE('',#889,#890);
#670=VERTEX_POINT('',#891);
#671=B_SPLINE_CURVE_WITH_KNOTS('',3,(#892,#893,#894,#895,#896,#897,#898,#899,#900,#901,#902,#903,#904,#905,#906,#907,#908,#909,#910,#911,#912,#913),.UNSPECIFIED.,.F.,.F.,(4,2,2,2,2,2,2,2,2,2,4),(1.4881973635387,2.9763947270774,3.51672399604422,4.05705326501105,4.59738253397787,5.13771180294469,5.67804107191152,6.21837034087834,6.75869960984516,7.29902887881198,8.78722624235068),.UNSPECIFIED.);
#672=VERTEX_POINT('',#914);
#673=B_SPLINE_CURVE_WITH_KNOTS('',3,(#915,#916,#917,#918,#919,#920,#921,#922,#923,#924,#925,#926),.UNSPECIFIED.,.F.,.F.,(4,2,2,2,2,4),(2.74867025774317,3.13885723950883,3.52904422403376,3.91923120855869,4.30941819308362,4.69960517760855),.UNSPECIFIED.);
#674=VERTEX_POINT('',#927);
#675=B_SPLINE_CURVE_WITH_KNOTS('',3,(#928,#929,#930,#931,#932,#933,#934,#935,#936,#937,#938,#939),.UNSPECIFIED.,.F.,.F.,(4,2,2,2,2,4),(1.57810946716612,1.96829648524815,2.35848350333019,2.74867052141223,3.13885753949426,3.52904456025857),.UNSPECIFIED.);
#676=B_SPLINE_CURVE_WITH_KNOTS('',3,(#940,#941,#942,#943,#944,#945,#946,#947,#948,#949,#950,#951,#952,#953,#954,#955,#956,#957,#958,#959,#960,#961),.UNSPECIFIED.,.F.,.F.,(4,2,2,2,2,2,2,2,2,2,4),(1.48819736305068,2.97639472610137,3.51672399563358,4.0570532651658,4.59738253469802,5.13771180423024,5.67804107376245,6.21837034329467,6.75869961282689,7.29902888235911,8.78722624540979),.UNSPECIFIED.);
#677=FILL_AREA_STYLE_COLOUR('',#962);
#678=VERTEX_POINT('',#963);
#679=B_SPLINE_CURVE_WITH_KNOTS('',3,(#964,#965,#966,#967,#968,#969,#970,#971,#972,#973,#974,#975,#976,#977,#978,#979,#980,#981,#982,#983,#984,#985),.UNSPECIFIED.,.F.,.F.,(4,2,2,2,2,2,2,2,2,2,4),(1.48819736305068,2.97639472610137,3.51672399563358,4.0570532651658,4.59738253469802,5.13771180423024,5.67804107376245,6.21837034329467,6.75869961282689,7.29902888235911,8.78722624540979),.UNSPECIFIED.);
#680=VERTEX_POINT('',#986);
#681=B_SPLINE_CURVE_WITH_KNOTS('',3,(#987,#988,#989,#990,#991,#992,#993,#994,#995,#996,#997,#998),.UNSPECIFIED.,.F.,.F.,(4,2,2,2,2,4),(9.02638562876642,9.41657264953072,9.80675966761276,10.1969466856948,10.5871337037768,10.9773207218589),.UNSPECIFIED.);
#682=VERTEX_POINT('',#999);
#683=B_SPLINE_CURVE_WITH_KNOTS('',3,(#1000,#1001,#1002,#1003,#1004,#1005,#1006,#1007,#1008,#1009,#1010,#1011),.UNSPECIFIED.,.F.,.F.,(4,2,2,2,2,4),(7.85582381238329,8.24601079690822,8.63619778143315,9.02638476595808,9.41657175048301,9.80675873224867),.UNSPECIFIED.);
#684=B_SPLINE_CURVE_WITH_KNOTS('',3,(#1012,#1013,#1014,#1015,#1016,#1017,#1018,#1019,#1020,#1021,#1022,#1023,#1024,#1025,#1026,#1027,#1028,#1029,#1030,#1031,#1032,#1033),.UNSPECIFIED.,.F.,.F.,(4,2,2,2,2,2,2,2,2,2,4),(1.4881973635387,2.9763947270774,3.51672399604422,4.05705326501105,4.59738253397787,5.13771180294469,5.67804107191152,6.21837034087834,6.75869960984516,7.29902887881198,8.78722624235068),.UNSPECIFIED.);
#685=VERTEX_POINT('',#1034);
#686=B_SPLINE_CURVE_WITH_KNOTS('',3,(#1035,#1036,#1037,#1038,#1039,#1040,#1041,#1042,#1043,#1044),.UNSPECIFIED.,.F.,.F.,(4,2,2,2,4),(3.82444542501792,4.31020929130647,4.79597315759502,5.28173702388358,5.76750089017213),.UNSPECIFIED.);
#687=VERTEX_POINT('',#1045);
#688=B_SPLINE_CURVE_WITH_KNOTS('',3,(#1046,#1047,#1048,#1049,#1050,#1051),.UNSPECIFIED.,.F.,.F.,(4,2,4),(3.14506456981396,3.42815531607215,3.85596021264514),.UNSPECIFIED.);
#689=VERTEX_POINT('',#1052);
#690=B_SPLINE_CURVE_WITH_KNOTS('',3,(#1053,#1054,#1055,#1056,#1057,#1058,#1059,#1060,#1061,#1062,#1063,#1064,#1065,#1066,#1067,#1068,#1069,#1070),.UNSPECIFIED.,.F.,.F.,(4,2,2,2,2,2,2,2,4),(13.5083435903132,14.0926414733915,14.6769393596077,15.261237245824,15.8455351320403,16.4298330182566,17.0199219244633,17.61001083067,18.2000997368768),.UNSPECIFIED.);
#691=VERTEX_POINT('',#1071);
#692=B_SPLINE_CURVE_WITH_KNOTS('',3,(#1072,#1073,#1074,#1075,#1076,#1077,#1078,#1079,#1080,#1081,#1082,#1083,#1084,#1085,#1086,#1087,#1088,#1089),.UNSPECIFIED.,.F.,.F.,(4,2,2,2,2,2,2,2,4),(9.98518326415017,10.5752721721666,11.1653610801831,11.7554499881996,12.3397478738438,12.9240457594881,13.5083436451323,14.0926415307765,14.6769394176251),.UNSPECIFIED.);
#693=VERTEX_POINT('',#1090);
#694=B_SPLINE_CURVE_WITH_KNOTS('',3,(#1091,#1092,#1093,#1094,#1095,#1096),.UNSPECIFIED.,.F.,.F.,(4,2,4),(4.71156881018699,5.13937364341062,5.4224643018283),.UNSPECIFIED.);
#695=B_SPLINE_CURVE_WITH_KNOTS('',3,(#1097,#1098,#1099,#1100,#1101,#1102,#1103,#1104,#1105,#1106),.UNSPECIFIED.,.F.,.F.,(4,2,2,2,4),(3.82444542501793,4.31020929130648,4.79597315759503,5.28173702388359,5.76750089017214),.UNSPECIFIED.);
#696=FILL_AREA_STYLE_COLOUR('',#1107);
#697=VERTEX_POINT('',#1108);
#698=LINE('',#1109,#1110);
#699=VERTEX_POINT('',#1111);
#700=CIRCLE('',#1112,0.299999997801141);
#701=VERTEX_POINT('',#1113);
#702=LINE('',#1114,#1115);
#703=VERTEX_POINT('',#1116);
#704=CIRCLE('',#1117,0.299999997801141);
#705=LINE('',#1118,#1119);
#706=FILL_AREA_STYLE_COLOUR('',#1120);
#707=VERTEX_POINT('',#1121);
#708=LINE('',#1122,#1123);
#709=CIRCLE('',#1124,0.299999722806537);
#710=FILL_AREA_STYLE_COLOUR('',#1125);
#711=VERTEX_POINT('',#1126);
#712=LINE('',#1127,#1128);
#713=CIRCLE('',#1129,4.59999993893219);
#714=FILL_AREA_STYLE_COLOUR('',#1130);
#715=VERTEX_POINT('',#1131);
#716=LINE('',#1132,#1133);
#717=CIRCLE('',#1134,4.60000010816029);
#718=FILL_AREA_STYLE_COLOUR('',#1135);
#719=VERTEX_POINT('',#1136);
#720=LINE('',#1137,#1138);
#721=CIRCLE('',#1139,0.299999966642096);
#722=FILL_AREA_STYLE_COLOUR('',#1140);
#723=VERTEX_POINT('',#1141);
#724=LINE('',#1142,#1143);
#725=VERTEX_POINT('',#1144);
#726=CIRCLE('',#1145,20.0000000792393);
#727=VERTEX_POINT('',#1146);
#728=LINE('',#1147,#1148);
#729=VERTEX_POINT('',#1149);
#730=CIRCLE('',#1150,20.0000000792393);
#731=LINE('',#1151,#1152);
#732=FILL_AREA_STYLE_COLOUR('',#1153);
#733=VERTEX_POINT('',#1154);
#734=LINE('',#1155,#1156);
#735=CIRCLE('',#1157,1.99999989637446);
#736=FILL_AREA_STYLE_COLOUR('',#1158);
#737=VERTEX_POINT('',#1159);
#738=LINE('',#1160,#1161);
#739=CIRCLE('',#1162,2.00000006878256);
#740=FILL_AREA_STYLE_COLOUR('',#1163);
#741=VERTEX_POINT('',#1164);
#742=CIRCLE('',#1165,0.600000000659642);
#743=VERTEX_POINT('',#1166);
#744=LINE('',#1167,#1168);
#745=CIRCLE('',#1169,0.600000000659642);
#746=FILL_AREA_STYLE_COLOUR('',#1170);
#747=VERTEX_POINT('',#1171);
#748=LINE('',#1172,#1173);
#749=VERTEX_POINT('',#1174);
#750=LINE('',#1175,#1176);
#751=LINE('',#1177,#1178);
#752=FILL_AREA_STYLE_COLOUR('',#1179);
#753=VERTEX_POINT('',#1180);
#754=CIRCLE('',#1181,0.300000014872194);
#755=VERTEX_POINT('',#1182);
#756=LINE('',#1183,#1184);
#757=CIRCLE('',#1185,0.300000014872194);
#758=FILL_AREA_STYLE_COLOUR('',#1186);
#759=VERTEX_POINT('',#1187);
#760=LINE('',#1188,#1189);
#761=CIRCLE('',#1190,0.299999997801141);
#762=CIRCLE('',#1191,0.299999997801141);
#763=FILL_AREA_STYLE_COLOUR('',#1192);
#764=VERTEX_POINT('',#1193);
#765=LINE('',#1194,#1195);
#766=CIRCLE('',#1196,0.299999966642096);
#767=FILL_AREA_STYLE_COLOUR('',#1197);
#768=VERTEX_POINT('',#1198);
#769=LINE('',#1199,#1200);
#770=CIRCLE('',#1201,4.60000010816029);
#771=FILL_AREA_STYLE_COLOUR('',#1202);
#772=VERTEX_POINT('',#1203);
#773=LINE('',#1204,#1205);
#774=CIRCLE('',#1206,4.59999993893219);
#775=FILL_AREA_STYLE_COLOUR('',#1207);
#776=CIRCLE('',#1208,0.299999722806537);
#777=FILL_AREA_STYLE_COLOUR('',#1209);
#778=VERTEX_POINT('',#1210);
#779=CIRCLE('',#1211,0.300000014872193);
#780=VERTEX_POINT('',#1212);
#781=LINE('',#1213,#1214);
#782=CIRCLE('',#1215,0.300000014872193);
#783=FILL_AREA_STYLE_COLOUR('',#1216);
#784=VERTEX_POINT('',#1217);
#785=LINE('',#1218,#1219);
#786=VERTEX_POINT('',#1220);
#787=LINE('',#1221,#1222);
#788=LINE('',#1223,#1224);
#789=FILL_AREA_STYLE_COLOUR('',#1225);
#790=VERTEX_POINT('',#1226);
#791=CIRCLE('',#1227,0.599999991728367);
#792=VERTEX_POINT('',#1228);
#793=LINE('',#1229,#1230);
#794=CIRCLE('',#1231,0.599999991728367);
#795=FILL_AREA_STYLE_COLOUR('',#1232);
#796=VERTEX_POINT('',#1233);
#797=LINE('',#1234,#1235);
#798=CIRCLE('',#1236,19.9999999390696);
#799=CIRCLE('',#1237,19.9999999390696);
#800=FILL_AREA_STYLE_COLOUR('',#1238);
#801=VERTEX_POINT('',#1239);
#802=LINE('',#1240,#1241);
#803=CIRCLE('',#1242,2.00000006878256);
#804=FILL_AREA_STYLE_COLOUR('',#1243);
#805=CIRCLE('',#1244,1.99999989637446);
#806=FILL_AREA_STYLE_COLOUR('',#1245);
#807=FILL_AREA_STYLE_COLOUR('',#1246);
#808=FILL_AREA_STYLE_COLOUR('',#1247);
#809=COLOUR_RGB('',0.792156875133514,0.882352948188782,1.0);
#810=CARTESIAN_POINT('',(-3.0,-1.83697019872103E-16,-0.582842743118665));
#811=CARTESIAN_POINT('',(-3.0,-1.83697019872103E-16,4.13733633364421));
#812=CARTESIAN_POINT('',(-3.0,-3.67394039744206E-16,2.9));
#813=VECTOR('',#1248,1.0);
#814=CARTESIAN_POINT('',(-2.9000001,0.768114197238919,-0.600000029999999));
#815=CARTESIAN_POINT('',(-2.82524715978451,1.00894919898357,-0.590537484572333));
#816=CARTESIAN_POINT('',(-2.87950120499511,0.857027687680015,-0.604496594005001));
#817=CARTESIAN_POINT('',(-2.92577237111549,0.686264283822337,-0.600459595836609));
#818=CARTESIAN_POINT('',(-2.98602802059453,0.338731388645685,-0.589032341404816));
#819=CARTESIAN_POINT('',(-3.0,0.161921288762851,-0.582842743118665));
#820=CARTESIAN_POINT('',(-3.0,-0.161921288762851,-0.582842743118665));
#821=CARTESIAN_POINT('',(-2.98602802059453,-0.338731388645685,-0.589032341404816));
#822=CARTESIAN_POINT('',(-2.92577237111549,-0.686264283822338,-0.600459595836609));
#823=CARTESIAN_POINT('',(-2.87950120499511,-0.857027687680016,-0.604496594005001));
#824=CARTESIAN_POINT('',(-2.82524715978451,-1.00894919898357,-0.590537484572333));
#825=CARTESIAN_POINT('',(-2.79859451,1.08067977153172,-0.54926463));
#826=CARTESIAN_POINT('',(-2.76354952922513,1.16738768175769,-0.517732529107197));
#827=CARTESIAN_POINT('',(-2.79752612801356,1.08695509277827,-0.553518971553875));
#828=CARTESIAN_POINT('',(-2.83601222251737,0.982750786944242,-0.575490191748237));
#829=CARTESIAN_POINT('',(-2.90602172672131,0.758322571572506,-0.605207768349616));
#830=CARTESIAN_POINT('',(-2.94215881518449,0.606587451609911,-0.609562517670176));
#831=CARTESIAN_POINT('',(-2.96565378506203,0.452656190885827,-0.610774693158635));
#832=CARTESIAN_POINT('',(2.50393747150255E-15,3.0,0.4));
#833=CARTESIAN_POINT('',(0.590905204654589,2.94122951146491,0.361888974497556));
#834=CARTESIAN_POINT('',(0.394305186192531,2.98072727039954,0.38735473649563));
#835=CARTESIAN_POINT('',(0.194765962282871,3.0,0.399999999325918));
#836=CARTESIAN_POINT('',(-0.194765961881412,3.0,0.400000000674082));
#837=CARTESIAN_POINT('',(-0.394305185488705,2.98072727047743,0.387354739275923));
#838=CARTESIAN_POINT('',(-0.787505221993847,2.90173175281936,0.33642321820459));
#839=CARTESIAN_POINT('',(-0.98117623913755,2.84204088222565,0.298166242208255));
#840=CARTESIAN_POINT('',(-1.34932273081172,2.68686267553931,0.201764916299572));
#841=CARTESIAN_POINT('',(-1.52418642114446,2.59124839752971,0.143578396477071));
#842=CARTESIAN_POINT('',(-1.84554155721104,2.37311796202597,0.0170835761923133));
#843=CARTESIAN_POINT('',(-1.99205271019898,2.2505879768573,-0.0511508020730324));
#844=CARTESIAN_POINT('',(-2.25186915757842,1.9907715296045,-0.186182398292115));
#845=CARTESIAN_POINT('',(-2.37463008885973,1.84357758769278,-0.25819161441958));
#846=CARTESIAN_POINT('',(-2.59232257727638,1.52233702981661,-0.397818382164346));
#847=CARTESIAN_POINT('',(-2.68730873248648,1.34828503710347,-0.465338417019153));
#848=CARTESIAN_POINT('',(-2.84168530255315,0.981999271848376,-0.581415710468292));
#849=CARTESIAN_POINT('',(-2.90120526815009,0.789376377013229,-0.629893735635186));
#850=CARTESIAN_POINT('',(-2.94079555096009,0.593061149843197,-0.662808813297681));
#851=CARTESIAN_POINT('',(2.79859451,1.08067977153172,-0.54926463));
#852=CARTESIAN_POINT('',(2.94079555120563,0.59306114862566,-0.662808810377199));
#853=CARTESIAN_POINT('',(2.90120526852707,0.789376375563341,-0.629893733780683));
#854=CARTESIAN_POINT('',(2.84168530307755,0.981999270311154,-0.581415710087825));
#855=CARTESIAN_POINT('',(2.6873087332963,1.34828503547502,-0.465338419721259));
#856=CARTESIAN_POINT('',(2.5923225782255,1.52233702818376,-0.397818386469222));
#857=CARTESIAN_POINT('',(2.374630090171,1.84357758599006,-0.258191621562055));
#858=CARTESIAN_POINT('',(2.25186915911555,1.99077152783794,-0.186182406670293));
#859=CARTESIAN_POINT('',(1.99205271186355,2.2505879754199,-0.0511508120354124));
#860=CARTESIAN_POINT('',(1.84554155868546,2.37311796090169,0.0170835657977869));
#861=CARTESIAN_POINT('',(1.52418642228164,2.59124839688129,0.143578385931133));
#862=CARTESIAN_POINT('',(1.34932273180268,2.68686267505459,0.2017649060348));
#863=CARTESIAN_POINT('',(0.981176239855833,2.8420408819899,0.298166233375196));
#864=CARTESIAN_POINT('',(0.787505222595589,2.90173175266579,0.33642321052192));
#865=CARTESIAN_POINT('',(0.39430518582678,2.98072727044219,0.387354734793989));
#866=CARTESIAN_POINT('',(0.194765962072092,3.0,0.399999998243699));
#867=CARTESIAN_POINT('',(-0.194765961026099,3.0,0.400000001756305));
#868=CARTESIAN_POINT('',(-0.39430518399298,2.98072727064513,0.387354742037969));
#869=CARTESIAN_POINT('',(-0.59090520183157,2.94122951203207,0.361888983712198));
#870=CARTESIAN_POINT('',(2.9000001,0.768114197238917,-0.600000029999999));
#871=CARTESIAN_POINT('',(2.96565377498472,0.452656256909017,-0.610774708999574));
#872=CARTESIAN_POINT('',(2.94215879826209,0.606587539504698,-0.609562524617503));
#873=CARTESIAN_POINT('',(2.90602169933382,0.75832268014685,-0.605207762275188));
#874=CARTESIAN_POINT('',(2.83601217118772,0.982750937740866,-0.575490159083714));
#875=CARTESIAN_POINT('',(2.79752605931197,1.08695527143119,-0.55351892034839));
#876=CARTESIAN_POINT('',(2.76354944589931,1.16738787901435,-0.517732456392118));
#877=CARTESIAN_POINT('',(3.0,1.83697019872103E-16,-0.582842743118666));
#878=CARTESIAN_POINT('',(2.82524715978451,-1.00894919898356,-0.590537484572333));
#879=CARTESIAN_POINT('',(2.87950120499511,-0.857027687680013,-0.604496594005001));
#880=CARTESIAN_POINT('',(2.92577237111549,-0.686264283822336,-0.600459595836609));
#881=CARTESIAN_POINT('',(2.98602802059453,-0.338731388645684,-0.589032341404816));
#882=CARTESIAN_POINT('',(3.0,-0.16192128876285,-0.582842743118666));
#883=CARTESIAN_POINT('',(3.0,0.16192128876285,-0.582842743118666));
#884=CARTESIAN_POINT('',(2.98602802059453,0.338731388645684,-0.589032341404816));
#885=CARTESIAN_POINT('',(2.92577237111549,0.686264283822336,-0.600459595836609));
#886=CARTESIAN_POINT('',(2.87950120499511,0.857027687680014,-0.604496594005001));
#887=CARTESIAN_POINT('',(2.82524715978451,1.00894919898356,-0.590537484572333));
#888=CARTESIAN_POINT('',(3.0,1.62880338160381E-16,4.13733633106829));
#889=CARTESIAN_POINT('',(3.0,3.67394039744206E-16,2.9));
#890=VECTOR('',#1249,1.0);
#891=CARTESIAN_POINT('',(1.36726269000001,2.67031697304532,5.85965496999998));
#892=CARTESIAN_POINT('',(1.36550039559354,2.67121857391601,5.86130551582123));
#893=CARTESIAN_POINT('',(1.72969555137881,2.48504562337042,5.52024554760063));
#894=CARTESIAN_POINT('',(2.05817719760979,2.22084312111815,5.18554296447761));
#895=CARTESIAN_POINT('',(2.4129858914327,1.78876407260532,4.8052380168954));
#896=CARTESIAN_POINT('',(2.50494558343332,1.65904943430725,4.70447153465029));
#897=CARTESIAN_POINT('',(2.67170500257843,1.37447800257942,4.51840617360225));
#898=CARTESIAN_POINT('',(2.74650556812009,1.21959386606675,4.43314986860812));
#899=CARTESIAN_POINT('',(2.86981059391128,0.891565239284699,4.29088056410044));
#900=CARTESIAN_POINT('',(2.91841005741497,0.718036180947445,4.23381190756717));
#901=CARTESIAN_POINT('',(2.98352416361375,0.362321375905882,4.15699631705137));
#902=CARTESIAN_POINT('',(3.0,0.180109756322275,4.13733633106829));
#903=CARTESIAN_POINT('',(3.0,-0.180109756322274,4.13733633106829));
#904=CARTESIAN_POINT('',(2.98352416361375,-0.362321375905881,4.15699631705137));
#905=CARTESIAN_POINT('',(2.91841005741497,-0.718036180947444,4.23381190756717));
#906=CARTESIAN_POINT('',(2.86981059391128,-0.891565239284698,4.29088056410044));
#907=CARTESIAN_POINT('',(2.74650556812009,-1.21959386606675,4.43314986860811));
#908=CARTESIAN_POINT('',(2.67170500257843,-1.37447800257942,4.51840617360225));
#909=CARTESIAN_POINT('',(2.50494558343333,-1.65904943430724,4.70447153465029));
#910=CARTESIAN_POINT('',(2.4129858914327,-1.78876407260532,4.8052380168954));
#911=CARTESIAN_POINT('',(2.0581771976098,-2.22084312111815,5.18554296447761));
#912=CARTESIAN_POINT('',(1.72969555137882,-2.48504562337042,5.52024554760063));
#913=CARTESIAN_POINT('',(1.36550039559355,-2.67121857391601,5.86130551582123));
#914=CARTESIAN_POINT('',(6.66133814775094E-16,3.0,6.39999997));
#915=CARTESIAN_POINT('',(-0.394418902797123,2.97395926823424,6.36072271779522));
#916=CARTESIAN_POINT('',(-0.263251391121376,2.99135525163509,6.38710837247032));
#917=CARTESIAN_POINT('',(-0.130062292705122,3.00000000149789,6.39999997));
#918=CARTESIAN_POINT('',(0.130062362725075,2.99999999850211,6.39999997));
#919=CARTESIAN_POINT('',(0.263251461834313,2.99135524545209,6.38710837229159));
#920=CARTESIAN_POINT('',(0.525586486146636,2.95656327213247,6.33433706245673));
#921=CARTESIAN_POINT('',(0.654739391868636,2.93043592108336,6.29447895625207));
#922=CARTESIAN_POINT('',(0.900133214715709,2.86459394745862,6.19094786021512));
#923=CARTESIAN_POINT('',(1.01663547563034,2.82484900968608,6.12718986662663));
#924=CARTESIAN_POINT('',(1.23065468682037,2.73839527092503,5.98184119288865));
#925=CARTESIAN_POINT('',(1.3281853807008,2.69173530684137,5.90024170581577));
#926=CARTESIAN_POINT('',(1.4142135248274,2.64575133113361,5.81421356154579));
#927=CARTESIAN_POINT('',(-1.36726269,2.67031697304533,5.85965497));
#928=CARTESIAN_POINT('',(-1.41421357627814,2.64575130363203,5.81421351337279));
#929=CARTESIAN_POINT('',(-1.32818542513219,2.69173528524274,5.90024166437935));
#930=CARTESIAN_POINT('',(-1.23065472322119,2.73839525499061,5.98184115801143));
#931=CARTESIAN_POINT('',(-1.01663549421316,2.82484900340969,6.12718984361689));
#932=CARTESIAN_POINT('',(-0.900133223508288,2.86459394517197,6.19094784251277));
#933=CARTESIAN_POINT('',(-0.654739379881763,2.93043592422707,6.29447894724134));
#934=CARTESIAN_POINT('',(-0.525586463133378,2.95656327672194,6.33433705684177));
#935=CARTESIAN_POINT('',(-0.263251416339547,2.99135524994843,6.38710837118251));
#936=CARTESIAN_POINT('',(-0.130062305774747,3.00000000145609,6.39999997));
#937=CARTESIAN_POINT('',(0.130062373840701,2.99999999854391,6.39999997));
#938=CARTESIAN_POINT('',(0.263251485079147,2.99135524393797,6.38710837100877));
#939=CARTESIAN_POINT('',(0.39441900894307,2.97395925415672,6.36072271360283));
#940=CARTESIAN_POINT('',(-1.36550039340719,-2.67121857503365,5.86130551786501));
#941=CARTESIAN_POINT('',(-1.72969554952534,-2.48504562469388,5.52024555019877));
#942=CARTESIAN_POINT('',(-2.05817719601402,-2.22084312258971,5.18554296747316));
#943=CARTESIAN_POINT('',(-2.41298589024781,-1.78876407421954,4.80523802006636));
#944=CARTESIAN_POINT('',(-2.50494558244048,-1.6590494358246,4.7044715377558));
#945=CARTESIAN_POINT('',(-2.6717050019261,-1.37447800386951,4.51840617656794));
#946=CARTESIAN_POINT('',(-2.74650556761646,-1.21959386722652,4.43314987149952));
#947=CARTESIAN_POINT('',(-2.86981059365168,-0.891565240155347,4.29088056685468));
#948=CARTESIAN_POINT('',(-2.91841005725103,-0.718036181658938,4.23381191025873));
#949=CARTESIAN_POINT('',(-2.98352416357964,-0.362321376276339,4.15699631965355));
#950=CARTESIAN_POINT('',(-3.0,-0.180109756510739,4.13733633364421));
#951=CARTESIAN_POINT('',(-3.0,0.180109756510739,4.13733633364421));
#952=CARTESIAN_POINT('',(-2.98352416357964,0.362321376276339,4.15699631965355));
#953=CARTESIAN_POINT('',(-2.91841005725103,0.718036181658938,4.23381191025872));
#954=CARTESIAN_POINT('',(-2.86981059365168,0.891565240155346,4.29088056685468));
#955=CARTESIAN_POINT('',(-2.74650556761646,1.21959386722652,4.43314987149952));
#956=CARTESIAN_POINT('',(-2.6717050019261,1.37447800386951,4.51840617656794));
#957=CARTESIAN_POINT('',(-2.50494558244048,1.6590494358246,4.7044715377558));
#958=CARTESIAN_POINT('',(-2.41298589024781,1.78876407421954,4.80523802006636));
#959=CARTESIAN_POINT('',(-2.05817719601402,2.22084312258971,5.18554296747316));
#960=CARTESIAN_POINT('',(-1.72969554952533,2.48504562469388,5.52024555019877));
#961=CARTESIAN_POINT('',(-1.36550039340718,2.67121857503365,5.86130551786501));
#962=COLOUR_RGB('',0.792156875133514,0.882352948188782,1.0);
#963=CARTESIAN_POINT('',(-1.36726269,-2.67031697304533,5.85965497));
#964=CARTESIAN_POINT('',(-1.36550039340719,-2.67121857503365,5.86130551786501));
#965=CARTESIAN_POINT('',(-1.72969554952534,-2.48504562469388,5.52024555019877));
#966=CARTESIAN_POINT('',(-2.05817719601402,-2.22084312258971,5.18554296747316));
#967=CARTESIAN_POINT('',(-2.41298589024781,-1.78876407421954,4.80523802006636));
#968=CARTESIAN_POINT('',(-2.50494558244048,-1.6590494358246,4.7044715377558));
#969=CARTESIAN_POINT('',(-2.6717050019261,-1.37447800386951,4.51840617656794));
#970=CARTESIAN_POINT('',(-2.74650556761646,-1.21959386722652,4.43314987149952));
#971=CARTESIAN_POINT('',(-2.86981059365168,-0.891565240155347,4.29088056685468));
#972=CARTESIAN_POINT('',(-2.91841005725103,-0.718036181658938,4.23381191025873));
#973=CARTESIAN_POINT('',(-2.98352416357964,-0.362321376276339,4.15699631965355));
#974=CARTESIAN_POINT('',(-3.0,-0.180109756510739,4.13733633364421));
#975=CARTESIAN_POINT('',(-3.0,0.180109756510739,4.13733633364421));
#976=CARTESIAN_POINT('',(-2.98352416357964,0.362321376276339,4.15699631965355));
#977=CARTESIAN_POINT('',(-2.91841005725103,0.718036181658938,4.23381191025872));
#978=CARTESIAN_POINT('',(-2.86981059365168,0.891565240155346,4.29088056685468));
#979=CARTESIAN_POINT('',(-2.74650556761646,1.21959386722652,4.43314987149952));
#980=CARTESIAN_POINT('',(-2.6717050019261,1.37447800386951,4.51840617656794));
#981=CARTESIAN_POINT('',(-2.50494558244048,1.6590494358246,4.7044715377558));
#982=CARTESIAN_POINT('',(-2.41298589024781,1.78876407421954,4.80523802006636));
#983=CARTESIAN_POINT('',(-2.05817719601402,2.22084312258971,5.18554296747316));
#984=CARTESIAN_POINT('',(-1.72969554952533,2.48504562469388,5.52024555019877));
#985=CARTESIAN_POINT('',(-1.36550039340718,2.67121857503365,5.86130551786501));
#986=CARTESIAN_POINT('',(6.66133814775094E-16,-3.0,6.39999997));
#987=CARTESIAN_POINT('',(0.39441900894307,-2.97395925415672,6.36072271360283));
#988=CARTESIAN_POINT('',(0.263251485079147,-2.99135524393797,6.38710837100877));
#989=CARTESIAN_POINT('',(0.130062373840701,-2.99999999854391,6.39999997));
#990=CARTESIAN_POINT('',(-0.130062305774746,-3.00000000145609,6.39999997));
#991=CARTESIAN_POINT('',(-0.263251416339547,-2.99135524994843,6.38710837118251));
#992=CARTESIAN_POINT('',(-0.525586463133377,-2.95656327672194,6.33433705684176));
#993=CARTESIAN_POINT('',(-0.654739379881762,-2.93043592422707,6.29447894724134));
#994=CARTESIAN_POINT('',(-0.900133223508287,-2.86459394517197,6.19094784251277));
#995=CARTESIAN_POINT('',(-1.01663549421316,-2.82484900340969,6.12718984361689));
#996=CARTESIAN_POINT('',(-1.23065472322119,-2.73839525499061,5.98184115801143));
#997=CARTESIAN_POINT('',(-1.32818542513219,-2.69173528524273,5.90024166437936));
#998=CARTESIAN_POINT('',(-1.41421357627814,-2.64575130363203,5.81421351337279));
#999=CARTESIAN_POINT('',(1.36726269000001,-2.67031697304532,5.85965496999998));
#1000=CARTESIAN_POINT('',(1.4142135248274,-2.64575133113361,5.81421356154579));
#1001=CARTESIAN_POINT('',(1.3281853807008,-2.69173530684137,5.90024170581577));
#1002=CARTESIAN_POINT('',(1.23065468682037,-2.73839527092503,5.98184119288865));
#1003=CARTESIAN_POINT('',(1.01663547563034,-2.82484900968608,6.12718986662663));
#1004=CARTESIAN_POINT('',(0.90013321471571,-2.86459394745862,6.19094786021512));
#1005=CARTESIAN_POINT('',(0.654739391868637,-2.93043592108336,6.29447895625207));
#1006=CARTESIAN_POINT('',(0.525586486146637,-2.95656327213247,6.33433706245673));
#1007=CARTESIAN_POINT('',(0.263251461834314,-2.99135524545209,6.38710837229159));
#1008=CARTESIAN_POINT('',(0.130062362725075,-2.99999999850211,6.39999997));
#1009=CARTESIAN_POINT('',(-0.130062292705122,-3.00000000149789,6.39999997));
#1010=CARTESIAN_POINT('',(-0.263251391121377,-2.99135525163509,6.38710837247032));
#1011=CARTESIAN_POINT('',(-0.394418902797125,-2.97395926823424,6.36072271779522));
#1012=CARTESIAN_POINT('',(1.36550039559354,2.67121857391601,5.86130551582123));
#1013=CARTESIAN_POINT('',(1.72969555137881,2.48504562337042,5.52024554760063));
#1014=CARTESIAN_POINT('',(2.05817719760979,2.22084312111815,5.18554296447761));
#1015=CARTESIAN_POINT('',(2.4129858914327,1.78876407260532,4.8052380168954));
#1016=CARTESIAN_POINT('',(2.50494558343332,1.65904943430725,4.70447153465029));
#1017=CARTESIAN_POINT('',(2.67170500257843,1.37447800257942,4.51840617360225));
#1018=CARTESIAN_POINT('',(2.74650556812009,1.21959386606675,4.43314986860812));
#1019=CARTESIAN_POINT('',(2.86981059391128,0.891565239284699,4.29088056410044));
#1020=CARTESIAN_POINT('',(2.91841005741497,0.718036180947445,4.23381190756717));
#1021=CARTESIAN_POINT('',(2.98352416361375,0.362321375905882,4.15699631705137));
#1022=CARTESIAN_POINT('',(3.0,0.180109756322275,4.13733633106829));
#1023=CARTESIAN_POINT('',(3.0,-0.180109756322274,4.13733633106829));
#1024=CARTESIAN_POINT('',(2.98352416361375,-0.362321375905881,4.15699631705137));
#1025=CARTESIAN_POINT('',(2.91841005741497,-0.718036180947444,4.23381190756717));
#1026=CARTESIAN_POINT('',(2.86981059391128,-0.891565239284698,4.29088056410044));
#1027=CARTESIAN_POINT('',(2.74650556812009,-1.21959386606675,4.43314986860811));
#1028=CARTESIAN_POINT('',(2.67170500257843,-1.37447800257942,4.51840617360225));
#1029=CARTESIAN_POINT('',(2.50494558343333,-1.65904943430724,4.70447153465029));
#1030=CARTESIAN_POINT('',(2.4129858914327,-1.78876407260532,4.8052380168954));
#1031=CARTESIAN_POINT('',(2.0581771976098,-2.22084312111815,5.18554296447761));
#1032=CARTESIAN_POINT('',(1.72969555137882,-2.48504562337042,5.52024554760063));
#1033=CARTESIAN_POINT('',(1.36550039559355,-2.67121857391601,5.86130551582123));
#1034=CARTESIAN_POINT('',(2.9000001,-0.768114197238917,-0.600000029999999));
#1035=CARTESIAN_POINT('',(2.82524715978451,-1.00894919898356,-0.590537484572333));
#1036=CARTESIAN_POINT('',(2.87950120499511,-0.857027687680013,-0.604496594005001));
#1037=CARTESIAN_POINT('',(2.92577237111549,-0.686264283822336,-0.600459595836609));
#1038=CARTESIAN_POINT('',(2.98602802059453,-0.338731388645684,-0.589032341404816));
#1039=CARTESIAN_POINT('',(3.0,-0.16192128876285,-0.582842743118666));
#1040=CARTESIAN_POINT('',(3.0,0.16192128876285,-0.582842743118666));
#1041=CARTESIAN_POINT('',(2.98602802059453,0.338731388645684,-0.589032341404816));
#1042=CARTESIAN_POINT('',(2.92577237111549,0.686264283822336,-0.600459595836609));
#1043=CARTESIAN_POINT('',(2.87950120499511,0.857027687680014,-0.604496594005001));
#1044=CARTESIAN_POINT('',(2.82524715978451,1.00894919898356,-0.590537484572333));
#1045=CARTESIAN_POINT('',(2.79859451,-1.08067977153172,-0.54926463));
#1046=CARTESIAN_POINT('',(2.76354944589931,-1.16738787901435,-0.517732456392117));
#1047=CARTESIAN_POINT('',(2.79752605931197,-1.08695527143119,-0.55351892034839));
#1048=CARTESIAN_POINT('',(2.83601217118772,-0.982750937740866,-0.575490159083714));
#1049=CARTESIAN_POINT('',(2.90602169933382,-0.758322680146849,-0.605207762275188));
#1050=CARTESIAN_POINT('',(2.94215879826209,-0.606587539504697,-0.609562524617503));
#1051=CARTESIAN_POINT('',(2.96565377498472,-0.452656256909015,-0.610774708999574));
#1052=CARTESIAN_POINT('',(2.50393747150255E-15,-3.0,0.4));
#1053=CARTESIAN_POINT('',(-0.590905201831569,-2.94122951203207,0.361888983712198));
#1054=CARTESIAN_POINT('',(-0.39430518399298,-2.98072727064513,0.387354742037969));
#1055=CARTESIAN_POINT('',(-0.194765961026099,-3.0,0.400000001756305));
#1056=CARTESIAN_POINT('',(0.194765962072092,-3.0,0.399999998243699));
#1057=CARTESIAN_POINT('',(0.39430518582678,-2.98072727044219,0.387354734793989));
#1058=CARTESIAN_POINT('',(0.787505222595589,-2.90173175266579,0.33642321052192));
#1059=CARTESIAN_POINT('',(0.981176239855833,-2.8420408819899,0.298166233375196));
#1060=CARTESIAN_POINT('',(1.34932273180268,-2.68686267505459,0.2017649060348));
#1061=CARTESIAN_POINT('',(1.52418642228164,-2.59124839688129,0.143578385931133));
#1062=CARTESIAN_POINT('',(1.84554155868546,-2.37311796090169,0.0170835657977869));
#1063=CARTESIAN_POINT('',(1.99205271186355,-2.2505879754199,-0.0511508120354123));
#1064=CARTESIAN_POINT('',(2.25186915911555,-1.99077152783794,-0.186182406670293));
#1065=CARTESIAN_POINT('',(2.374630090171,-1.84357758599006,-0.258191621562055));
#1066=CARTESIAN_POINT('',(2.5923225782255,-1.52233702818376,-0.397818386469222));
#1067=CARTESIAN_POINT('',(2.6873087332963,-1.34828503547502,-0.465338419721259));
#1068=CARTESIAN_POINT('',(2.84168530307755,-0.981999270311154,-0.581415710087825));
#1069=CARTESIAN_POINT('',(2.90120526852707,-0.789376375563341,-0.629893733780683));
#1070=CARTESIAN_POINT('',(2.94079555120563,-0.59306114862566,-0.662808810377199));
#1071=CARTESIAN_POINT('',(-2.79859451,-1.08067977153172,-0.54926463));
#1072=CARTESIAN_POINT('',(-2.94079555096009,-0.593061149843197,-0.662808813297681));
#1073=CARTESIAN_POINT('',(-2.90120526815009,-0.789376377013228,-0.629893735635186));
#1074=CARTESIAN_POINT('',(-2.84168530255315,-0.981999271848375,-0.581415710468293));
#1075=CARTESIAN_POINT('',(-2.68730873248648,-1.34828503710347,-0.465338417019154));
#1076=CARTESIAN_POINT('',(-2.59232257727638,-1.52233702981661,-0.397818382164346));
#1077=CARTESIAN_POINT('',(-2.37463008885973,-1.84357758769278,-0.25819161441958));
#1078=CARTESIAN_POINT('',(-2.25186915757842,-1.9907715296045,-0.186182398292115));
#1079=CARTESIAN_POINT('',(-1.99205271019898,-2.2505879768573,-0.0511508020730324));
#1080=CARTESIAN_POINT('',(-1.84554155721104,-2.37311796202597,0.0170835761923132));
#1081=CARTESIAN_POINT('',(-1.52418642114446,-2.59124839752971,0.143578396477071));
#1082=CARTESIAN_POINT('',(-1.34932273081172,-2.68686267553931,0.201764916299572));
#1083=CARTESIAN_POINT('',(-0.98117623913755,-2.84204088222565,0.298166242208255));
#1084=CARTESIAN_POINT('',(-0.787505221993847,-2.90173175281936,0.33642321820459));
#1085=CARTESIAN_POINT('',(-0.394305185488705,-2.98072727047743,0.387354739275923));
#1086=CARTESIAN_POINT('',(-0.194765961881412,-3.0,0.400000000674082));
#1087=CARTESIAN_POINT('',(0.194765962282871,-3.0,0.399999999325918));
#1088=CARTESIAN_POINT('',(0.39430518619253,-2.98072727039954,0.38735473649563));
#1089=CARTESIAN_POINT('',(0.590905204654589,-2.94122951146491,0.361888974497556));
#1090=CARTESIAN_POINT('',(-2.9000001,-0.768114197238919,-0.600000029999999));
#1091=CARTESIAN_POINT('',(-2.96565378506203,-0.452656190885827,-0.610774693158635));
#1092=CARTESIAN_POINT('',(-2.94215881518449,-0.606587451609911,-0.609562517670176));
#1093=CARTESIAN_POINT('',(-2.90602172672131,-0.758322571572506,-0.605207768349616));
#1094=CARTESIAN_POINT('',(-2.83601222251737,-0.982750786944242,-0.575490191748237));
#1095=CARTESIAN_POINT('',(-2.79752612801356,-1.08695509277827,-0.553518971553875));
#1096=CARTESIAN_POINT('',(-2.76354952922513,-1.16738768175769,-0.517732529107197));
#1097=CARTESIAN_POINT('',(-2.82524715978451,1.00894919898357,-0.590537484572333));
#1098=CARTESIAN_POINT('',(-2.87950120499511,0.857027687680015,-0.604496594005001));
#1099=CARTESIAN_POINT('',(-2.92577237111549,0.686264283822337,-0.600459595836609));
#1100=CARTESIAN_POINT('',(-2.98602802059453,0.338731388645685,-0.589032341404816));
#1101=CARTESIAN_POINT('',(-3.0,0.161921288762851,-0.582842743118665));
#1102=CARTESIAN_POINT('',(-3.0,-0.161921288762851,-0.582842743118665));
#1103=CARTESIAN_POINT('',(-2.98602802059453,-0.338731388645685,-0.589032341404816));
#1104=CARTESIAN_POINT('',(-2.92577237111549,-0.686264283822338,-0.600459595836609));
#1105=CARTESIAN_POINT('',(-2.87950120499511,-0.857027687680016,-0.604496594005001));
#1106=CARTESIAN_POINT('',(-2.82524715978451,-1.00894919898357,-0.590537484572333));
#1107=COLOUR_RGB('',0.792156875133514,0.882352948188782,1.0);
#1108=CARTESIAN_POINT('',(-2.9000001,-11.5,-0.60000003));
#1109=CARTESIAN_POINT('',(-2.9000001,5.5,-0.60000003));
#1110=VECTOR('',#1250,1.0);
#1111=CARTESIAN_POINT('',(-3.2,-11.5,-0.30000003));
#1112=AXIS2_PLACEMENT_3D('',#1251,#1252,#1253);
#1113=CARTESIAN_POINT('',(-3.2,5.5,-0.30000003));
#1114=CARTESIAN_POINT('',(-3.2,5.5,-0.30000003));
#1115=VECTOR('',#1254,1.0);
#1116=CARTESIAN_POINT('',(-2.9000001,5.5,-0.60000003));
#1117=AXIS2_PLACEMENT_3D('',#1255,#1256,#1257);
#1118=CARTESIAN_POINT('',(-2.9000001,5.5,-0.60000003));
#1119=VECTOR('',#1258,1.0);
#1120=COLOUR_RGB('',0.792156875133514,0.882352948188782,1.0);
#1121=CARTESIAN_POINT('',(-2.79859451,-11.5,-0.54926463));
#1122=CARTESIAN_POINT('',(-2.79859451,5.5,-0.54926463));
#1123=VECTOR('',#1259,1.0);
#1124=AXIS2_PLACEMENT_3D('',#1260,#1261,#1262);
#1125=COLOUR_RGB('',0.792156875133514,0.882352948188782,1.0);
#1126=CARTESIAN_POINT('',(2.50393747150255E-15,-11.5,0.4));
#1127=CARTESIAN_POINT('',(2.50393747150255E-15,5.5,0.4));
#1128=VECTOR('',#1263,1.0);
#1129=AXIS2_PLACEMENT_3D('',#1264,#1265,#1266);
#1130=COLOUR_RGB('',0.792156875133514,0.882352948188782,1.0);
#1131=CARTESIAN_POINT('',(2.79859451,-11.5,-0.54926463));
#1132=CARTESIAN_POINT('',(2.79859451,5.5,-0.54926463));
#1133=VECTOR('',#1267,1.0);
#1134=AXIS2_PLACEMENT_3D('',#1268,#1269,#1270);
#1135=COLOUR_RGB('',0.792156875133514,0.882352948188782,1.0);
#1136=CARTESIAN_POINT('',(2.9000001,-11.5,-0.60000003));
#1137=CARTESIAN_POINT('',(2.9000001,5.5,-0.60000003));
#1138=VECTOR('',#1271,1.0);
#1139=AXIS2_PLACEMENT_3D('',#1272,#1273,#1274);
#1140=COLOUR_RGB('',0.792156875133514,0.882352948188782,1.0);
#1141=CARTESIAN_POINT('',(1.36726269000001,-11.5,5.85965496999998));
#1142=CARTESIAN_POINT('',(1.36726269000001,5.5,5.85965496999998));
#1143=VECTOR('',#1275,1.0);
#1144=CARTESIAN_POINT('',(5.22593911,-11.5,0.888769859999988));
#1145=AXIS2_PLACEMENT_3D('',#1276,#1277,#1278);
#1146=CARTESIAN_POINT('',(5.22593911,5.5,0.888769859999988));
#1147=CARTESIAN_POINT('',(5.22593911,5.5,0.888769859999988));
#1148=VECTOR('',#1279,1.0);
#1149=CARTESIAN_POINT('',(1.36726269000001,5.5,5.85965496999998));
#1150=AXIS2_PLACEMENT_3D('',#1280,#1281,#1282);
#1151=CARTESIAN_POINT('',(1.36726269000001,5.5,5.85965496999998));
#1152=VECTOR('',#1283,1.0);
#1153=COLOUR_RGB('',0.792156875133514,0.882352948188782,1.0);
#1154=CARTESIAN_POINT('',(6.66133814775094E-16,-11.5,6.39999997));
#1155=CARTESIAN_POINT('',(6.66133814775094E-16,5.5,6.39999997));
#1156=VECTOR('',#1284,1.0);
#1157=AXIS2_PLACEMENT_3D('',#1285,#1286,#1287);
#1158=COLOUR_RGB('',0.792156875133514,0.882352948188782,1.0);
#1159=CARTESIAN_POINT('',(-1.36726269,-11.5,5.85965497));
#1160=CARTESIAN_POINT('',(-1.36726269,5.5,5.85965497));
#1161=VECTOR('',#1288,1.0);
#1162=AXIS2_PLACEMENT_3D('',#1289,#1290,#1291);
#1163=COLOUR_RGB('',0.792156875133514,0.882352948188782,1.0);
#1164=CARTESIAN_POINT('',(4.69999981,-11.5,-3.0E-08));
#1165=AXIS2_PLACEMENT_3D('',#1292,#1293,#1294);
#1166=CARTESIAN_POINT('',(4.69999981,5.5,-3.0E-08));
#1167=CARTESIAN_POINT('',(4.69999981,5.5,-3.0E-08));
#1168=VECTOR('',#1295,1.0);
#1169=AXIS2_PLACEMENT_3D('',#1296,#1297,#1298);
#1170=COLOUR_RGB('',0.792156875133514,0.882352948188782,1.0);
#1171=CARTESIAN_POINT('',(3.5,-11.5,-2.99999997621647E-08));
#1172=CARTESIAN_POINT('',(3.5,-11.5,-3.0E-08));
#1173=VECTOR('',#1299,1.0);
#1174=CARTESIAN_POINT('',(3.5,5.5,-2.99999997621647E-08));
#1175=CARTESIAN_POINT('',(3.5,5.5,-2.99999997621647E-08));
#1176=VECTOR('',#1300,1.0);
#1177=CARTESIAN_POINT('',(3.5,5.5,-3.0E-08));
#1178=VECTOR('',#1301,1.0);
#1179=COLOUR_RGB('',0.792156875133514,0.882352948188782,1.0);
#1180=CARTESIAN_POINT('',(3.2,-11.5,-0.30000003));
#1181=AXIS2_PLACEMENT_3D('',#1302,#1303,#1304);
#1182=CARTESIAN_POINT('',(3.2,5.5,-0.30000003));
#1183=CARTESIAN_POINT('',(3.2,5.5,-0.30000003));
#1184=VECTOR('',#1305,1.0);
#1185=AXIS2_PLACEMENT_3D('',#1306,#1307,#1308);
#1186=COLOUR_RGB('',0.792156875133514,0.882352948188782,1.0);
#1187=CARTESIAN_POINT('',(2.9000001,5.5,-0.60000003));
#1188=CARTESIAN_POINT('',(2.9000001,5.5,-0.60000003));
#1189=VECTOR('',#1309,1.0);
#1190=AXIS2_PLACEMENT_3D('',#1310,#1311,#1312);
#1191=AXIS2_PLACEMENT_3D('',#1313,#1314,#1315);
#1192=COLOUR_RGB('',0.792156875133514,0.882352948188782,1.0);
#1193=CARTESIAN_POINT('',(2.79859451,5.5,-0.54926463));
#1194=CARTESIAN_POINT('',(2.79859451,5.5,-0.54926463));
#1195=VECTOR('',#1316,1.0);
#1196=AXIS2_PLACEMENT_3D('',#1317,#1318,#1319);
#1197=COLOUR_RGB('',0.792156875133514,0.882352948188782,1.0);
#1198=CARTESIAN_POINT('',(2.50393747150255E-15,5.5,0.4));
#1199=CARTESIAN_POINT('',(2.50393747150255E-15,5.5,0.4));
#1200=VECTOR('',#1320,1.0);
#1201=AXIS2_PLACEMENT_3D('',#1321,#1322,#1323);
#1202=COLOUR_RGB('',0.792156875133514,0.882352948188782,1.0);
#1203=CARTESIAN_POINT('',(-2.79859451,5.5,-0.54926463));
#1204=CARTESIAN_POINT('',(-2.79859451,5.5,-0.54926463));
#1205=VECTOR('',#1324,1.0);
#1206=AXIS2_PLACEMENT_3D('',#1325,#1326,#1327);
#1207=COLOUR_RGB('',0.792156875133514,0.882352948188782,1.0);
#1208=AXIS2_PLACEMENT_3D('',#1328,#1329,#1330);
#1209=COLOUR_RGB('',0.792156875133514,0.882352948188782,1.0);
#1210=CARTESIAN_POINT('',(-3.5,-11.5,-3.0E-08));
#1211=AXIS2_PLACEMENT_3D('',#1331,#1332,#1333);
#1212=CARTESIAN_POINT('',(-3.5,5.5,-3.0E-08));
#1213=CARTESIAN_POINT('',(-3.5,5.5,-3.0E-08));
#1214=VECTOR('',#1334,1.0);
#1215=AXIS2_PLACEMENT_3D('',#1335,#1336,#1337);
#1216=COLOUR_RGB('',0.792156875133514,0.882352948188782,1.0);
#1217=CARTESIAN_POINT('',(-4.69999981,-11.5,-3.00000002617651E-08));
#1218=CARTESIAN_POINT('',(-4.69999981,-11.5,-3.0E-08));
#1219=VECTOR('',#1338,1.0);
#1220=CARTESIAN_POINT('',(-4.69999981,5.5,-3.00000002617651E-08));
#1221=CARTESIAN_POINT('',(-4.69999981,5.5,-3.00000002617651E-08));
#1222=VECTOR('',#1339,1.0);
#1223=CARTESIAN_POINT('',(-4.69999981,5.5,-3.0E-08));
#1224=VECTOR('',#1340,1.0);
#1225=COLOUR_RGB('',0.792156875133514,0.882352948188782,1.0);
#1226=CARTESIAN_POINT('',(-5.22593910999999,-11.5,0.888769860000006));
#1227=AXIS2_PLACEMENT_3D('',#1341,#1342,#1343);
#1228=CARTESIAN_POINT('',(-5.22593910999999,5.5,0.888769860000006));
#1229=CARTESIAN_POINT('',(-5.22593910999999,5.5,0.888769860000006));
#1230=VECTOR('',#1344,1.0);
#1231=AXIS2_PLACEMENT_3D('',#1345,#1346,#1347);
#1232=COLOUR_RGB('',0.792156875133514,0.882352948188782,1.0);
#1233=CARTESIAN_POINT('',(-1.36726269,5.5,5.85965497));
#1234=CARTESIAN_POINT('',(-1.36726269,5.5,5.85965497));
#1235=VECTOR('',#1348,1.0);
#1236=AXIS2_PLACEMENT_3D('',#1349,#1350,#1351);
#1237=AXIS2_PLACEMENT_3D('',#1352,#1353,#1354);
#1238=COLOUR_RGB('',0.792156875133514,0.882352948188782,1.0);
#1239=CARTESIAN_POINT('',(6.66133814775094E-16,5.5,6.39999997));
#1240=CARTESIAN_POINT('',(6.66133814775094E-16,5.5,6.39999997));
#1241=VECTOR('',#1355,1.0);
#1242=AXIS2_PLACEMENT_3D('',#1356,#1357,#1358);
#1243=COLOUR_RGB('',0.792156875133514,0.882352948188782,1.0);
#1244=AXIS2_PLACEMENT_3D('',#1359,#1360,#1361);
#1245=COLOUR_RGB('',0.792156875133514,0.882352948188782,1.0);
#1246=COLOUR_RGB('',0.792156875133514,0.882352948188782,1.0);
#1247=COLOUR_RGB('',0.792156875133514,0.882352948188782,1.0);
#1248=DIRECTION('',(0.0,0.0,1.0));
#1249=DIRECTION('',(0.0,0.0,-1.0));
#1250=DIRECTION('',(0.0,-1.0,0.0));
#1251=CARTESIAN_POINT('',(-2.90000000219886,-11.5,-0.300000032198874));
#1252=DIRECTION('',(0.0,1.0,0.0));
#1253=DIRECTION('',(-1.0,0.0,7.32958162503237E-09));
#1254=DIRECTION('',(0.0,-1.0,0.0));
#1255=CARTESIAN_POINT('',(-2.90000000219886,5.5,-0.300000032198874));
#1256=DIRECTION('',(0.0,-1.0,0.0));
#1257=DIRECTION('',(-1.0,0.0,7.32958162503237E-09));
#1258=DIRECTION('',(0.0,-1.0,0.0));
#1259=DIRECTION('',(0.0,-1.0,0.0));
#1260=CARTESIAN_POINT('',(-2.98111144631592,-11.5,-0.311173467539382));
#1261=DIRECTION('',(0.0,1.0,0.0));
#1262=DIRECTION('',(0.270371404203692,0.0,-0.962756097767718));
#1263=DIRECTION('',(0.0,-1.0,0.0));
#1264=CARTESIAN_POINT('',(-1.59205269983133E-08,-11.5,-4.19999993893219));
#1265=DIRECTION('',(0.0,-1.0,0.0));
#1266=DIRECTION('',(3.46098472034903E-09,0.0,1.0));
#1267=DIRECTION('',(0.0,-1.0,0.0));
#1268=CARTESIAN_POINT('',(-4.14805181314648E-08,-11.5,-4.20000010816029));
#1269=DIRECTION('',(0.0,-1.0,0.0));
#1270=DIRECTION('',(0.608390105581928,0.0,0.793638128765252));
#1271=DIRECTION('',(0.0,-1.0,0.0));
#1272=CARTESIAN_POINT('',(2.98111155742065,-11.5,-0.311173245472737));
#1273=DIRECTION('',(0.0,1.0,0.0));
#1274=DIRECTION('',(-0.608390225717558,0.0,-0.793638036671214));
#1275=DIRECTION('',(0.0,-1.0,0.0));
#1276=CARTESIAN_POINT('',(-12.3053629916885,-11.5,-8.73689633974446));
#1277=DIRECTION('',(0.0,1.0,0.0));
#1278=DIRECTION('',(0.876565101611506,-0.0,0.481283308080396));
#1279=DIRECTION('',(0.0,-1.0,0.0));
#1280=CARTESIAN_POINT('',(-12.3053629916885,5.5,-8.73689633974446));
#1281=DIRECTION('',(0.0,-1.0,0.0));
#1282=DIRECTION('',(0.876565101611506,0.0,0.481283308080396));
#1283=DIRECTION('',(0.0,-1.0,0.0));
#1284=DIRECTION('',(0.0,-1.0,0.0));
#1285=CARTESIAN_POINT('',(3.45500981158153E-08,-11.5,4.40000007362554));
#1286=DIRECTION('',(0.0,1.0,0.0));
#1287=DIRECTION('',(0.683631363145785,-0.0,0.729827486001614));
#1288=DIRECTION('',(0.0,-1.0,0.0));
#1289=CARTESIAN_POINT('',(3.35859327067913E-08,-11.5,4.39999990121744));
#1290=DIRECTION('',(0.0,1.0,0.0));
#1291=DIRECTION('',(-1.67929658275453E-08,0.0,1.0));
#1292=CARTESIAN_POINT('',(4.69999999584142,-11.5,0.599999970659614));
#1293=DIRECTION('',(0.0,1.0,0.0));
#1294=DIRECTION('',(-3.09735700450693E-07,0.0,-0.999999999999952));
#1295=DIRECTION('',(0.0,-1.0,0.0));
#1296=CARTESIAN_POINT('',(4.69999999584142,5.5,0.599999970659614));
#1297=DIRECTION('',(0.0,-1.0,-0.0));
#1298=DIRECTION('',(-3.09735700450693E-07,0.0,-0.999999999999952));
#1299=DIRECTION('',(-1.0,0.0,0.0));
#1300=DIRECTION('',(0.0,-1.0,0.0));
#1301=DIRECTION('',(1.0,0.0,-0.0));
#1302=CARTESIAN_POINT('',(3.50000001487219,-11.5,-0.300000044872194));
#1303=DIRECTION('',(0.0,-1.0,0.0));
#1304=DIRECTION('',(-4.95739735777539E-08,0.0,0.999999999999999));
#1305=DIRECTION('',(0.0,-1.0,0.0));
#1306=CARTESIAN_POINT('',(3.50000001487219,5.5,-0.300000044872194));
#1307=DIRECTION('',(0.0,-1.0,0.0));
#1308=DIRECTION('',(-4.95739735777539E-08,0.0,0.999999999999999));
#1309=DIRECTION('',(0.0,-1.0,0.0));
#1310=CARTESIAN_POINT('',(2.90000000219886,5.5,-0.300000032198874));
#1311=DIRECTION('',(0.0,-1.0,0.0));
#1312=DIRECTION('',(3.26003807081694E-07,0.0,-0.999999999999947));
#1313=CARTESIAN_POINT('',(2.90000000219886,-11.5,-0.300000032198874));
#1314=DIRECTION('',(0.0,1.0,0.0));
#1315=DIRECTION('',(3.26003807081694E-07,0.0,-0.999999999999947));
#1316=DIRECTION('',(0.0,-1.0,0.0));
#1317=CARTESIAN_POINT('',(2.98111155742065,5.5,-0.311173245472737));
#1318=DIRECTION('',(0.0,-1.0,-0.0));
#1319=DIRECTION('',(-0.608390225717558,0.0,-0.793638036671214));
#1320=DIRECTION('',(0.0,-1.0,0.0));
#1321=CARTESIAN_POINT('',(-4.14805181314648E-08,5.5,-4.20000010816029));
#1322=DIRECTION('',(0.0,-1.0,0.0));
#1323=DIRECTION('',(0.608390105581928,0.0,0.793638128765252));
#1324=DIRECTION('',(0.0,-1.0,0.0));
#1325=CARTESIAN_POINT('',(-1.59205269983133E-08,5.5,-4.19999993893219));
#1326=DIRECTION('',(0.0,-1.0,0.0));
#1327=DIRECTION('',(3.46098472034903E-09,0.0,1.0));
#1328=CARTESIAN_POINT('',(-2.98111144631592,5.5,-0.311173467539382));
#1329=DIRECTION('',(0.0,-1.0,0.0));
#1330=DIRECTION('',(0.270371404203692,0.0,-0.962756097767718));
#1331=CARTESIAN_POINT('',(-3.50000001487219,-11.5,-0.300000044872193));
#1332=DIRECTION('',(0.0,-1.0,0.0));
#1333=DIRECTION('',(0.999999999999999,0.0,4.95739724675311E-08));
#1334=DIRECTION('',(0.0,-1.0,0.0));
#1335=CARTESIAN_POINT('',(-3.50000001487219,5.5,-0.300000044872193));
#1336=DIRECTION('',(0.0,-1.0,0.0));
#1337=DIRECTION('',(0.999999999999999,0.0,4.95739724675311E-08));
#1338=DIRECTION('',(-1.0,0.0,0.0));
#1339=DIRECTION('',(0.0,-1.0,0.0));
#1340=DIRECTION('',(1.0,0.0,-0.0));
#1341=CARTESIAN_POINT('',(-4.70000001093414,-11.5,0.599999961728333));
#1342=DIRECTION('',(0.0,1.0,0.0));
#1343=DIRECTION('',(-0.876565177194147,0.0,0.481283170421109));
#1344=DIRECTION('',(0.0,-1.0,0.0));
#1345=CARTESIAN_POINT('',(-4.70000001093414,5.5,0.599999961728333));
#1346=DIRECTION('',(-0.0,-1.0,0.0));
#1347=DIRECTION('',(-0.876565177194147,0.0,0.481283170421109));
#1348=DIRECTION('',(0.0,-1.0,0.0));
#1349=CARTESIAN_POINT('',(12.3053628795675,5.5,-8.7368962527099));
#1350=DIRECTION('',(0.0,-1.0,0.0));
#1351=DIRECTION('',(-0.68363128056107,0.0,0.729827563358929));
#1352=CARTESIAN_POINT('',(12.3053628795675,-11.5,-8.7368962527099));
#1353=DIRECTION('',(0.0,1.0,0.0));
#1354=DIRECTION('',(-0.68363128056107,0.0,0.729827563358929));
#1355=DIRECTION('',(0.0,-1.0,0.0));
#1356=CARTESIAN_POINT('',(3.35859327067913E-08,5.5,4.39999990121744));
#1357=DIRECTION('',(0.0,-1.0,0.0));
#1358=DIRECTION('',(-1.67929658275453E-08,0.0,1.0));
#1359=CARTESIAN_POINT('',(3.45500981158153E-08,5.5,4.40000007362554));
#1360=DIRECTION('',(0.0,-1.0,0.0));
#1361=DIRECTION('',(0.683631363145785,0.0,0.729827486001614));
ENDSEC;
END-ISO-10303-21;
