ISO-10303-21;
HEADER;
FILE_DESCRIPTION(('STEP AP214'),'1');
FILE_NAME('cctmp_25E88928-56B2-42F2-ADE7-9077EB82384C_2026_02_25_14_06_42_0849_38544..stp','2026-02-25T13:06:42',('KiM GmbH'),('CADClick - www.CADClick.com'),'Spatial InterOp 3D',' ','unknown authorization');
FILE_SCHEMA(('AUTOMOTIVE_DESIGN'));
ENDSEC;
DATA;
#1=MECHANICAL_DESIGN_GEOMETRIC_PRESENTATION_REPRESENTATION(' ',(#14,#15,#16,#17,#18,#19,#20,#21,#22,#23,#24,#25,#26,#27,#28,#29,#30,#31,#32,#33,#34,#35,#36,#37,#38,#39,#40,#41,#42,#43,#44,#45,#46,#47,#48,#49,#50,#51,#52,#53,#54,#55,#56,#57,#58,#59,#60,#61,#62),#10);
#2=PRODUCT_DEFINITION_CONTEXT('',#63,'design');
#3=APPLICATION_PROTOCOL_DEFINITION('INTERNATIONAL STANDARD','automotive_design',1994,#63);
#4=PRODUCT_CATEGORY_RELATIONSHIP('NONE','NONE',#64,#65);
#5=SHAPE_DEFINITION_REPRESENTATION(#66,#67);
#6=PRODUCT_DEFINITION_CONTEXT('',#68,'design');
#7=APPLICATION_PROTOCOL_DEFINITION('INTERNATIONAL STANDARD','automotive_design',1994,#68);
#8=PRODUCT_CATEGORY_RELATIONSHIP('NONE','NONE',#69,#70);
#9=SHAPE_DEFINITION_REPRESENTATION(#71,#72);
#10= (GEOMETRIC_REPRESENTATION_CONTEXT(3)GLOBAL_UNCERTAINTY_ASSIGNED_CONTEXT((#75))GLOBAL_UNIT_ASSIGNED_CONTEXT((#77,#78,#79))REPRESENTATION_CONTEXT('NONE','WORKSPACE'));
#14=STYLED_ITEM('',(#81),#82);
#15=STYLED_ITEM('',(#83),#84);
#16=STYLED_ITEM('',(#85),#86);
#17=STYLED_ITEM('',(#87),#88);
#18=STYLED_ITEM('',(#89),#90);
#19=STYLED_ITEM('',(#91),#92);
#20=STYLED_ITEM('',(#93),#94);
#21=STYLED_ITEM('',(#95),#96);
#22=STYLED_ITEM('',(#97),#98);
#23=STYLED_ITEM('',(#99),#100);
#24=STYLED_ITEM('',(#101),#102);
#25=STYLED_ITEM('',(#103),#104);
#26=STYLED_ITEM('',(#105),#106);
#27=STYLED_ITEM('',(#107),#108);
#28=STYLED_ITEM('',(#109),#110);
#29=STYLED_ITEM('',(#111),#112);
#30=STYLED_ITEM('',(#113),#114);
#31=STYLED_ITEM('',(#115),#116);
#32=STYLED_ITEM('',(#117),#118);
#33=STYLED_ITEM('',(#119),#120);
#34=STYLED_ITEM('',(#121),#122);
#35=STYLED_ITEM('',(#123),#124);
#36=STYLED_ITEM('',(#125),#126);
#37=STYLED_ITEM('',(#127),#128);
#38=STYLED_ITEM('',(#129),#130);
#39=STYLED_ITEM('',(#131),#132);
#40=STYLED_ITEM('',(#133),#134);
#41=STYLED_ITEM('',(#135),#136);
#42=STYLED_ITEM('',(#137),#138);
#43=STYLED_ITEM('',(#139),#140);
#44=STYLED_ITEM('',(#141),#142);
#45=STYLED_ITEM('',(#143),#144);
#46=STYLED_ITEM('',(#145),#146);
#47=STYLED_ITEM('',(#147),#148);
#48=STYLED_ITEM('',(#149),#150);
#49=STYLED_ITEM('',(#151),#152);
#50=STYLED_ITEM('',(#153),#154);
#51=STYLED_ITEM('',(#155),#156);
#52=STYLED_ITEM('',(#157),#158);
#53=STYLED_ITEM('',(#159),#160);
#54=STYLED_ITEM('',(#161),#162);
#55=STYLED_ITEM('',(#163),#164);
#56=STYLED_ITEM('',(#165),#166);
#57=STYLED_ITEM('',(#167),#168);
#58=STYLED_ITEM('',(#169),#170);
#59=STYLED_ITEM('',(#171),#172);
#60=STYLED_ITEM('',(#173),#174);
#61=STYLED_ITEM('',(#175),#176);
#62=STYLED_ITEM('',(#177),#178);
#63=APPLICATION_CONTEXT(' ');
#64=PRODUCT_CATEGORY('part','NONE');
#65=PRODUCT_RELATED_PRODUCT_CATEGORY('detail',' ',(#179));
#66=PRODUCT_DEFINITION_SHAPE('NONE','NONE',#180);
#67=ADVANCED_BREP_SHAPE_REPRESENTATION('item_0068216_Seilumlenkung D42/D6-12_1',(#162,#164,#181),#10);
#68=APPLICATION_CONTEXT(' ');
#69=PRODUCT_CATEGORY('part','NONE');
#70=PRODUCT_RELATED_PRODUCT_CATEGORY('detail',' ',(#182));
#71=PRODUCT_DEFINITION_SHAPE('NONE','NONE',#183);
#72=ADVANCED_BREP_SHAPE_REPRESENTATION('item_0068216_Seilumlenkung D42/D6-12_2',(#178,#184),#10);
#75=UNCERTAINTY_MEASURE_WITH_UNIT(LENGTH_MEASURE(1.0E-06),#77,'','');
#77= (CONVERSION_BASED_UNIT('MILLIMETRE',#187)LENGTH_UNIT()NAMED_UNIT(#190));
#78= (NAMED_UNIT(#192)PLANE_ANGLE_UNIT()SI_UNIT($,.RADIAN.));
#79= (NAMED_UNIT(#192)SOLID_ANGLE_UNIT()SI_UNIT($,.STERADIAN.));
#81=PRESENTATION_STYLE_ASSIGNMENT((#198));
#82=ADVANCED_FACE('',(#199),#200,.T.);
#83=PRESENTATION_STYLE_ASSIGNMENT((#201));
#84=ADVANCED_FACE('',(#202),#203,.T.);
#85=PRESENTATION_STYLE_ASSIGNMENT((#204));
#86=ADVANCED_FACE('',(#205,#206),#207,.F.);
#87=PRESENTATION_STYLE_ASSIGNMENT((#208));
#88=ADVANCED_FACE('',(#209),#210,.T.);
#89=PRESENTATION_STYLE_ASSIGNMENT((#211));
#90=ADVANCED_FACE('',(#212),#213,.T.);
#91=PRESENTATION_STYLE_ASSIGNMENT((#214));
#92=ADVANCED_FACE('',(#215),#216,.T.);
#93=PRESENTATION_STYLE_ASSIGNMENT((#217));
#94=ADVANCED_FACE('',(#218),#219,.T.);
#95=PRESENTATION_STYLE_ASSIGNMENT((#220));
#96=ADVANCED_FACE('',(#221),#222,.T.);
#97=PRESENTATION_STYLE_ASSIGNMENT((#223));
#98=ADVANCED_FACE('',(#224),#225,.F.);
#99=PRESENTATION_STYLE_ASSIGNMENT((#226));
#100=ADVANCED_FACE('',(#227),#228,.T.);
#101=PRESENTATION_STYLE_ASSIGNMENT((#229));
#102=ADVANCED_FACE('',(#230),#231,.F.);
#103=PRESENTATION_STYLE_ASSIGNMENT((#232));
#104=ADVANCED_FACE('',(#233),#234,.F.);
#105=PRESENTATION_STYLE_ASSIGNMENT((#235));
#106=ADVANCED_FACE('',(#236),#237,.F.);
#107=PRESENTATION_STYLE_ASSIGNMENT((#238));
#108=ADVANCED_FACE('',(#239),#240,.F.);
#109=PRESENTATION_STYLE_ASSIGNMENT((#241));
#110=ADVANCED_FACE('',(#242,#243),#244,.T.);
#111=PRESENTATION_STYLE_ASSIGNMENT((#245));
#112=ADVANCED_FACE('',(#246),#247,.T.);
#113=PRESENTATION_STYLE_ASSIGNMENT((#248));
#114=ADVANCED_FACE('',(#249),#250,.T.);
#115=PRESENTATION_STYLE_ASSIGNMENT((#251));
#116=ADVANCED_FACE('',(#252),#253,.F.);
#117=PRESENTATION_STYLE_ASSIGNMENT((#254));
#118=ADVANCED_FACE('',(#255),#256,.T.);
#119=PRESENTATION_STYLE_ASSIGNMENT((#257));
#120=ADVANCED_FACE('',(#258),#259,.T.);
#121=PRESENTATION_STYLE_ASSIGNMENT((#260));
#122=ADVANCED_FACE('',(#261),#262,.T.);
#123=PRESENTATION_STYLE_ASSIGNMENT((#263));
#124=ADVANCED_FACE('',(#264),#265,.T.);
#125=PRESENTATION_STYLE_ASSIGNMENT((#266));
#126=ADVANCED_FACE('',(#267),#268,.F.);
#127=PRESENTATION_STYLE_ASSIGNMENT((#269));
#128=ADVANCED_FACE('',(#270),#271,.F.);
#129=PRESENTATION_STYLE_ASSIGNMENT((#272));
#130=ADVANCED_FACE('',(#273),#274,.F.);
#131=PRESENTATION_STYLE_ASSIGNMENT((#275));
#132=ADVANCED_FACE('',(#276),#277,.F.);
#133=PRESENTATION_STYLE_ASSIGNMENT((#278));
#134=ADVANCED_FACE('',(#279),#280,.T.);
#135=PRESENTATION_STYLE_ASSIGNMENT((#281));
#136=ADVANCED_FACE('',(#282),#283,.T.);
#137=PRESENTATION_STYLE_ASSIGNMENT((#284));
#138=ADVANCED_FACE('',(#285),#286,.F.);
#139=PRESENTATION_STYLE_ASSIGNMENT((#287));
#140=ADVANCED_FACE('',(#288),#289,.T.);
#141=PRESENTATION_STYLE_ASSIGNMENT((#290));
#142=ADVANCED_FACE('',(#291),#292,.T.);
#143=PRESENTATION_STYLE_ASSIGNMENT((#293));
#144=ADVANCED_FACE('',(#294),#295,.F.);
#145=PRESENTATION_STYLE_ASSIGNMENT((#296));
#146=ADVANCED_FACE('',(#297),#298,.F.);
#147=PRESENTATION_STYLE_ASSIGNMENT((#299));
#148=ADVANCED_FACE('',(#300,#301),#302,.T.);
#149=PRESENTATION_STYLE_ASSIGNMENT((#303));
#150=ADVANCED_FACE('',(#304),#305,.T.);
#151=PRESENTATION_STYLE_ASSIGNMENT((#306));
#152=ADVANCED_FACE('',(#307),#308,.T.);
#153=PRESENTATION_STYLE_ASSIGNMENT((#309));
#154=ADVANCED_FACE('',(#310),#311,.F.);
#155=PRESENTATION_STYLE_ASSIGNMENT((#312));
#156=ADVANCED_FACE('',(#313),#314,.T.);
#157=PRESENTATION_STYLE_ASSIGNMENT((#315));
#158=ADVANCED_FACE('',(#316),#317,.T.);
#159=PRESENTATION_STYLE_ASSIGNMENT((#318));
#160=ADVANCED_FACE('',(#319,#320),#321,.T.);
#161=PRESENTATION_STYLE_ASSIGNMENT((#322));
#162=MANIFOLD_SOLID_BREP('item_0068216_Seilumlenkung D42/D6-12_1',#323);
#163=PRESENTATION_STYLE_ASSIGNMENT((#324));
#164=MANIFOLD_SOLID_BREP('item_0068216_Seilumlenkung D42/D6-12_1',#325);
#165=PRESENTATION_STYLE_ASSIGNMENT((#326));
#166=ADVANCED_FACE('',(#327),#328,.T.);
#167=PRESENTATION_STYLE_ASSIGNMENT((#329));
#168=ADVANCED_FACE('',(#330),#331,.F.);
#169=PRESENTATION_STYLE_ASSIGNMENT((#332));
#170=ADVANCED_FACE('',(#333),#334,.F.);
#171=PRESENTATION_STYLE_ASSIGNMENT((#335));
#172=ADVANCED_FACE('',(#336),#337,.T.);
#173=PRESENTATION_STYLE_ASSIGNMENT((#338));
#174=ADVANCED_FACE('',(#339,#340),#341,.T.);
#175=PRESENTATION_STYLE_ASSIGNMENT((#342));
#176=ADVANCED_FACE('',(#343,#344),#345,.T.);
#177=PRESENTATION_STYLE_ASSIGNMENT((#346));
#178=MANIFOLD_SOLID_BREP('item_0068216_Seilumlenkung D42/D6-12_2',#347);
#179=PRODUCT('item_0068216_Seilumlenkung D42/D6-12_1','item_0068216_Seilumlenkung D42/D6-12_1','PART-item_0068216_Seilumlenkung D42/D6-12_1-DESC',(#348));
#180=PRODUCT_DEFINITION('','NONE',#349,#2);
#181=AXIS2_PLACEMENT_3D('',#350,#351,#352);
#182=PRODUCT('item_0068216_Seilumlenkung D42/D6-12_2','item_0068216_Seilumlenkung D42/D6-12_2','PART-item_0068216_Seilumlenkung D42/D6-12_2-DESC',(#353));
#183=PRODUCT_DEFINITION('','NONE',#354,#6);
#184=AXIS2_PLACEMENT_3D('',#355,#356,#357);
#187=LENGTH_MEASURE_WITH_UNIT(LENGTH_MEASURE(1.0),#358);
#190=DIMENSIONAL_EXPONENTS(1.0,0.0,0.0,0.0,0.0,0.0,0.0);
#192=DIMENSIONAL_EXPONENTS(0.0,0.0,0.0,0.0,0.0,0.0,0.0);
#198=SURFACE_STYLE_USAGE(.BOTH.,#359);
#199=FACE_OUTER_BOUND('',#360,.T.);
#200=PLANE('',#361);
#201=SURFACE_STYLE_USAGE(.BOTH.,#362);
#202=FACE_OUTER_BOUND('',#363,.T.);
#203=PLANE('',#364);
#204=SURFACE_STYLE_USAGE(.BOTH.,#365);
#205=FACE_BOUND('',#366,.T.);
#206=FACE_OUTER_BOUND('',#367,.T.);
#207=PLANE('',#368);
#208=SURFACE_STYLE_USAGE(.BOTH.,#369);
#209=FACE_OUTER_BOUND('',#370,.T.);
#210=PLANE('',#371);
#211=SURFACE_STYLE_USAGE(.BOTH.,#372);
#212=FACE_OUTER_BOUND('',#373,.T.);
#213=CYLINDRICAL_SURFACE('',#374,27.4999999984092);
#214=SURFACE_STYLE_USAGE(.BOTH.,#375);
#215=FACE_OUTER_BOUND('',#376,.T.);
#216=PLANE('',#377);
#217=SURFACE_STYLE_USAGE(.BOTH.,#378);
#218=FACE_OUTER_BOUND('',#379,.T.);
#219=PLANE('',#380);
#220=SURFACE_STYLE_USAGE(.BOTH.,#381);
#221=FACE_OUTER_BOUND('',#382,.T.);
#222=PLANE('',#383);
#223=SURFACE_STYLE_USAGE(.BOTH.,#384);
#224=FACE_OUTER_BOUND('',#385,.T.);
#225=CYLINDRICAL_SURFACE('',#386,25.5);
#226=SURFACE_STYLE_USAGE(.BOTH.,#387);
#227=FACE_OUTER_BOUND('',#388,.T.);
#228=CYLINDRICAL_SURFACE('',#389,24.1053902633187);
#229=SURFACE_STYLE_USAGE(.BOTH.,#390);
#230=FACE_OUTER_BOUND('',#391,.T.);
#231=CYLINDRICAL_SURFACE('',#392,3.25);
#232=SURFACE_STYLE_USAGE(.BOTH.,#393);
#233=FACE_OUTER_BOUND('',#394,.T.);
#234=PLANE('',#395);
#235=SURFACE_STYLE_USAGE(.BOTH.,#396);
#236=FACE_OUTER_BOUND('',#397,.T.);
#237=CYLINDRICAL_SURFACE('',#398,3.25);
#238=SURFACE_STYLE_USAGE(.BOTH.,#399);
#239=FACE_OUTER_BOUND('',#400,.T.);
#240=PLANE('',#401);
#241=SURFACE_STYLE_USAGE(.BOTH.,#402);
#242=FACE_OUTER_BOUND('',#403,.T.);
#243=FACE_BOUND('',#404,.T.);
#244=PLANE('',#405);
#245=SURFACE_STYLE_USAGE(.BOTH.,#406);
#246=FACE_OUTER_BOUND('',#407,.T.);
#247=CYLINDRICAL_SURFACE('',#408,6.0);
#248=SURFACE_STYLE_USAGE(.BOTH.,#409);
#249=FACE_OUTER_BOUND('',#410,.T.);
#250=PLANE('',#411);
#251=SURFACE_STYLE_USAGE(.BOTH.,#412);
#252=FACE_OUTER_BOUND('',#413,.T.);
#253=CYLINDRICAL_SURFACE('',#414,25.4999999892584);
#254=SURFACE_STYLE_USAGE(.BOTH.,#415);
#255=FACE_OUTER_BOUND('',#416,.T.);
#256=PLANE('',#417);
#257=SURFACE_STYLE_USAGE(.BOTH.,#418);
#258=FACE_OUTER_BOUND('',#419,.T.);
#259=PLANE('',#420);
#260=SURFACE_STYLE_USAGE(.BOTH.,#421);
#261=FACE_OUTER_BOUND('',#422,.T.);
#262=CYLINDRICAL_SURFACE('',#423,24.1045627846758);
#263=SURFACE_STYLE_USAGE(.BOTH.,#424);
#264=FACE_OUTER_BOUND('',#425,.T.);
#265=PLANE('',#426);
#266=SURFACE_STYLE_USAGE(.BOTH.,#427);
#267=FACE_OUTER_BOUND('',#428,.T.);
#268=CYLINDRICAL_SURFACE('',#429,25.499999983251);
#269=SURFACE_STYLE_USAGE(.BOTH.,#430);
#270=FACE_OUTER_BOUND('',#431,.T.);
#271=PLANE('',#432);
#272=SURFACE_STYLE_USAGE(.BOTH.,#433);
#273=FACE_OUTER_BOUND('',#434,.T.);
#274=TOROIDAL_SURFACE('',#435,22.5626248691518,1.59999999995181);
#275=SURFACE_STYLE_USAGE(.BOTH.,#436);
#276=FACE_OUTER_BOUND('',#437,.T.);
#277=TOROIDAL_SURFACE('',#438,22.5626248691518,1.59999999995181);
#278=SURFACE_STYLE_USAGE(.BOTH.,#439);
#279=FACE_OUTER_BOUND('',#440,.T.);
#280=CYLINDRICAL_SURFACE('',#441,24.9);
#281=SURFACE_STYLE_USAGE(.BOTH.,#442);
#282=FACE_OUTER_BOUND('',#443,.T.);
#283=CONICAL_SURFACE('',#444,23.4251656887,1.17809724509249);
#284=SURFACE_STYLE_USAGE(.BOTH.,#445);
#285=FACE_OUTER_BOUND('',#446,.T.);
#286=TOROIDAL_SURFACE('',#447,22.5626248691518,1.59999999995181);
#287=SURFACE_STYLE_USAGE(.BOTH.,#448);
#288=FACE_OUTER_BOUND('',#449,.T.);
#289=CONICAL_SURFACE('',#450,23.4251656888,1.17809724512143);
#290=SURFACE_STYLE_USAGE(.BOTH.,#451);
#291=FACE_OUTER_BOUND('',#452,.T.);
#292=CYLINDRICAL_SURFACE('',#453,24.9000000001);
#293=SURFACE_STYLE_USAGE(.BOTH.,#454);
#294=FACE_OUTER_BOUND('',#455,.T.);
#295=CYLINDRICAL_SURFACE('',#456,4.0);
#296=SURFACE_STYLE_USAGE(.BOTH.,#457);
#297=FACE_OUTER_BOUND('',#458,.T.);
#298=CYLINDRICAL_SURFACE('',#459,4.0);
#299=SURFACE_STYLE_USAGE(.BOTH.,#460);
#300=FACE_BOUND('',#461,.T.);
#301=FACE_OUTER_BOUND('',#462,.T.);
#302=PLANE('',#463);
#303=SURFACE_STYLE_USAGE(.BOTH.,#464);
#304=FACE_OUTER_BOUND('',#465,.T.);
#305=CYLINDRICAL_SURFACE('',#466,24.9000000001);
#306=SURFACE_STYLE_USAGE(.BOTH.,#467);
#307=FACE_OUTER_BOUND('',#468,.T.);
#308=CONICAL_SURFACE('',#469,23.4251656888,1.17809724512143);
#309=SURFACE_STYLE_USAGE(.BOTH.,#470);
#310=FACE_OUTER_BOUND('',#471,.T.);
#311=TOROIDAL_SURFACE('',#472,22.5626248691518,1.59999999995181);
#312=SURFACE_STYLE_USAGE(.BOTH.,#473);
#313=FACE_OUTER_BOUND('',#474,.T.);
#314=CONICAL_SURFACE('',#475,23.4251656887,1.17809724509249);
#315=SURFACE_STYLE_USAGE(.BOTH.,#476);
#316=FACE_OUTER_BOUND('',#477,.T.);
#317=CYLINDRICAL_SURFACE('',#478,24.9);
#318=SURFACE_STYLE_USAGE(.BOTH.,#479);
#319=FACE_BOUND('',#480,.T.);
#320=FACE_OUTER_BOUND('',#481,.T.);
#321=PLANE('',#482);
#322=SURFACE_STYLE_USAGE(.BOTH.,#483);
#323=CLOSED_SHELL('',(#82,#84,#86,#88,#90,#92,#94,#96,#98,#100,#102,#104,#106,#108,#110,#112,#114,#116,#118,#120,#122,#124,#126,#128));
#324=SURFACE_STYLE_USAGE(.BOTH.,#484);
#325=CLOSED_SHELL('',(#130,#132,#134,#136,#138,#140,#142,#144,#146,#148,#150,#152,#154,#156,#158,#160));
#326=SURFACE_STYLE_USAGE(.BOTH.,#485);
#327=FACE_OUTER_BOUND('',#486,.T.);
#328=CYLINDRICAL_SURFACE('',#487,9.0);
#329=SURFACE_STYLE_USAGE(.BOTH.,#488);
#330=FACE_OUTER_BOUND('',#489,.T.);
#331=CYLINDRICAL_SURFACE('',#490,3.25);
#332=SURFACE_STYLE_USAGE(.BOTH.,#491);
#333=FACE_OUTER_BOUND('',#492,.T.);
#334=CYLINDRICAL_SURFACE('',#493,3.25);
#335=SURFACE_STYLE_USAGE(.BOTH.,#494);
#336=FACE_OUTER_BOUND('',#495,.T.);
#337=CYLINDRICAL_SURFACE('',#496,9.0);
#338=SURFACE_STYLE_USAGE(.BOTH.,#497);
#339=FACE_BOUND('',#498,.T.);
#340=FACE_OUTER_BOUND('',#499,.T.);
#341=PLANE('',#500);
#342=SURFACE_STYLE_USAGE(.BOTH.,#501);
#343=FACE_BOUND('',#502,.T.);
#344=FACE_OUTER_BOUND('',#503,.T.);
#345=PLANE('',#504);
#346=SURFACE_STYLE_USAGE(.BOTH.,#505);
#347=CLOSED_SHELL('',(#166,#168,#170,#172,#174,#176));
#348=PRODUCT_CONTEXT('',#63,'mechanical');
#349=PRODUCT_DEFINITION_FORMATION_WITH_SPECIFIED_SOURCE(' ','NONE',#179,.NOT_KNOWN.);
#350=CARTESIAN_POINT('',(0.0,0.0,0.0));
#351=DIRECTION('',(0.0,0.0,1.0));
#352=DIRECTION('',(1.0,0.0,0.0));
#353=PRODUCT_CONTEXT('',#68,'mechanical');
#354=PRODUCT_DEFINITION_FORMATION_WITH_SPECIFIED_SOURCE(' ','NONE',#182,.NOT_KNOWN.);
#355=CARTESIAN_POINT('',(0.0,0.0,0.0));
#356=DIRECTION('',(0.0,0.0,1.0));
#357=DIRECTION('',(1.0,0.0,0.0));
#358= (NAMED_UNIT(#190)LENGTH_UNIT()SI_UNIT(.MILLI.,.METRE.));
#359=SURFACE_SIDE_STYLE('',(#507));
#360=EDGE_LOOP('',(#508,#509,#510,#511));
#361=AXIS2_PLACEMENT_3D('',#512,#513,#514);
#362=SURFACE_SIDE_STYLE('',(#515));
#363=EDGE_LOOP('',(#516,#517,#518,#519));
#364=AXIS2_PLACEMENT_3D('',#520,#521,#522);
#365=SURFACE_SIDE_STYLE('',(#523));
#366=EDGE_LOOP('',(#524,#525,#526,#527));
#367=EDGE_LOOP('',(#528,#529,#530,#531,#532,#533,#534,#535,#536,#537));
#368=AXIS2_PLACEMENT_3D('',#538,#539,#540);
#369=SURFACE_SIDE_STYLE('',(#541));
#370=EDGE_LOOP('',(#542,#543,#544,#545));
#371=AXIS2_PLACEMENT_3D('',#546,#547,#548);
#372=SURFACE_SIDE_STYLE('',(#549));
#373=EDGE_LOOP('',(#550,#551,#552,#553,#554,#555,#556,#557));
#374=AXIS2_PLACEMENT_3D('',#558,#559,#560);
#375=SURFACE_SIDE_STYLE('',(#561));
#376=EDGE_LOOP('',(#562,#563,#564,#565,#566));
#377=AXIS2_PLACEMENT_3D('',#567,#568,#569);
#378=SURFACE_SIDE_STYLE('',(#570));
#379=EDGE_LOOP('',(#571,#572,#573,#574,#575,#576));
#380=AXIS2_PLACEMENT_3D('',#577,#578,#579);
#381=SURFACE_SIDE_STYLE('',(#580));
#382=EDGE_LOOP('',(#581,#582,#583,#584));
#383=AXIS2_PLACEMENT_3D('',#585,#586,#587);
#384=SURFACE_SIDE_STYLE('',(#588));
#385=EDGE_LOOP('',(#589,#590,#591,#592,#593,#594,#595));
#386=AXIS2_PLACEMENT_3D('',#596,#597,#598);
#387=SURFACE_SIDE_STYLE('',(#599));
#388=EDGE_LOOP('',(#600,#601,#602,#603));
#389=AXIS2_PLACEMENT_3D('',#604,#605,#606);
#390=SURFACE_SIDE_STYLE('',(#607));
#391=EDGE_LOOP('',(#608,#609,#610,#611));
#392=AXIS2_PLACEMENT_3D('',#612,#613,#614);
#393=SURFACE_SIDE_STYLE('',(#615));
#394=EDGE_LOOP('',(#616,#617,#618,#619));
#395=AXIS2_PLACEMENT_3D('',#620,#621,#622);
#396=SURFACE_SIDE_STYLE('',(#623));
#397=EDGE_LOOP('',(#624,#625,#626,#627));
#398=AXIS2_PLACEMENT_3D('',#628,#629,#630);
#399=SURFACE_SIDE_STYLE('',(#631));
#400=EDGE_LOOP('',(#632,#633,#634,#635));
#401=AXIS2_PLACEMENT_3D('',#636,#637,#638);
#402=SURFACE_SIDE_STYLE('',(#639));
#403=EDGE_LOOP('',(#640,#641,#642,#643,#644,#645,#646,#647,#648,#649));
#404=EDGE_LOOP('',(#650,#651,#652,#653));
#405=AXIS2_PLACEMENT_3D('',#654,#655,#656);
#406=SURFACE_SIDE_STYLE('',(#657));
#407=EDGE_LOOP('',(#658,#659,#660,#661));
#408=AXIS2_PLACEMENT_3D('',#662,#663,#664);
#409=SURFACE_SIDE_STYLE('',(#665));
#410=EDGE_LOOP('',(#666,#667,#668,#669));
#411=AXIS2_PLACEMENT_3D('',#670,#671,#672);
#412=SURFACE_SIDE_STYLE('',(#673));
#413=EDGE_LOOP('',(#674,#675,#676,#677));
#414=AXIS2_PLACEMENT_3D('',#678,#679,#680);
#415=SURFACE_SIDE_STYLE('',(#681));
#416=EDGE_LOOP('',(#682,#683,#684,#685));
#417=AXIS2_PLACEMENT_3D('',#686,#687,#688);
#418=SURFACE_SIDE_STYLE('',(#689));
#419=EDGE_LOOP('',(#690,#691,#692,#693));
#420=AXIS2_PLACEMENT_3D('',#694,#695,#696);
#421=SURFACE_SIDE_STYLE('',(#697));
#422=EDGE_LOOP('',(#698,#699,#700,#701));
#423=AXIS2_PLACEMENT_3D('',#702,#703,#704);
#424=SURFACE_SIDE_STYLE('',(#705));
#425=EDGE_LOOP('',(#706,#707,#708,#709,#710,#711));
#426=AXIS2_PLACEMENT_3D('',#712,#713,#714);
#427=SURFACE_SIDE_STYLE('',(#715));
#428=EDGE_LOOP('',(#716,#717,#718,#719));
#429=AXIS2_PLACEMENT_3D('',#720,#721,#722);
#430=SURFACE_SIDE_STYLE('',(#723));
#431=EDGE_LOOP('',(#724,#725,#726,#727,#728,#729));
#432=AXIS2_PLACEMENT_3D('',#730,#731,#732);
#433=SURFACE_SIDE_STYLE('',(#733));
#434=EDGE_LOOP('',(#734,#735,#736,#737));
#435=AXIS2_PLACEMENT_3D('',#738,#739,#740);
#436=SURFACE_SIDE_STYLE('',(#741));
#437=EDGE_LOOP('',(#742,#743,#744,#745));
#438=AXIS2_PLACEMENT_3D('',#746,#747,#748);
#439=SURFACE_SIDE_STYLE('',(#749));
#440=EDGE_LOOP('',(#750,#751,#752,#753));
#441=AXIS2_PLACEMENT_3D('',#754,#755,#756);
#442=SURFACE_SIDE_STYLE('',(#757));
#443=EDGE_LOOP('',(#758,#759,#760,#761));
#444=AXIS2_PLACEMENT_3D('',#762,#763,#764);
#445=SURFACE_SIDE_STYLE('',(#765));
#446=EDGE_LOOP('',(#766,#767,#768,#769));
#447=AXIS2_PLACEMENT_3D('',#770,#771,#772);
#448=SURFACE_SIDE_STYLE('',(#773));
#449=EDGE_LOOP('',(#774,#775,#776,#777));
#450=AXIS2_PLACEMENT_3D('',#778,#779,#780);
#451=SURFACE_SIDE_STYLE('',(#781));
#452=EDGE_LOOP('',(#782,#783,#784,#785));
#453=AXIS2_PLACEMENT_3D('',#786,#787,#788);
#454=SURFACE_SIDE_STYLE('',(#789));
#455=EDGE_LOOP('',(#790,#791,#792,#793));
#456=AXIS2_PLACEMENT_3D('',#794,#795,#796);
#457=SURFACE_SIDE_STYLE('',(#797));
#458=EDGE_LOOP('',(#798,#799,#800,#801));
#459=AXIS2_PLACEMENT_3D('',#802,#803,#804);
#460=SURFACE_SIDE_STYLE('',(#805));
#461=EDGE_LOOP('',(#806,#807));
#462=EDGE_LOOP('',(#808,#809));
#463=AXIS2_PLACEMENT_3D('',#810,#811,#812);
#464=SURFACE_SIDE_STYLE('',(#813));
#465=EDGE_LOOP('',(#814,#815,#816,#817));
#466=AXIS2_PLACEMENT_3D('',#818,#819,#820);
#467=SURFACE_SIDE_STYLE('',(#821));
#468=EDGE_LOOP('',(#822,#823,#824,#825));
#469=AXIS2_PLACEMENT_3D('',#826,#827,#828);
#470=SURFACE_SIDE_STYLE('',(#829));
#471=EDGE_LOOP('',(#830,#831,#832,#833));
#472=AXIS2_PLACEMENT_3D('',#834,#835,#836);
#473=SURFACE_SIDE_STYLE('',(#837));
#474=EDGE_LOOP('',(#838,#839,#840,#841));
#475=AXIS2_PLACEMENT_3D('',#842,#843,#844);
#476=SURFACE_SIDE_STYLE('',(#845));
#477=EDGE_LOOP('',(#846,#847,#848,#849));
#478=AXIS2_PLACEMENT_3D('',#850,#851,#852);
#479=SURFACE_SIDE_STYLE('',(#853));
#480=EDGE_LOOP('',(#854,#855));
#481=EDGE_LOOP('',(#856,#857));
#482=AXIS2_PLACEMENT_3D('',#858,#859,#860);
#483=SURFACE_SIDE_STYLE('',(#861));
#484=SURFACE_SIDE_STYLE('',(#862));
#485=SURFACE_SIDE_STYLE('',(#863));
#486=EDGE_LOOP('',(#864,#865,#866,#867));
#487=AXIS2_PLACEMENT_3D('',#868,#869,#870);
#488=SURFACE_SIDE_STYLE('',(#871));
#489=EDGE_LOOP('',(#872,#873,#874,#875));
#490=AXIS2_PLACEMENT_3D('',#876,#877,#878);
#491=SURFACE_SIDE_STYLE('',(#879));
#492=EDGE_LOOP('',(#880,#881,#882,#883));
#493=AXIS2_PLACEMENT_3D('',#884,#885,#886);
#494=SURFACE_SIDE_STYLE('',(#887));
#495=EDGE_LOOP('',(#888,#889,#890,#891));
#496=AXIS2_PLACEMENT_3D('',#892,#893,#894);
#497=SURFACE_SIDE_STYLE('',(#895));
#498=EDGE_LOOP('',(#896,#897));
#499=EDGE_LOOP('',(#898,#899));
#500=AXIS2_PLACEMENT_3D('',#900,#901,#902);
#501=SURFACE_SIDE_STYLE('',(#903));
#502=EDGE_LOOP('',(#904,#905));
#503=EDGE_LOOP('',(#906,#907));
#504=AXIS2_PLACEMENT_3D('',#908,#909,#910);
#505=SURFACE_SIDE_STYLE('',(#911));
#507=SURFACE_STYLE_FILL_AREA(#912);
#508=ORIENTED_EDGE('',*,*,#913,.F.);
#509=ORIENTED_EDGE('',*,*,#914,.F.);
#510=ORIENTED_EDGE('',*,*,#915,.F.);
#511=ORIENTED_EDGE('',*,*,#916,.F.);
#512=CARTESIAN_POINT('',(3.5,-7.0,29.02));
#513=DIRECTION('',(1.0,0.0,0.0));
#514=DIRECTION('',(0.0,1.0,0.0));
#515=SURFACE_STYLE_FILL_AREA(#917);
#516=ORIENTED_EDGE('',*,*,#918,.F.);
#517=ORIENTED_EDGE('',*,*,#919,.F.);
#518=ORIENTED_EDGE('',*,*,#920,.F.);
#519=ORIENTED_EDGE('',*,*,#921,.T.);
#520=CARTESIAN_POINT('',(8.5,-7.0,24.02));
#521=DIRECTION('',(0.0,0.0,1.0));
#522=DIRECTION('',(1.0,0.0,0.0));
#523=SURFACE_STYLE_FILL_AREA(#922);
#524=ORIENTED_EDGE('',*,*,#923,.T.);
#525=ORIENTED_EDGE('',*,*,#924,.T.);
#526=ORIENTED_EDGE('',*,*,#925,.T.);
#527=ORIENTED_EDGE('',*,*,#926,.T.);
#528=ORIENTED_EDGE('',*,*,#918,.T.);
#529=ORIENTED_EDGE('',*,*,#927,.F.);
#530=ORIENTED_EDGE('',*,*,#928,.F.);
#531=ORIENTED_EDGE('',*,*,#929,.T.);
#532=ORIENTED_EDGE('',*,*,#930,.T.);
#533=ORIENTED_EDGE('',*,*,#931,.F.);
#534=ORIENTED_EDGE('',*,*,#932,.F.);
#535=ORIENTED_EDGE('',*,*,#933,.F.);
#536=ORIENTED_EDGE('',*,*,#934,.F.);
#537=ORIENTED_EDGE('',*,*,#935,.F.);
#538=CARTESIAN_POINT('',(5.0,0.0,0.0));
#539=DIRECTION('',(1.0,0.0,0.0));
#540=DIRECTION('',(0.0,1.0,0.0));
#541=SURFACE_STYLE_FILL_AREA(#936);
#542=ORIENTED_EDGE('',*,*,#916,.T.);
#543=ORIENTED_EDGE('',*,*,#937,.F.);
#544=ORIENTED_EDGE('',*,*,#938,.T.);
#545=ORIENTED_EDGE('',*,*,#939,.T.);
#546=CARTESIAN_POINT('',(-3.5,-5.82615848395,25.8515695712));
#547=DIRECTION('',(0.0,-0.984807753010125,-0.173648177678742));
#548=DIRECTION('',(0.0,0.173648177678742,-0.984807753010125));
#549=SURFACE_STYLE_FILL_AREA(#940);
#550=ORIENTED_EDGE('',*,*,#915,.T.);
#551=ORIENTED_EDGE('',*,*,#941,.T.);
#552=ORIENTED_EDGE('',*,*,#942,.T.);
#553=ORIENTED_EDGE('',*,*,#943,.T.);
#554=ORIENTED_EDGE('',*,*,#944,.T.);
#555=ORIENTED_EDGE('',*,*,#945,.F.);
#556=ORIENTED_EDGE('',*,*,#946,.T.);
#557=ORIENTED_EDGE('',*,*,#937,.T.);
#558=CARTESIAN_POINT('',(-3.5,1.77635683940025E-15,1.59077373496075E-09));
#559=DIRECTION('',(1.0,0.0,-0.0));
#560=DIRECTION('',(0.0,0.21818181819444,0.975908138202243));
#561=SURFACE_STYLE_FILL_AREA(#947);
#562=ORIENTED_EDGE('',*,*,#948,.F.);
#563=ORIENTED_EDGE('',*,*,#949,.F.);
#564=ORIENTED_EDGE('',*,*,#950,.F.);
#565=ORIENTED_EDGE('',*,*,#944,.F.);
#566=ORIENTED_EDGE('',*,*,#951,.F.);
#567=CARTESIAN_POINT('',(3.5,7.0,29.02));
#568=DIRECTION('',(1.0,0.0,0.0));
#569=DIRECTION('',(0.0,1.0,0.0));
#570=SURFACE_STYLE_FILL_AREA(#952);
#571=ORIENTED_EDGE('',*,*,#953,.F.);
#572=ORIENTED_EDGE('',*,*,#951,.T.);
#573=ORIENTED_EDGE('',*,*,#943,.F.);
#574=ORIENTED_EDGE('',*,*,#954,.F.);
#575=ORIENTED_EDGE('',*,*,#955,.T.);
#576=ORIENTED_EDGE('',*,*,#929,.F.);
#577=CARTESIAN_POINT('',(8.5,2.0,29.02));
#578=DIRECTION('',(0.0,1.0,0.0));
#579=DIRECTION('',(-1.0,0.0,0.0));
#580=SURFACE_STYLE_FILL_AREA(#956);
#581=ORIENTED_EDGE('',*,*,#930,.F.);
#582=ORIENTED_EDGE('',*,*,#955,.F.);
#583=ORIENTED_EDGE('',*,*,#957,.F.);
#584=ORIENTED_EDGE('',*,*,#958,.F.);
#585=CARTESIAN_POINT('',(8.5,7.0,24.02));
#586=DIRECTION('',(0.0,0.0,1.0));
#587=DIRECTION('',(1.0,0.0,0.0));
#588=SURFACE_STYLE_FILL_AREA(#959);
#589=ORIENTED_EDGE('',*,*,#948,.T.);
#590=ORIENTED_EDGE('',*,*,#953,.T.);
#591=ORIENTED_EDGE('',*,*,#928,.T.);
#592=ORIENTED_EDGE('',*,*,#960,.F.);
#593=ORIENTED_EDGE('',*,*,#961,.F.);
#594=ORIENTED_EDGE('',*,*,#962,.F.);
#595=ORIENTED_EDGE('',*,*,#963,.T.);
#596=CARTESIAN_POINT('',(0.75,0.0,0.0));
#597=DIRECTION('',(1.0,0.0,0.0));
#598=DIRECTION('',(0.0,1.0,0.0));
#599=SURFACE_STYLE_FILL_AREA(#964);
#600=ORIENTED_EDGE('',*,*,#958,.T.);
#601=ORIENTED_EDGE('',*,*,#965,.T.);
#602=ORIENTED_EDGE('',*,*,#966,.F.);
#603=ORIENTED_EDGE('',*,*,#931,.T.);
#604=CARTESIAN_POINT('',(-3.5,-0.00017220525528483,-0.00081012135728642));
#605=DIRECTION('',(1.0,0.0,-0.0));
#606=DIRECTION('',(0.0,0.248914128321987,0.968525558114862));
#607=SURFACE_STYLE_FILL_AREA(#967);
#608=ORIENTED_EDGE('',*,*,#968,.F.);
#609=ORIENTED_EDGE('',*,*,#969,.F.);
#610=ORIENTED_EDGE('',*,*,#925,.F.);
#611=ORIENTED_EDGE('',*,*,#970,.T.);
#612=CARTESIAN_POINT('',(5.0,4.44089209850063E-16,-4.0));
#613=DIRECTION('',(1.0,0.0,0.0));
#614=DIRECTION('',(0.0,-1.0,0.0));
#615=SURFACE_STYLE_FILL_AREA(#971);
#616=ORIENTED_EDGE('',*,*,#972,.F.);
#617=ORIENTED_EDGE('',*,*,#970,.F.);
#618=ORIENTED_EDGE('',*,*,#924,.F.);
#619=ORIENTED_EDGE('',*,*,#973,.T.);
#620=CARTESIAN_POINT('',(5.0,-3.25,-2.0));
#621=DIRECTION('',(0.0,-1.0,0.0));
#622=DIRECTION('',(0.0,0.0,-1.0));
#623=SURFACE_STYLE_FILL_AREA(#974);
#624=ORIENTED_EDGE('',*,*,#975,.F.);
#625=ORIENTED_EDGE('',*,*,#973,.F.);
#626=ORIENTED_EDGE('',*,*,#923,.F.);
#627=ORIENTED_EDGE('',*,*,#976,.T.);
#628=CARTESIAN_POINT('',(5.0,-4.44089209850063E-16,0.0));
#629=DIRECTION('',(1.0,0.0,0.0));
#630=DIRECTION('',(0.0,1.0,-2.04964250700029E-16));
#631=SURFACE_STYLE_FILL_AREA(#977);
#632=ORIENTED_EDGE('',*,*,#978,.F.);
#633=ORIENTED_EDGE('',*,*,#976,.F.);
#634=ORIENTED_EDGE('',*,*,#926,.F.);
#635=ORIENTED_EDGE('',*,*,#969,.T.);
#636=CARTESIAN_POINT('',(5.0,3.25,-3.0));
#637=DIRECTION('',(0.0,1.0,0.0));
#638=DIRECTION('',(0.0,0.0,1.0));
#639=SURFACE_STYLE_FILL_AREA(#979);
#640=ORIENTED_EDGE('',*,*,#920,.T.);
#641=ORIENTED_EDGE('',*,*,#980,.F.);
#642=ORIENTED_EDGE('',*,*,#981,.F.);
#643=ORIENTED_EDGE('',*,*,#982,.F.);
#644=ORIENTED_EDGE('',*,*,#983,.F.);
#645=ORIENTED_EDGE('',*,*,#965,.F.);
#646=ORIENTED_EDGE('',*,*,#957,.T.);
#647=ORIENTED_EDGE('',*,*,#954,.T.);
#648=ORIENTED_EDGE('',*,*,#942,.F.);
#649=ORIENTED_EDGE('',*,*,#984,.T.);
#650=ORIENTED_EDGE('',*,*,#975,.T.);
#651=ORIENTED_EDGE('',*,*,#978,.T.);
#652=ORIENTED_EDGE('',*,*,#968,.T.);
#653=ORIENTED_EDGE('',*,*,#972,.T.);
#654=CARTESIAN_POINT('',(7.0,-3.10117592259296E-05,11.7627201902676));
#655=DIRECTION('',(1.0,0.0,0.0));
#656=DIRECTION('',(0.0,1.0,0.0));
#657=SURFACE_STYLE_FILL_AREA(#985);
#658=ORIENTED_EDGE('',*,*,#933,.T.);
#659=ORIENTED_EDGE('',*,*,#986,.T.);
#660=ORIENTED_EDGE('',*,*,#982,.T.);
#661=ORIENTED_EDGE('',*,*,#987,.F.);
#662=CARTESIAN_POINT('',(-3.5,-8.88178419700125E-16,-4.0));
#663=DIRECTION('',(1.0,0.0,0.0));
#664=DIRECTION('',(0.0,-1.0,1.83697019872103E-16));
#665=SURFACE_STYLE_FILL_AREA(#988);
#666=ORIENTED_EDGE('',*,*,#932,.T.);
#667=ORIENTED_EDGE('',*,*,#966,.T.);
#668=ORIENTED_EDGE('',*,*,#983,.T.);
#669=ORIENTED_EDGE('',*,*,#986,.F.);
#670=CARTESIAN_POINT('',(-3.5,6.0,9.6729382185));
#671=DIRECTION('',(0.0,1.0,0.0));
#672=DIRECTION('',(0.0,0.0,1.0));
#673=SURFACE_STYLE_FILL_AREA(#989);
#674=ORIENTED_EDGE('',*,*,#949,.T.);
#675=ORIENTED_EDGE('',*,*,#963,.F.);
#676=ORIENTED_EDGE('',*,*,#990,.F.);
#677=ORIENTED_EDGE('',*,*,#991,.T.);
#678=CARTESIAN_POINT('',(-3.5,1.9132277984113E-09,1.0523105942184E-08));
#679=DIRECTION('',(1.0,0.0,-0.0));
#680=DIRECTION('',(0.0,0.22165948895952,0.975124131049071));
#681=SURFACE_STYLE_FILL_AREA(#992);
#682=ORIENTED_EDGE('',*,*,#950,.T.);
#683=ORIENTED_EDGE('',*,*,#991,.F.);
#684=ORIENTED_EDGE('',*,*,#993,.T.);
#685=ORIENTED_EDGE('',*,*,#945,.T.);
#686=CARTESIAN_POINT('',(-3.5,5.826158484,25.8515695712));
#687=DIRECTION('',(0.0,0.984807753018666,-0.173648177630303));
#688=DIRECTION('',(0.0,0.173648177630303,0.984807753018666));
#689=SURFACE_STYLE_FILL_AREA(#994);
#690=ORIENTED_EDGE('',*,*,#934,.T.);
#691=ORIENTED_EDGE('',*,*,#987,.T.);
#692=ORIENTED_EDGE('',*,*,#981,.T.);
#693=ORIENTED_EDGE('',*,*,#995,.F.);
#694=CARTESIAN_POINT('',(-3.5,-6.0,9.67293821850001));
#695=DIRECTION('',(0.0,-1.0,0.0));
#696=DIRECTION('',(0.0,0.0,-1.0));
#697=SURFACE_STYLE_FILL_AREA(#996);
#698=ORIENTED_EDGE('',*,*,#919,.T.);
#699=ORIENTED_EDGE('',*,*,#935,.T.);
#700=ORIENTED_EDGE('',*,*,#995,.T.);
#701=ORIENTED_EDGE('',*,*,#980,.T.);
#702=CARTESIAN_POINT('',(-3.5,1.37725297832958E-09,-8.82766926224576E-09));
#703=DIRECTION('',(1.0,0.0,0.0));
#704=DIRECTION('',(0.0,-0.0829718431005406,0.99655189190152));
#705=SURFACE_STYLE_FILL_AREA(#997);
#706=ORIENTED_EDGE('',*,*,#927,.T.);
#707=ORIENTED_EDGE('',*,*,#921,.F.);
#708=ORIENTED_EDGE('',*,*,#984,.F.);
#709=ORIENTED_EDGE('',*,*,#941,.F.);
#710=ORIENTED_EDGE('',*,*,#914,.T.);
#711=ORIENTED_EDGE('',*,*,#960,.T.);
#712=CARTESIAN_POINT('',(-3.5,-2.0,24.7214476377));
#713=DIRECTION('',(0.0,-1.0,0.0));
#714=DIRECTION('',(0.0,0.0,-1.0));
#715=SURFACE_STYLE_FILL_AREA(#998);
#716=ORIENTED_EDGE('',*,*,#913,.T.);
#717=ORIENTED_EDGE('',*,*,#939,.F.);
#718=ORIENTED_EDGE('',*,*,#999,.F.);
#719=ORIENTED_EDGE('',*,*,#961,.T.);
#720=CARTESIAN_POINT('',(-3.5,-2.47238673978245E-09,1.65339066882098E-08));
#721=DIRECTION('',(1.0,0.0,0.0));
#722=DIRECTION('',(0.0,-0.0784313725035787,0.996919515210333));
#723=SURFACE_STYLE_FILL_AREA(#1000);
#724=ORIENTED_EDGE('',*,*,#962,.T.);
#725=ORIENTED_EDGE('',*,*,#999,.T.);
#726=ORIENTED_EDGE('',*,*,#938,.F.);
#727=ORIENTED_EDGE('',*,*,#946,.F.);
#728=ORIENTED_EDGE('',*,*,#993,.F.);
#729=ORIENTED_EDGE('',*,*,#990,.T.);
#730=CARTESIAN_POINT('',(-3.5,-3.10117592261516E-05,11.7627201902676));
#731=DIRECTION('',(1.0,0.0,0.0));
#732=DIRECTION('',(0.0,1.0,0.0));
#733=SURFACE_STYLE_FILL_AREA(#1001);
#734=ORIENTED_EDGE('',*,*,#1002,.F.);
#735=ORIENTED_EDGE('',*,*,#1003,.T.);
#736=ORIENTED_EDGE('',*,*,#1004,.F.);
#737=ORIENTED_EDGE('',*,*,#1005,.T.);
#738=CARTESIAN_POINT('',(2.07069916768887E-11,0.0,0.0));
#739=DIRECTION('',(1.0,0.0,0.0));
#740=DIRECTION('',(0.0,1.0,0.0));
#741=SURFACE_STYLE_FILL_AREA(#1006);
#742=ORIENTED_EDGE('',*,*,#1007,.F.);
#743=ORIENTED_EDGE('',*,*,#1005,.F.);
#744=ORIENTED_EDGE('',*,*,#1008,.F.);
#745=ORIENTED_EDGE('',*,*,#1003,.F.);
#746=CARTESIAN_POINT('',(2.07069916768887E-11,0.0,0.0));
#747=DIRECTION('',(1.0,0.0,0.0));
#748=DIRECTION('',(0.0,1.0,0.0));
#749=SURFACE_STYLE_FILL_AREA(#1009);
#750=ORIENTED_EDGE('',*,*,#1010,.F.);
#751=ORIENTED_EDGE('',*,*,#1011,.T.);
#752=ORIENTED_EDGE('',*,*,#1012,.F.);
#753=ORIENTED_EDGE('',*,*,#1013,.F.);
#754=CARTESIAN_POINT('',(3.1,0.0,0.0));
#755=DIRECTION('',(1.0,0.0,0.0));
#756=DIRECTION('',(0.0,1.0,0.0));
#757=SURFACE_STYLE_FILL_AREA(#1014);
#758=ORIENTED_EDGE('',*,*,#1015,.F.);
#759=ORIENTED_EDGE('',*,*,#1004,.T.);
#760=ORIENTED_EDGE('',*,*,#1016,.F.);
#761=ORIENTED_EDGE('',*,*,#1011,.F.);
#762=CARTESIAN_POINT('',(2.089103626,0.0,0.0));
#763=DIRECTION('',(1.0,-0.0,-0.0));
#764=DIRECTION('',(0.0,1.0,0.0));
#765=SURFACE_STYLE_FILL_AREA(#1017);
#766=ORIENTED_EDGE('',*,*,#1007,.T.);
#767=ORIENTED_EDGE('',*,*,#1018,.F.);
#768=ORIENTED_EDGE('',*,*,#1019,.T.);
#769=ORIENTED_EDGE('',*,*,#1020,.F.);
#770=CARTESIAN_POINT('',(2.07069916768887E-11,0.0,0.0));
#771=DIRECTION('',(1.0,0.0,0.0));
#772=DIRECTION('',(0.0,1.0,0.0));
#773=SURFACE_STYLE_FILL_AREA(#1021);
#774=ORIENTED_EDGE('',*,*,#1022,.F.);
#775=ORIENTED_EDGE('',*,*,#1023,.T.);
#776=ORIENTED_EDGE('',*,*,#1024,.F.);
#777=ORIENTED_EDGE('',*,*,#1025,.F.);
#778=CARTESIAN_POINT('',(-2.08910362595,0.0,0.0));
#779=DIRECTION('',(-1.0,-0.0,-0.0));
#780=DIRECTION('',(0.0,1.0,0.0));
#781=SURFACE_STYLE_FILL_AREA(#1026);
#782=ORIENTED_EDGE('',*,*,#1027,.F.);
#783=ORIENTED_EDGE('',*,*,#1028,.T.);
#784=ORIENTED_EDGE('',*,*,#1029,.F.);
#785=ORIENTED_EDGE('',*,*,#1023,.F.);
#786=CARTESIAN_POINT('',(-3.0999999999,0.0,0.0));
#787=DIRECTION('',(1.0,0.0,0.0));
#788=DIRECTION('',(0.0,1.0,0.0));
#789=SURFACE_STYLE_FILL_AREA(#1030);
#790=ORIENTED_EDGE('',*,*,#1031,.F.);
#791=ORIENTED_EDGE('',*,*,#1032,.F.);
#792=ORIENTED_EDGE('',*,*,#1033,.F.);
#793=ORIENTED_EDGE('',*,*,#1034,.F.);
#794=CARTESIAN_POINT('',(0.0,0.0,0.0));
#795=DIRECTION('',(1.0,0.0,0.0));
#796=DIRECTION('',(0.0,1.0,0.0));
#797=SURFACE_STYLE_FILL_AREA(#1035);
#798=ORIENTED_EDGE('',*,*,#1031,.T.);
#799=ORIENTED_EDGE('',*,*,#1036,.F.);
#800=ORIENTED_EDGE('',*,*,#1033,.T.);
#801=ORIENTED_EDGE('',*,*,#1037,.F.);
#802=CARTESIAN_POINT('',(0.0,0.0,0.0));
#803=DIRECTION('',(1.0,0.0,0.0));
#804=DIRECTION('',(0.0,1.0,0.0));
#805=SURFACE_STYLE_FILL_AREA(#1038);
#806=ORIENTED_EDGE('',*,*,#1036,.T.);
#807=ORIENTED_EDGE('',*,*,#1034,.T.);
#808=ORIENTED_EDGE('',*,*,#1028,.F.);
#809=ORIENTED_EDGE('',*,*,#1039,.F.);
#810=CARTESIAN_POINT('',(-3.4999999999,12.4500000001,0.0));
#811=DIRECTION('',(-1.0,0.0,0.0));
#812=DIRECTION('',(0.0,-1.0,0.0));
#813=SURFACE_STYLE_FILL_AREA(#1040);
#814=ORIENTED_EDGE('',*,*,#1027,.T.);
#815=ORIENTED_EDGE('',*,*,#1041,.F.);
#816=ORIENTED_EDGE('',*,*,#1029,.T.);
#817=ORIENTED_EDGE('',*,*,#1039,.T.);
#818=CARTESIAN_POINT('',(-3.0999999999,0.0,0.0));
#819=DIRECTION('',(1.0,0.0,0.0));
#820=DIRECTION('',(0.0,1.0,0.0));
#821=SURFACE_STYLE_FILL_AREA(#1042);
#822=ORIENTED_EDGE('',*,*,#1022,.T.);
#823=ORIENTED_EDGE('',*,*,#1019,.F.);
#824=ORIENTED_EDGE('',*,*,#1024,.T.);
#825=ORIENTED_EDGE('',*,*,#1041,.T.);
#826=CARTESIAN_POINT('',(-2.08910362595,0.0,0.0));
#827=DIRECTION('',(-1.0,-0.0,-0.0));
#828=DIRECTION('',(0.0,1.0,0.0));
#829=SURFACE_STYLE_FILL_AREA(#1043);
#830=ORIENTED_EDGE('',*,*,#1002,.T.);
#831=ORIENTED_EDGE('',*,*,#1020,.T.);
#832=ORIENTED_EDGE('',*,*,#1025,.T.);
#833=ORIENTED_EDGE('',*,*,#1018,.T.);
#834=CARTESIAN_POINT('',(2.07069916768887E-11,0.0,0.0));
#835=DIRECTION('',(1.0,0.0,0.0));
#836=DIRECTION('',(0.0,1.0,0.0));
#837=SURFACE_STYLE_FILL_AREA(#1044);
#838=ORIENTED_EDGE('',*,*,#1015,.T.);
#839=ORIENTED_EDGE('',*,*,#1045,.F.);
#840=ORIENTED_EDGE('',*,*,#1016,.T.);
#841=ORIENTED_EDGE('',*,*,#1008,.T.);
#842=CARTESIAN_POINT('',(2.089103626,0.0,0.0));
#843=DIRECTION('',(1.0,-0.0,-0.0));
#844=DIRECTION('',(0.0,1.0,0.0));
#845=SURFACE_STYLE_FILL_AREA(#1046);
#846=ORIENTED_EDGE('',*,*,#1010,.T.);
#847=ORIENTED_EDGE('',*,*,#1047,.F.);
#848=ORIENTED_EDGE('',*,*,#1012,.T.);
#849=ORIENTED_EDGE('',*,*,#1045,.T.);
#850=CARTESIAN_POINT('',(3.1,0.0,0.0));
#851=DIRECTION('',(1.0,0.0,0.0));
#852=DIRECTION('',(0.0,1.0,0.0));
#853=SURFACE_STYLE_FILL_AREA(#1048);
#854=ORIENTED_EDGE('',*,*,#1032,.T.);
#855=ORIENTED_EDGE('',*,*,#1037,.T.);
#856=ORIENTED_EDGE('',*,*,#1013,.T.);
#857=ORIENTED_EDGE('',*,*,#1047,.T.);
#858=CARTESIAN_POINT('',(3.5,12.45,0.0));
#859=DIRECTION('',(1.0,0.0,0.0));
#860=DIRECTION('',(0.0,1.0,0.0));
#861=SURFACE_STYLE_FILL_AREA(#1049);
#862=SURFACE_STYLE_FILL_AREA(#1050);
#863=SURFACE_STYLE_FILL_AREA(#1051);
#864=ORIENTED_EDGE('',*,*,#1052,.F.);
#865=ORIENTED_EDGE('',*,*,#1053,.F.);
#866=ORIENTED_EDGE('',*,*,#1054,.F.);
#867=ORIENTED_EDGE('',*,*,#1055,.F.);
#868=CARTESIAN_POINT('',(0.0,0.0,0.0));
#869=DIRECTION('',(1.0,0.0,0.0));
#870=DIRECTION('',(0.0,1.0,0.0));
#871=SURFACE_STYLE_FILL_AREA(#1056);
#872=ORIENTED_EDGE('',*,*,#1057,.F.);
#873=ORIENTED_EDGE('',*,*,#1058,.F.);
#874=ORIENTED_EDGE('',*,*,#1059,.F.);
#875=ORIENTED_EDGE('',*,*,#1060,.F.);
#876=CARTESIAN_POINT('',(0.0,0.0,0.0));
#877=DIRECTION('',(1.0,0.0,0.0));
#878=DIRECTION('',(0.0,1.0,0.0));
#879=SURFACE_STYLE_FILL_AREA(#1061);
#880=ORIENTED_EDGE('',*,*,#1057,.T.);
#881=ORIENTED_EDGE('',*,*,#1062,.F.);
#882=ORIENTED_EDGE('',*,*,#1059,.T.);
#883=ORIENTED_EDGE('',*,*,#1063,.F.);
#884=CARTESIAN_POINT('',(0.0,0.0,0.0));
#885=DIRECTION('',(1.0,0.0,0.0));
#886=DIRECTION('',(0.0,1.0,0.0));
#887=SURFACE_STYLE_FILL_AREA(#1064);
#888=ORIENTED_EDGE('',*,*,#1052,.T.);
#889=ORIENTED_EDGE('',*,*,#1065,.F.);
#890=ORIENTED_EDGE('',*,*,#1054,.T.);
#891=ORIENTED_EDGE('',*,*,#1066,.F.);
#892=CARTESIAN_POINT('',(0.0,0.0,0.0));
#893=DIRECTION('',(1.0,0.0,0.0));
#894=DIRECTION('',(0.0,1.0,0.0));
#895=SURFACE_STYLE_FILL_AREA(#1067);
#896=ORIENTED_EDGE('',*,*,#1060,.T.);
#897=ORIENTED_EDGE('',*,*,#1062,.T.);
#898=ORIENTED_EDGE('',*,*,#1066,.T.);
#899=ORIENTED_EDGE('',*,*,#1053,.T.);
#900=CARTESIAN_POINT('',(-5.0,0.0,0.0));
#901=DIRECTION('',(-1.0,0.0,0.0));
#902=DIRECTION('',(0.0,-1.0,0.0));
#903=SURFACE_STYLE_FILL_AREA(#1068);
#904=ORIENTED_EDGE('',*,*,#1063,.T.);
#905=ORIENTED_EDGE('',*,*,#1058,.T.);
#906=ORIENTED_EDGE('',*,*,#1055,.T.);
#907=ORIENTED_EDGE('',*,*,#1065,.T.);
#908=CARTESIAN_POINT('',(5.0,0.0,0.0));
#909=DIRECTION('',(1.0,0.0,0.0));
#910=DIRECTION('',(0.0,1.0,0.0));
#911=SURFACE_STYLE_FILL_AREA(#1069);
#912=FILL_AREA_STYLE('',(#1070));
#913=EDGE_CURVE('',#1071,#1072,#1073,.T.);
#914=EDGE_CURVE('',#1074,#1071,#1075,.T.);
#915=EDGE_CURVE('',#1076,#1074,#1077,.T.);
#916=EDGE_CURVE('',#1072,#1076,#1078,.T.);
#917=FILL_AREA_STYLE('',(#1079));
#918=EDGE_CURVE('',#1080,#1081,#1082,.T.);
#919=EDGE_CURVE('',#1083,#1080,#1084,.T.);
#920=EDGE_CURVE('',#1085,#1083,#1086,.T.);
#921=EDGE_CURVE('',#1085,#1081,#1087,.T.);
#922=FILL_AREA_STYLE('',(#1088));
#923=EDGE_CURVE('',#1089,#1090,#1091,.T.);
#924=EDGE_CURVE('',#1090,#1092,#1093,.T.);
#925=EDGE_CURVE('',#1092,#1094,#1095,.T.);
#926=EDGE_CURVE('',#1094,#1089,#1096,.T.);
#927=EDGE_CURVE('',#1097,#1081,#1098,.T.);
#928=EDGE_CURVE('',#1099,#1097,#1100,.T.);
#929=EDGE_CURVE('',#1099,#1101,#1102,.T.);
#930=EDGE_CURVE('',#1101,#1103,#1104,.T.);
#931=EDGE_CURVE('',#1105,#1103,#1106,.T.);
#932=EDGE_CURVE('',#1107,#1105,#1108,.T.);
#933=EDGE_CURVE('',#1109,#1107,#1110,.T.);
#934=EDGE_CURVE('',#1111,#1109,#1112,.T.);
#935=EDGE_CURVE('',#1080,#1111,#1113,.T.);
#936=FILL_AREA_STYLE('',(#1114));
#937=EDGE_CURVE('',#1115,#1076,#1116,.T.);
#938=EDGE_CURVE('',#1115,#1117,#1118,.T.);
#939=EDGE_CURVE('',#1117,#1072,#1119,.T.);
#940=FILL_AREA_STYLE('',(#1120));
#941=EDGE_CURVE('',#1074,#1121,#1122,.T.);
#942=EDGE_CURVE('',#1121,#1123,#1124,.T.);
#943=EDGE_CURVE('',#1123,#1125,#1126,.T.);
#944=EDGE_CURVE('',#1125,#1127,#1128,.T.);
#945=EDGE_CURVE('',#1129,#1127,#1130,.T.);
#946=EDGE_CURVE('',#1129,#1115,#1131,.T.);
#947=FILL_AREA_STYLE('',(#1132));
#948=EDGE_CURVE('',#1133,#1134,#1135,.T.);
#949=EDGE_CURVE('',#1136,#1133,#1137,.T.);
#950=EDGE_CURVE('',#1127,#1136,#1138,.T.);
#951=EDGE_CURVE('',#1134,#1125,#1139,.T.);
#952=FILL_AREA_STYLE('',(#1140));
#953=EDGE_CURVE('',#1134,#1099,#1141,.T.);
#954=EDGE_CURVE('',#1142,#1123,#1143,.T.);
#955=EDGE_CURVE('',#1142,#1101,#1144,.T.);
#956=FILL_AREA_STYLE('',(#1145));
#957=EDGE_CURVE('',#1146,#1142,#1147,.T.);
#958=EDGE_CURVE('',#1103,#1146,#1148,.T.);
#959=FILL_AREA_STYLE('',(#1149));
#960=EDGE_CURVE('',#1071,#1097,#1150,.T.);
#961=EDGE_CURVE('',#1151,#1071,#1152,.T.);
#962=EDGE_CURVE('',#1153,#1151,#1154,.T.);
#963=EDGE_CURVE('',#1153,#1133,#1155,.T.);
#964=FILL_AREA_STYLE('',(#1156));
#965=EDGE_CURVE('',#1146,#1157,#1158,.T.);
#966=EDGE_CURVE('',#1105,#1157,#1159,.T.);
#967=FILL_AREA_STYLE('',(#1160));
#968=EDGE_CURVE('',#1161,#1162,#1163,.T.);
#969=EDGE_CURVE('',#1094,#1161,#1164,.T.);
#970=EDGE_CURVE('',#1092,#1162,#1165,.T.);
#971=FILL_AREA_STYLE('',(#1166));
#972=EDGE_CURVE('',#1162,#1167,#1168,.T.);
#973=EDGE_CURVE('',#1090,#1167,#1169,.T.);
#974=FILL_AREA_STYLE('',(#1170));
#975=EDGE_CURVE('',#1167,#1171,#1172,.T.);
#976=EDGE_CURVE('',#1089,#1171,#1173,.T.);
#977=FILL_AREA_STYLE('',(#1174));
#978=EDGE_CURVE('',#1171,#1161,#1175,.T.);
#979=FILL_AREA_STYLE('',(#1176));
#980=EDGE_CURVE('',#1177,#1083,#1178,.T.);
#981=EDGE_CURVE('',#1179,#1177,#1180,.T.);
#982=EDGE_CURVE('',#1181,#1179,#1182,.T.);
#983=EDGE_CURVE('',#1157,#1181,#1183,.T.);
#984=EDGE_CURVE('',#1121,#1085,#1184,.T.);
#985=FILL_AREA_STYLE('',(#1185));
#986=EDGE_CURVE('',#1107,#1181,#1186,.T.);
#987=EDGE_CURVE('',#1109,#1179,#1187,.T.);
#988=FILL_AREA_STYLE('',(#1188));
#989=FILL_AREA_STYLE('',(#1189));
#990=EDGE_CURVE('',#1190,#1153,#1191,.T.);
#991=EDGE_CURVE('',#1190,#1136,#1192,.T.);
#992=FILL_AREA_STYLE('',(#1193));
#993=EDGE_CURVE('',#1190,#1129,#1194,.T.);
#994=FILL_AREA_STYLE('',(#1195));
#995=EDGE_CURVE('',#1111,#1177,#1196,.T.);
#996=FILL_AREA_STYLE('',(#1197));
#997=FILL_AREA_STYLE('',(#1198));
#998=FILL_AREA_STYLE('',(#1199));
#999=EDGE_CURVE('',#1151,#1117,#1200,.T.);
#1000=FILL_AREA_STYLE('',(#1201));
#1001=FILL_AREA_STYLE('',(#1202));
#1002=EDGE_CURVE('',#1203,#1204,#1205,.T.);
#1003=EDGE_CURVE('',#1203,#1206,#1207,.T.);
#1004=EDGE_CURVE('',#1208,#1206,#1209,.T.);
#1005=EDGE_CURVE('',#1208,#1204,#1210,.T.);
#1006=FILL_AREA_STYLE('',(#1211));
#1007=EDGE_CURVE('',#1204,#1203,#1212,.T.);
#1008=EDGE_CURVE('',#1206,#1208,#1213,.T.);
#1009=FILL_AREA_STYLE('',(#1214));
#1010=EDGE_CURVE('',#1215,#1216,#1217,.T.);
#1011=EDGE_CURVE('',#1215,#1218,#1219,.T.);
#1012=EDGE_CURVE('',#1220,#1218,#1221,.T.);
#1013=EDGE_CURVE('',#1216,#1220,#1222,.T.);
#1014=FILL_AREA_STYLE('',(#1223));
#1015=EDGE_CURVE('',#1208,#1215,#1224,.T.);
#1016=EDGE_CURVE('',#1218,#1206,#1225,.T.);
#1017=FILL_AREA_STYLE('',(#1226));
#1018=EDGE_CURVE('',#1227,#1203,#1228,.T.);
#1019=EDGE_CURVE('',#1227,#1229,#1230,.T.);
#1020=EDGE_CURVE('',#1204,#1229,#1231,.T.);
#1021=FILL_AREA_STYLE('',(#1232));
#1022=EDGE_CURVE('',#1233,#1229,#1234,.T.);
#1023=EDGE_CURVE('',#1233,#1235,#1236,.T.);
#1024=EDGE_CURVE('',#1227,#1235,#1237,.T.);
#1025=EDGE_CURVE('',#1229,#1227,#1238,.T.);
#1026=FILL_AREA_STYLE('',(#1239));
#1027=EDGE_CURVE('',#1240,#1233,#1241,.T.);
#1028=EDGE_CURVE('',#1240,#1242,#1243,.T.);
#1029=EDGE_CURVE('',#1235,#1242,#1244,.T.);
#1030=FILL_AREA_STYLE('',(#1245));
#1031=EDGE_CURVE('',#1246,#1247,#1248,.T.);
#1032=EDGE_CURVE('',#1249,#1246,#1250,.T.);
#1033=EDGE_CURVE('',#1251,#1249,#1252,.T.);
#1034=EDGE_CURVE('',#1247,#1251,#1253,.T.);
#1035=FILL_AREA_STYLE('',(#1254));
#1036=EDGE_CURVE('',#1251,#1247,#1255,.T.);
#1037=EDGE_CURVE('',#1246,#1249,#1256,.T.);
#1038=FILL_AREA_STYLE('',(#1257));
#1039=EDGE_CURVE('',#1242,#1240,#1258,.T.);
#1040=FILL_AREA_STYLE('',(#1259));
#1041=EDGE_CURVE('',#1235,#1233,#1260,.T.);
#1042=FILL_AREA_STYLE('',(#1261));
#1043=FILL_AREA_STYLE('',(#1262));
#1044=FILL_AREA_STYLE('',(#1263));
#1045=EDGE_CURVE('',#1218,#1215,#1264,.T.);
#1046=FILL_AREA_STYLE('',(#1265));
#1047=EDGE_CURVE('',#1220,#1216,#1266,.T.);
#1048=FILL_AREA_STYLE('',(#1267));
#1049=FILL_AREA_STYLE('',(#1268));
#1050=FILL_AREA_STYLE('',(#1269));
#1051=FILL_AREA_STYLE('',(#1270));
#1052=EDGE_CURVE('',#1271,#1272,#1273,.T.);
#1053=EDGE_CURVE('',#1274,#1271,#1275,.T.);
#1054=EDGE_CURVE('',#1276,#1274,#1277,.T.);
#1055=EDGE_CURVE('',#1272,#1276,#1278,.T.);
#1056=FILL_AREA_STYLE('',(#1279));
#1057=EDGE_CURVE('',#1280,#1281,#1282,.T.);
#1058=EDGE_CURVE('',#1283,#1280,#1284,.T.);
#1059=EDGE_CURVE('',#1285,#1283,#1286,.T.);
#1060=EDGE_CURVE('',#1281,#1285,#1287,.T.);
#1061=FILL_AREA_STYLE('',(#1288));
#1062=EDGE_CURVE('',#1285,#1281,#1289,.T.);
#1063=EDGE_CURVE('',#1280,#1283,#1290,.T.);
#1064=FILL_AREA_STYLE('',(#1291));
#1065=EDGE_CURVE('',#1276,#1272,#1292,.T.);
#1066=EDGE_CURVE('',#1271,#1274,#1293,.T.);
#1067=FILL_AREA_STYLE('',(#1294));
#1068=FILL_AREA_STYLE('',(#1295));
#1069=FILL_AREA_STYLE('',(#1296));
#1070=FILL_AREA_STYLE_COLOUR('',#1297);
#1071=VERTEX_POINT('',#1298);
#1072=VERTEX_POINT('',#1299);
#1073=CIRCLE('',#1300,25.499999983251);
#1074=VERTEX_POINT('',#1301);
#1075=LINE('',#1302,#1303);
#1076=VERTEX_POINT('',#1304);
#1077=CIRCLE('',#1305,27.4999999984092);
#1078=LINE('',#1306,#1307);
#1079=FILL_AREA_STYLE_COLOUR('',#1308);
#1080=VERTEX_POINT('',#1309);
#1081=VERTEX_POINT('',#1310);
#1082=LINE('',#1311,#1312);
#1083=VERTEX_POINT('',#1313);
#1084=LINE('',#1314,#1315);
#1085=VERTEX_POINT('',#1316);
#1086=LINE('',#1317,#1318);
#1087=LINE('',#1319,#1320);
#1088=FILL_AREA_STYLE_COLOUR('',#1321);
#1089=VERTEX_POINT('',#1322);
#1090=VERTEX_POINT('',#1323);
#1091=CIRCLE('',#1324,3.25);
#1092=VERTEX_POINT('',#1325);
#1093=LINE('',#1326,#1327);
#1094=VERTEX_POINT('',#1328);
#1095=CIRCLE('',#1329,3.25);
#1096=LINE('',#1330,#1331);
#1097=VERTEX_POINT('',#1332);
#1098=LINE('',#1333,#1334);
#1099=VERTEX_POINT('',#1335);
#1100=CIRCLE('',#1336,25.5);
#1101=VERTEX_POINT('',#1337);
#1102=LINE('',#1338,#1339);
#1103=VERTEX_POINT('',#1340);
#1104=LINE('',#1341,#1342);
#1105=VERTEX_POINT('',#1343);
#1106=CIRCLE('',#1344,24.1053902633187);
#1107=VERTEX_POINT('',#1345);
#1108=LINE('',#1346,#1347);
#1109=VERTEX_POINT('',#1348);
#1110=CIRCLE('',#1349,6.0);
#1111=VERTEX_POINT('',#1350);
#1112=LINE('',#1351,#1352);
#1113=CIRCLE('',#1353,24.1045627846758);
#1114=FILL_AREA_STYLE_COLOUR('',#1354);
#1115=VERTEX_POINT('',#1355);
#1116=LINE('',#1356,#1357);
#1117=VERTEX_POINT('',#1358);
#1118=LINE('',#1359,#1360);
#1119=LINE('',#1361,#1362);
#1120=FILL_AREA_STYLE_COLOUR('',#1363);
#1121=VERTEX_POINT('',#1364);
#1122=LINE('',#1365,#1366);
#1123=VERTEX_POINT('',#1367);
#1124=CIRCLE('',#1368,27.4999999984092);
#1125=VERTEX_POINT('',#1369);
#1126=LINE('',#1370,#1371);
#1127=VERTEX_POINT('',#1372);
#1128=CIRCLE('',#1373,27.4999999984092);
#1129=VERTEX_POINT('',#1374);
#1130=LINE('',#1375,#1376);
#1131=CIRCLE('',#1377,27.4999999984092);
#1132=FILL_AREA_STYLE_COLOUR('',#1378);
#1133=VERTEX_POINT('',#1379);
#1134=VERTEX_POINT('',#1380);
#1135=CIRCLE('',#1381,25.5);
#1136=VERTEX_POINT('',#1382);
#1137=CIRCLE('',#1383,25.4999999892584);
#1138=LINE('',#1384,#1385);
#1139=LINE('',#1386,#1387);
#1140=FILL_AREA_STYLE_COLOUR('',#1388);
#1141=LINE('',#1389,#1390);
#1142=VERTEX_POINT('',#1391);
#1143=LINE('',#1392,#1393);
#1144=LINE('',#1394,#1395);
#1145=FILL_AREA_STYLE_COLOUR('',#1396);
#1146=VERTEX_POINT('',#1397);
#1147=LINE('',#1398,#1399);
#1148=LINE('',#1400,#1401);
#1149=FILL_AREA_STYLE_COLOUR('',#1402);
#1150=LINE('',#1403,#1404);
#1151=VERTEX_POINT('',#1405);
#1152=LINE('',#1406,#1407);
#1153=VERTEX_POINT('',#1408);
#1154=CIRCLE('',#1409,25.5);
#1155=LINE('',#1410,#1411);
#1156=FILL_AREA_STYLE_COLOUR('',#1412);
#1157=VERTEX_POINT('',#1413);
#1158=CIRCLE('',#1414,24.1053902633187);
#1159=LINE('',#1415,#1416);
#1160=FILL_AREA_STYLE_COLOUR('',#1417);
#1161=VERTEX_POINT('',#1418);
#1162=VERTEX_POINT('',#1419);
#1163=CIRCLE('',#1420,3.25);
#1164=LINE('',#1421,#1422);
#1165=LINE('',#1423,#1424);
#1166=FILL_AREA_STYLE_COLOUR('',#1425);
#1167=VERTEX_POINT('',#1426);
#1168=LINE('',#1427,#1428);
#1169=LINE('',#1429,#1430);
#1170=FILL_AREA_STYLE_COLOUR('',#1431);
#1171=VERTEX_POINT('',#1432);
#1172=CIRCLE('',#1433,3.25);
#1173=LINE('',#1434,#1435);
#1174=FILL_AREA_STYLE_COLOUR('',#1436);
#1175=LINE('',#1437,#1438);
#1176=FILL_AREA_STYLE_COLOUR('',#1439);
#1177=VERTEX_POINT('',#1440);
#1178=CIRCLE('',#1441,24.1045627846758);
#1179=VERTEX_POINT('',#1442);
#1180=LINE('',#1443,#1444);
#1181=VERTEX_POINT('',#1445);
#1182=CIRCLE('',#1446,6.0);
#1183=LINE('',#1447,#1448);
#1184=LINE('',#1449,#1450);
#1185=FILL_AREA_STYLE_COLOUR('',#1451);
#1186=LINE('',#1452,#1453);
#1187=LINE('',#1454,#1455);
#1188=FILL_AREA_STYLE_COLOUR('',#1456);
#1189=FILL_AREA_STYLE_COLOUR('',#1457);
#1190=VERTEX_POINT('',#1458);
#1191=CIRCLE('',#1459,25.4999999892584);
#1192=LINE('',#1460,#1461);
#1193=FILL_AREA_STYLE_COLOUR('',#1462);
#1194=LINE('',#1463,#1464);
#1195=FILL_AREA_STYLE_COLOUR('',#1465);
#1196=LINE('',#1466,#1467);
#1197=FILL_AREA_STYLE_COLOUR('',#1468);
#1198=FILL_AREA_STYLE_COLOUR('',#1469);
#1199=FILL_AREA_STYLE_COLOUR('',#1470);
#1200=CIRCLE('',#1471,25.499999983251);
#1201=FILL_AREA_STYLE_COLOUR('',#1472);
#1202=FILL_AREA_STYLE_COLOUR('',#1473);
#1203=VERTEX_POINT('',#1474);
#1204=VERTEX_POINT('',#1475);
#1205=CIRCLE('',#1476,20.9626248692);
#1206=VERTEX_POINT('',#1477);
#1207=CIRCLE('',#1478,1.59999999995181);
#1208=VERTEX_POINT('',#1479);
#1209=CIRCLE('',#1480,21.9503313774);
#1210=CIRCLE('',#1481,1.59999999995181);
#1211=FILL_AREA_STYLE_COLOUR('',#1482);
#1212=CIRCLE('',#1483,20.9626248692);
#1213=CIRCLE('',#1484,21.9503313774);
#1214=FILL_AREA_STYLE_COLOUR('',#1485);
#1215=VERTEX_POINT('',#1486);
#1216=VERTEX_POINT('',#1487);
#1217=LINE('',#1488,#1489);
#1218=VERTEX_POINT('',#1490);
#1219=CIRCLE('',#1491,24.9);
#1220=VERTEX_POINT('',#1492);
#1221=LINE('',#1493,#1494);
#1222=CIRCLE('',#1495,24.9);
#1223=FILL_AREA_STYLE_COLOUR('',#1496);
#1224=LINE('',#1497,#1498);
#1225=LINE('',#1499,#1500);
#1226=FILL_AREA_STYLE_COLOUR('',#1501);
#1227=VERTEX_POINT('',#1502);
#1228=CIRCLE('',#1503,1.59999999995181);
#1229=VERTEX_POINT('',#1504);
#1230=CIRCLE('',#1505,21.9503313775);
#1231=CIRCLE('',#1506,1.59999999995181);
#1232=FILL_AREA_STYLE_COLOUR('',#1507);
#1233=VERTEX_POINT('',#1508);
#1234=LINE('',#1509,#1510);
#1235=VERTEX_POINT('',#1511);
#1236=CIRCLE('',#1512,24.9000000001);
#1237=LINE('',#1513,#1514);
#1238=CIRCLE('',#1515,21.9503313775);
#1239=FILL_AREA_STYLE_COLOUR('',#1516);
#1240=VERTEX_POINT('',#1517);
#1241=LINE('',#1518,#1519);
#1242=VERTEX_POINT('',#1520);
#1243=CIRCLE('',#1521,24.9000000001);
#1244=LINE('',#1522,#1523);
#1245=FILL_AREA_STYLE_COLOUR('',#1524);
#1246=VERTEX_POINT('',#1525);
#1247=VERTEX_POINT('',#1526);
#1248=LINE('',#1527,#1528);
#1249=VERTEX_POINT('',#1529);
#1250=CIRCLE('',#1530,4.0);
#1251=VERTEX_POINT('',#1531);
#1252=LINE('',#1532,#1533);
#1253=CIRCLE('',#1534,4.0);
#1254=FILL_AREA_STYLE_COLOUR('',#1535);
#1255=CIRCLE('',#1536,4.0);
#1256=CIRCLE('',#1537,4.0);
#1257=FILL_AREA_STYLE_COLOUR('',#1538);
#1258=CIRCLE('',#1539,24.9000000001);
#1259=FILL_AREA_STYLE_COLOUR('',#1540);
#1260=CIRCLE('',#1541,24.9000000001);
#1261=FILL_AREA_STYLE_COLOUR('',#1542);
#1262=FILL_AREA_STYLE_COLOUR('',#1543);
#1263=FILL_AREA_STYLE_COLOUR('',#1544);
#1264=CIRCLE('',#1545,24.9);
#1265=FILL_AREA_STYLE_COLOUR('',#1546);
#1266=CIRCLE('',#1547,24.9);
#1267=FILL_AREA_STYLE_COLOUR('',#1548);
#1268=FILL_AREA_STYLE_COLOUR('',#1549);
#1269=FILL_AREA_STYLE_COLOUR('',#1550);
#1270=FILL_AREA_STYLE_COLOUR('',#1551);
#1271=VERTEX_POINT('',#1552);
#1272=VERTEX_POINT('',#1553);
#1273=LINE('',#1554,#1555);
#1274=VERTEX_POINT('',#1556);
#1275=CIRCLE('',#1557,9.0);
#1276=VERTEX_POINT('',#1558);
#1277=LINE('',#1559,#1560);
#1278=CIRCLE('',#1561,9.0);
#1279=FILL_AREA_STYLE_COLOUR('',#1562);
#1280=VERTEX_POINT('',#1563);
#1281=VERTEX_POINT('',#1564);
#1282=LINE('',#1565,#1566);
#1283=VERTEX_POINT('',#1567);
#1284=CIRCLE('',#1568,3.25);
#1285=VERTEX_POINT('',#1569);
#1286=LINE('',#1570,#1571);
#1287=CIRCLE('',#1572,3.25);
#1288=FILL_AREA_STYLE_COLOUR('',#1573);
#1289=CIRCLE('',#1574,3.25);
#1290=CIRCLE('',#1575,3.25);
#1291=FILL_AREA_STYLE_COLOUR('',#1576);
#1292=CIRCLE('',#1577,9.0);
#1293=CIRCLE('',#1578,9.0);
#1294=FILL_AREA_STYLE_COLOUR('',#1579);
#1295=FILL_AREA_STYLE_COLOUR('',#1580);
#1296=FILL_AREA_STYLE_COLOUR('',#1581);
#1297=COLOUR_RGB('',0.560784339904785,0.588235318660736,0.600000023841858);
#1298=CARTESIAN_POINT('',(3.5,-2.0,25.4214476377723));
#1299=CARTESIAN_POINT('',(3.5,-5.6523169679,24.8656653418));
#1300=AXIS2_PLACEMENT_3D('',#1582,#1583,#1584);
#1301=CARTESIAN_POINT('',(3.5,-2.0,27.4271763038007));
#1302=CARTESIAN_POINT('',(3.5,-2.0,29.02));
#1303=VECTOR('',#1585,1.0);
#1304=CARTESIAN_POINT('',(3.5,-6.0,26.8374738006));
#1305=AXIS2_PLACEMENT_3D('',#1586,#1587,#1588);
#1306=CARTESIAN_POINT('',(3.5,-6.11477306767558,27.4883842126446));
#1307=VECTOR('',#1589,1.0);
#1308=COLOUR_RGB('',0.560784339904785,0.588235318660736,0.600000023841858);
#1309=CARTESIAN_POINT('',(5.0,-2.01731172869759,24.02));
#1310=CARTESIAN_POINT('',(5.0,-2.0,24.02));
#1311=CARTESIAN_POINT('',(5.0,-3.5,24.02));
#1312=VECTOR('',#1590,1.0);
#1313=CARTESIAN_POINT('',(7.0,-2.01731172869759,24.02));
#1314=CARTESIAN_POINT('',(6.0,-2.01731172869759,24.02));
#1315=VECTOR('',#1591,1.0);
#1316=CARTESIAN_POINT('',(7.0,-2.0,24.02));
#1317=CARTESIAN_POINT('',(7.0,-3.50001550587961,24.02));
#1318=VECTOR('',#1592,1.0);
#1319=CARTESIAN_POINT('',(8.5,-2.0,24.02));
#1320=VECTOR('',#1593,1.0);
#1321=COLOUR_RGB('',0.560784339904785,0.588235318660736,0.600000023841858);
#1322=CARTESIAN_POINT('',(5.0,3.25,-6.66133814775094E-16));
#1323=CARTESIAN_POINT('',(5.0,-3.25,0.0));
#1324=AXIS2_PLACEMENT_3D('',#1594,#1595,#1596);
#1325=CARTESIAN_POINT('',(5.0,-3.25,-4.0));
#1326=CARTESIAN_POINT('',(5.0,-3.25,-1.0));
#1327=VECTOR('',#1597,1.0);
#1328=CARTESIAN_POINT('',(5.0,3.25,-4.0));
#1329=AXIS2_PLACEMENT_3D('',#1598,#1599,#1600);
#1330=CARTESIAN_POINT('',(5.0,3.25,-1.5));
#1331=VECTOR('',#1601,1.0);
#1332=CARTESIAN_POINT('',(5.0,-2.0,25.4214476377723));
#1333=CARTESIAN_POINT('',(5.0,-2.0,12.36072381885));
#1334=VECTOR('',#1602,1.0);
#1335=CARTESIAN_POINT('',(5.0,2.0,25.4214476377723));
#1336=AXIS2_PLACEMENT_3D('',#1603,#1604,#1605);
#1337=CARTESIAN_POINT('',(5.0,2.0,24.02));
#1338=CARTESIAN_POINT('',(5.0,2.0,14.51));
#1339=VECTOR('',#1606,1.0);
#1340=CARTESIAN_POINT('',(5.0,2.01738098130469,24.02));
#1341=CARTESIAN_POINT('',(5.0,3.5,24.02));
#1342=VECTOR('',#1607,1.0);
#1343=CARTESIAN_POINT('',(5.0,6.0,23.345876437));
#1344=AXIS2_PLACEMENT_3D('',#1608,#1609,#1610);
#1345=CARTESIAN_POINT('',(5.0,6.0,-4.0));
#1346=CARTESIAN_POINT('',(5.0,6.0,4.83646910925));
#1347=VECTOR('',#1611,1.0);
#1348=CARTESIAN_POINT('',(5.0,-6.0,-4.0));
#1349=AXIS2_PLACEMENT_3D('',#1612,#1613,#1614);
#1350=CARTESIAN_POINT('',(5.0,-6.0,23.345876437));
#1351=CARTESIAN_POINT('',(5.0,-6.0,4.83646910925));
#1352=VECTOR('',#1615,1.0);
#1353=AXIS2_PLACEMENT_3D('',#1616,#1617,#1618);
#1354=COLOUR_RGB('',0.560784339904785,0.588235318660736,0.600000023841858);
#1355=CARTESIAN_POINT('',(-3.5,-6.0,26.8374738006));
#1356=CARTESIAN_POINT('',(-3.5,-6.0,26.8374738006));
#1357=VECTOR('',#1619,1.0);
#1358=CARTESIAN_POINT('',(-3.5,-5.6523169679,24.8656653418));
#1359=CARTESIAN_POINT('',(-3.5,-6.0,26.8374738006));
#1360=VECTOR('',#1620,1.0);
#1361=CARTESIAN_POINT('',(-3.5,-5.6523169679,24.8656653418));
#1362=VECTOR('',#1621,1.0);
#1363=COLOUR_RGB('',0.560784339904785,0.588235318660736,0.600000023841858);
#1364=CARTESIAN_POINT('',(7.0,-2.0,27.4271763038007));
#1365=CARTESIAN_POINT('',(5.25,-2.0,27.4271763038007));
#1366=VECTOR('',#1622,1.0);
#1367=CARTESIAN_POINT('',(7.0,2.0,27.4271763038007));
#1368=AXIS2_PLACEMENT_3D('',#1623,#1624,#1625);
#1369=CARTESIAN_POINT('',(3.5,2.0,27.4271763038007));
#1370=CARTESIAN_POINT('',(5.25,2.0,27.4271763038007));
#1371=VECTOR('',#1626,1.0);
#1372=CARTESIAN_POINT('',(3.5,6.0,26.8374738006));
#1373=AXIS2_PLACEMENT_3D('',#1627,#1628,#1629);
#1374=CARTESIAN_POINT('',(-3.5,6.0,26.8374738006));
#1375=CARTESIAN_POINT('',(-3.5,6.0,26.8374738006));
#1376=VECTOR('',#1630,1.0);
#1377=AXIS2_PLACEMENT_3D('',#1631,#1632,#1633);
#1378=COLOUR_RGB('',0.560784339904785,0.588235318660736,0.600000023841858);
#1379=CARTESIAN_POINT('',(3.5,2.001283263,25.421346646));
#1380=CARTESIAN_POINT('',(3.5,2.0,25.4214476377723));
#1381=AXIS2_PLACEMENT_3D('',#1634,#1635,#1636);
#1382=CARTESIAN_POINT('',(3.5,5.65231696799999,24.8656653418));
#1383=AXIS2_PLACEMENT_3D('',#1637,#1638,#1639);
#1384=CARTESIAN_POINT('',(3.5,6.11477306764173,27.4883842126398));
#1385=VECTOR('',#1640,1.0);
#1386=CARTESIAN_POINT('',(3.5,2.0,29.02));
#1387=VECTOR('',#1641,1.0);
#1388=COLOUR_RGB('',0.560784339904785,0.588235318660736,0.600000023841858);
#1389=CARTESIAN_POINT('',(4.25,2.0,25.4214476377723));
#1390=VECTOR('',#1642,1.0);
#1391=CARTESIAN_POINT('',(7.0,2.0,24.02));
#1392=CARTESIAN_POINT('',(7.0,2.0,20.3913600951338));
#1393=VECTOR('',#1643,1.0);
#1394=CARTESIAN_POINT('',(8.5,2.0,24.02));
#1395=VECTOR('',#1644,1.0);
#1396=COLOUR_RGB('',0.560784339904785,0.588235318660736,0.600000023841858);
#1397=CARTESIAN_POINT('',(7.0,2.01738098130469,24.02));
#1398=CARTESIAN_POINT('',(7.0,3.49998449412039,24.02));
#1399=VECTOR('',#1645,1.0);
#1400=CARTESIAN_POINT('',(6.0,2.01738098130469,24.02));
#1401=VECTOR('',#1646,1.0);
#1402=COLOUR_RGB('',0.560784339904785,0.588235318660736,0.600000023841858);
#1403=CARTESIAN_POINT('',(-3.5,-2.0,25.4214476377));
#1404=VECTOR('',#1647,1.0);
#1405=CARTESIAN_POINT('',(-3.5,-2.0,25.4214476377));
#1406=CARTESIAN_POINT('',(-3.5,-2.0,25.4214476377));
#1407=VECTOR('',#1648,1.0);
#1408=CARTESIAN_POINT('',(-3.5,2.001283263,25.421346646));
#1409=AXIS2_PLACEMENT_3D('',#1649,#1650,#1651);
#1410=CARTESIAN_POINT('',(-3.5,2.001283263,25.421346646));
#1411=VECTOR('',#1652,1.0);
#1412=COLOUR_RGB('',0.560784339904785,0.588235318660736,0.600000023841858);
#1413=CARTESIAN_POINT('',(7.0,6.0,23.345876437));
#1414=AXIS2_PLACEMENT_3D('',#1653,#1654,#1655);
#1415=CARTESIAN_POINT('',(-3.5,6.0,23.345876437));
#1416=VECTOR('',#1656,1.0);
#1417=COLOUR_RGB('',0.560784339904785,0.588235318660736,0.600000023841858);
#1418=CARTESIAN_POINT('',(7.0,3.25,-4.0));
#1419=CARTESIAN_POINT('',(7.0,-3.25,-4.0));
#1420=AXIS2_PLACEMENT_3D('',#1657,#1658,#1659);
#1421=CARTESIAN_POINT('',(5.0,3.25,-4.0));
#1422=VECTOR('',#1660,1.0);
#1423=CARTESIAN_POINT('',(5.0,-3.25,-4.0));
#1424=VECTOR('',#1661,1.0);
#1425=COLOUR_RGB('',0.560784339904785,0.588235318660736,0.600000023841858);
#1426=CARTESIAN_POINT('',(7.0,-3.25,0.0));
#1427=CARTESIAN_POINT('',(7.0,-3.25,4.88136009513378));
#1428=VECTOR('',#1662,1.0);
#1429=CARTESIAN_POINT('',(5.0,-3.25,0.0));
#1430=VECTOR('',#1663,1.0);
#1431=COLOUR_RGB('',0.560784339904785,0.588235318660736,0.600000023841858);
#1432=CARTESIAN_POINT('',(7.0,3.25,-6.66133814775094E-16));
#1433=AXIS2_PLACEMENT_3D('',#1664,#1665,#1666);
#1434=CARTESIAN_POINT('',(5.0,3.25,-6.66133814775094E-16));
#1435=VECTOR('',#1667,1.0);
#1436=COLOUR_RGB('',0.560784339904785,0.588235318660736,0.600000023841858);
#1437=CARTESIAN_POINT('',(7.0,3.25,4.38136009513378));
#1438=VECTOR('',#1668,1.0);
#1439=COLOUR_RGB('',0.560784339904785,0.588235318660736,0.600000023841858);
#1440=CARTESIAN_POINT('',(7.0,-6.0,23.345876437));
#1441=AXIS2_PLACEMENT_3D('',#1669,#1670,#1671);
#1442=CARTESIAN_POINT('',(7.0,-6.0,-4.0));
#1443=CARTESIAN_POINT('',(7.0,-6.0,23.345876437));
#1444=VECTOR('',#1672,1.0);
#1445=CARTESIAN_POINT('',(7.0,6.0,-4.0));
#1446=AXIS2_PLACEMENT_3D('',#1673,#1674,#1675);
#1447=CARTESIAN_POINT('',(7.0,6.0,-4.0));
#1448=VECTOR('',#1676,1.0);
#1449=CARTESIAN_POINT('',(7.0,-2.0,20.3913600951338));
#1450=VECTOR('',#1677,1.0);
#1451=COLOUR_RGB('',0.560784339904785,0.588235318660736,0.600000023841858);
#1452=CARTESIAN_POINT('',(-3.5,6.0,-4.0));
#1453=VECTOR('',#1678,1.0);
#1454=CARTESIAN_POINT('',(-3.5,-6.0,-4.0));
#1455=VECTOR('',#1679,1.0);
#1456=COLOUR_RGB('',0.560784339904785,0.588235318660736,0.600000023841858);
#1457=COLOUR_RGB('',0.560784339904785,0.588235318660736,0.600000023841858);
#1458=CARTESIAN_POINT('',(-3.5,5.65231696799999,24.8656653418));
#1459=AXIS2_PLACEMENT_3D('',#1680,#1681,#1682);
#1460=CARTESIAN_POINT('',(-3.5,5.65231696799999,24.8656653418));
#1461=VECTOR('',#1683,1.0);
#1462=COLOUR_RGB('',0.560784339904785,0.588235318660736,0.600000023841858);
#1463=CARTESIAN_POINT('',(-3.5,5.652316968,24.8656653418));
#1464=VECTOR('',#1684,1.0);
#1465=COLOUR_RGB('',0.560784339904785,0.588235318660736,0.600000023841858);
#1466=CARTESIAN_POINT('',(-3.5,-6.0,23.345876437));
#1467=VECTOR('',#1685,1.0);
#1468=COLOUR_RGB('',0.560784339904785,0.588235318660736,0.600000023841858);
#1469=COLOUR_RGB('',0.560784339904785,0.588235318660736,0.600000023841858);
#1470=COLOUR_RGB('',0.560784339904785,0.588235318660736,0.600000023841858);
#1471=AXIS2_PLACEMENT_3D('',#1686,#1687,#1688);
#1472=COLOUR_RGB('',0.560784339904785,0.588235318660736,0.600000023841858);
#1473=COLOUR_RGB('',0.560784339904785,0.588235318660736,0.600000023841858);
#1474=CARTESIAN_POINT('',(2.07071876203766E-11,-20.9626248692,2.96197566786104E-15));
#1475=CARTESIAN_POINT('',(2.07071876203766E-11,20.9626248692,-2.96197566786104E-15));
#1476=AXIS2_PLACEMENT_3D('',#1689,#1690,#1691);
#1477=CARTESIAN_POINT('',(1.478207252,-21.9503313774,2.68814030615566E-15));
#1478=AXIS2_PLACEMENT_3D('',#1692,#1693,#1694);
#1479=CARTESIAN_POINT('',(1.478207252,21.9503313774,0.0));
#1480=AXIS2_PLACEMENT_3D('',#1695,#1696,#1697);
#1481=AXIS2_PLACEMENT_3D('',#1698,#1699,#1700);
#1482=COLOUR_RGB('',0.560784339904785,0.588235318660736,0.600000023841858);
#1483=AXIS2_PLACEMENT_3D('',#1701,#1702,#1703);
#1484=AXIS2_PLACEMENT_3D('',#1704,#1705,#1706);
#1485=COLOUR_RGB('',0.560784339904785,0.588235318660736,0.600000023841858);
#1486=CARTESIAN_POINT('',(2.7,24.9,0.0));
#1487=CARTESIAN_POINT('',(3.5,24.9,0.0));
#1488=CARTESIAN_POINT('',(3.1,24.9,-3.04937052987691E-15));
#1489=VECTOR('',#1707,1.0);
#1490=CARTESIAN_POINT('',(2.7,-24.9,3.04937052987691E-15));
#1491=AXIS2_PLACEMENT_3D('',#1708,#1709,#1710);
#1492=CARTESIAN_POINT('',(3.5,-24.9,3.04937052987691E-15));
#1493=CARTESIAN_POINT('',(3.1,-24.9,3.04937052987691E-15));
#1494=VECTOR('',#1711,1.0);
#1495=AXIS2_PLACEMENT_3D('',#1712,#1713,#1714);
#1496=COLOUR_RGB('',0.560784339904785,0.588235318660736,0.600000023841858);
#1497=CARTESIAN_POINT('',(2.089103626,23.4251656887,-2.86875541801629E-15));
#1498=VECTOR('',#1715,1.0);
#1499=CARTESIAN_POINT('',(2.089103626,-23.4251656887,2.86875541801629E-15));
#1500=VECTOR('',#1716,1.0);
#1501=COLOUR_RGB('',0.560784339904785,0.588235318660736,0.600000023841858);
#1502=CARTESIAN_POINT('',(-1.47820725200001,-21.9503313775,2.68814030616791E-15));
#1503=AXIS2_PLACEMENT_3D('',#1717,#1718,#1719);
#1504=CARTESIAN_POINT('',(-1.47820725200001,21.9503313775,0.0));
#1505=AXIS2_PLACEMENT_3D('',#1720,#1721,#1722);
#1506=AXIS2_PLACEMENT_3D('',#1723,#1724,#1725);
#1507=COLOUR_RGB('',0.560784339904785,0.588235318660736,0.600000023841858);
#1508=CARTESIAN_POINT('',(-2.6999999999,24.9000000001,0.0));
#1509=CARTESIAN_POINT('',(-2.08910362595,23.4251656888,-2.86875541802853E-15));
#1510=VECTOR('',#1726,1.0);
#1511=CARTESIAN_POINT('',(-2.6999999999,-24.9000000001,3.04937052988916E-15));
#1512=AXIS2_PLACEMENT_3D('',#1727,#1728,#1729);
#1513=CARTESIAN_POINT('',(-2.08910362595,-23.4251656888,2.86875541802853E-15));
#1514=VECTOR('',#1730,1.0);
#1515=AXIS2_PLACEMENT_3D('',#1731,#1732,#1733);
#1516=COLOUR_RGB('',0.560784339904785,0.588235318660736,0.600000023841858);
#1517=CARTESIAN_POINT('',(-3.4999999999,24.9000000001,0.0));
#1518=CARTESIAN_POINT('',(-3.0999999999,24.9000000001,-3.04937052988916E-15));
#1519=VECTOR('',#1734,1.0);
#1520=CARTESIAN_POINT('',(-3.4999999999,-24.9000000001,3.04937052988916E-15));
#1521=AXIS2_PLACEMENT_3D('',#1735,#1736,#1737);
#1522=CARTESIAN_POINT('',(-3.0999999999,-24.9000000001,3.04937052988916E-15));
#1523=VECTOR('',#1738,1.0);
#1524=COLOUR_RGB('',0.560784339904785,0.588235318660736,0.600000023841858);
#1525=CARTESIAN_POINT('',(3.5,4.0,-4.89858719658941E-16));
#1526=CARTESIAN_POINT('',(-3.4999999999,4.0,-4.89858719658941E-16));
#1527=CARTESIAN_POINT('',(0.0,4.0,-4.89858719658941E-16));
#1528=VECTOR('',#1739,1.0);
#1529=CARTESIAN_POINT('',(3.5,-4.0,4.89858719658941E-16));
#1530=AXIS2_PLACEMENT_3D('',#1740,#1741,#1742);
#1531=CARTESIAN_POINT('',(-3.4999999999,-4.0,-4.89858719658941E-16));
#1532=CARTESIAN_POINT('',(0.0,-4.0,4.89858719658941E-16));
#1533=VECTOR('',#1743,1.0);
#1534=AXIS2_PLACEMENT_3D('',#1744,#1745,#1746);
#1535=COLOUR_RGB('',0.560784339904785,0.588235318660736,0.600000023841858);
#1536=AXIS2_PLACEMENT_3D('',#1747,#1748,#1749);
#1537=AXIS2_PLACEMENT_3D('',#1750,#1751,#1752);
#1538=COLOUR_RGB('',0.560784339904785,0.588235318660736,0.600000023841858);
#1539=AXIS2_PLACEMENT_3D('',#1753,#1754,#1755);
#1540=COLOUR_RGB('',0.560784339904785,0.588235318660736,0.600000023841858);
#1541=AXIS2_PLACEMENT_3D('',#1756,#1757,#1758);
#1542=COLOUR_RGB('',0.560784339904785,0.588235318660736,0.600000023841858);
#1543=COLOUR_RGB('',0.560784339904785,0.588235318660736,0.600000023841858);
#1544=COLOUR_RGB('',0.560784339904785,0.588235318660736,0.600000023841858);
#1545=AXIS2_PLACEMENT_3D('',#1759,#1760,#1761);
#1546=COLOUR_RGB('',0.560784339904785,0.588235318660736,0.600000023841858);
#1547=AXIS2_PLACEMENT_3D('',#1762,#1763,#1764);
#1548=COLOUR_RGB('',0.560784339904785,0.588235318660736,0.600000023841858);
#1549=COLOUR_RGB('',0.560784339904785,0.588235318660736,0.600000023841858);
#1550=COLOUR_RGB('',0.560784339904785,0.588235318660736,0.600000023841858);
#1551=COLOUR_RGB('',0.792156875133514,0.882352948188782,1.0);
#1552=CARTESIAN_POINT('',(-5.0,9.0,0.0));
#1553=CARTESIAN_POINT('',(5.0,9.0,0.0));
#1554=CARTESIAN_POINT('',(0.0,9.0,-1.10218211923262E-15));
#1555=VECTOR('',#1765,1.0);
#1556=CARTESIAN_POINT('',(-5.0,-9.0,1.10218211923262E-15));
#1557=AXIS2_PLACEMENT_3D('',#1766,#1767,#1768);
#1558=CARTESIAN_POINT('',(5.0,-9.0,1.10218211923262E-15));
#1559=CARTESIAN_POINT('',(0.0,-9.0,1.10218211923262E-15));
#1560=VECTOR('',#1769,1.0);
#1561=AXIS2_PLACEMENT_3D('',#1770,#1771,#1772);
#1562=COLOUR_RGB('',0.792156875133514,0.882352948188782,1.0);
#1563=CARTESIAN_POINT('',(5.0,3.25,0.0));
#1564=CARTESIAN_POINT('',(-5.0,3.25,0.0));
#1565=CARTESIAN_POINT('',(0.0,3.25,-3.9801020972289E-16));
#1566=VECTOR('',#1773,1.0);
#1567=CARTESIAN_POINT('',(5.0,-3.25,3.9801020972289E-16));
#1568=AXIS2_PLACEMENT_3D('',#1774,#1775,#1776);
#1569=CARTESIAN_POINT('',(-5.0,-3.25,3.9801020972289E-16));
#1570=CARTESIAN_POINT('',(0.0,-3.25,3.9801020972289E-16));
#1571=VECTOR('',#1777,1.0);
#1572=AXIS2_PLACEMENT_3D('',#1778,#1779,#1780);
#1573=COLOUR_RGB('',0.792156875133514,0.882352948188782,1.0);
#1574=AXIS2_PLACEMENT_3D('',#1781,#1782,#1783);
#1575=AXIS2_PLACEMENT_3D('',#1784,#1785,#1786);
#1576=COLOUR_RGB('',0.792156875133514,0.882352948188782,1.0);
#1577=AXIS2_PLACEMENT_3D('',#1787,#1788,#1789);
#1578=AXIS2_PLACEMENT_3D('',#1790,#1791,#1792);
#1579=COLOUR_RGB('',0.792156875133514,0.882352948188782,1.0);
#1580=COLOUR_RGB('',0.792156875133514,0.882352948188782,1.0);
#1581=COLOUR_RGB('',0.792156875133514,0.882352948188782,1.0);
#1582=CARTESIAN_POINT('',(3.5,-2.47238673978245E-09,1.65339066882098E-08));
#1583=DIRECTION('',(1.0,0.0,0.0));
#1584=DIRECTION('',(0.0,-0.0784313725035787,0.996919515210333));
#1585=DIRECTION('',(0.0,0.0,-1.0));
#1586=CARTESIAN_POINT('',(3.5,1.77635683940025E-15,1.59077373496075E-09));
#1587=DIRECTION('',(-1.0,0.0,0.0));
#1588=DIRECTION('',(0.0,0.21818181819444,0.975908138202243));
#1589=DIRECTION('',(0.0,-0.173648177678742,0.984807753010125));
#1590=DIRECTION('',(0.0,1.0,0.0));
#1591=DIRECTION('',(-1.0,-0.0,-0.0));
#1592=DIRECTION('',(0.0,-1.0,0.0));
#1593=DIRECTION('',(-1.0,0.0,0.0));
#1594=CARTESIAN_POINT('',(5.0,-4.44089209850063E-16,0.0));
#1595=DIRECTION('',(1.0,0.0,0.0));
#1596=DIRECTION('',(0.0,1.0,-2.04964250700029E-16));
#1597=DIRECTION('',(0.0,0.0,-1.0));
#1598=CARTESIAN_POINT('',(5.0,4.44089209850063E-16,-4.0));
#1599=DIRECTION('',(1.0,0.0,0.0));
#1600=DIRECTION('',(0.0,-1.0,0.0));
#1601=DIRECTION('',(0.0,0.0,1.0));
#1602=DIRECTION('',(0.0,0.0,-1.0));
#1603=CARTESIAN_POINT('',(5.0,0.0,0.0));
#1604=DIRECTION('',(1.0,0.0,0.0));
#1605=DIRECTION('',(0.0,1.0,0.0));
#1606=DIRECTION('',(0.0,0.0,-1.0));
#1607=DIRECTION('',(0.0,1.0,0.0));
#1608=CARTESIAN_POINT('',(5.0,-0.00017220525528483,-0.00081012135728642));
#1609=DIRECTION('',(1.0,0.0,-0.0));
#1610=DIRECTION('',(0.0,0.248914128321987,0.968525558114862));
#1611=DIRECTION('',(0.0,0.0,1.0));
#1612=CARTESIAN_POINT('',(5.0,-8.88178419700125E-16,-4.0));
#1613=DIRECTION('',(1.0,0.0,0.0));
#1614=DIRECTION('',(0.0,-1.0,1.83697019872103E-16));
#1615=DIRECTION('',(0.0,0.0,-1.0));
#1616=CARTESIAN_POINT('',(5.0,1.37725297832958E-09,-8.82766926224576E-09));
#1617=DIRECTION('',(1.0,0.0,0.0));
#1618=DIRECTION('',(0.0,-0.0829718431005406,0.99655189190152));
#1619=DIRECTION('',(1.0,0.0,0.0));
#1620=DIRECTION('',(0.0,0.173648177678742,-0.984807753010125));
#1621=DIRECTION('',(1.0,0.0,0.0));
#1622=DIRECTION('',(1.0,0.0,0.0));
#1623=CARTESIAN_POINT('',(7.0,1.77635683940025E-15,1.59077373496075E-09));
#1624=DIRECTION('',(-1.0,0.0,0.0));
#1625=DIRECTION('',(0.0,0.21818181819444,0.975908138202243));
#1626=DIRECTION('',(-1.0,-0.0,-0.0));
#1627=CARTESIAN_POINT('',(3.5,1.77635683940025E-15,1.59077373496075E-09));
#1628=DIRECTION('',(-1.0,0.0,0.0));
#1629=DIRECTION('',(0.0,0.21818181819444,0.975908138202243));
#1630=DIRECTION('',(1.0,0.0,0.0));
#1631=CARTESIAN_POINT('',(-3.5,1.77635683940025E-15,1.59077373496075E-09));
#1632=DIRECTION('',(1.0,0.0,-0.0));
#1633=DIRECTION('',(0.0,0.21818181819444,0.975908138202243));
#1634=CARTESIAN_POINT('',(3.5,0.0,0.0));
#1635=DIRECTION('',(1.0,0.0,0.0));
#1636=DIRECTION('',(0.0,1.0,0.0));
#1637=CARTESIAN_POINT('',(3.5,1.9132277984113E-09,1.0523105942184E-08));
#1638=DIRECTION('',(1.0,0.0,-0.0));
#1639=DIRECTION('',(0.0,0.22165948895952,0.975124131049071));
#1640=DIRECTION('',(0.0,-0.173648177630303,-0.984807753018666));
#1641=DIRECTION('',(0.0,0.0,1.0));
#1642=DIRECTION('',(1.0,0.0,0.0));
#1643=DIRECTION('',(0.0,0.0,1.0));
#1644=DIRECTION('',(-1.0,0.0,0.0));
#1645=DIRECTION('',(0.0,-1.0,0.0));
#1646=DIRECTION('',(1.0,0.0,0.0));
#1647=DIRECTION('',(1.0,0.0,0.0));
#1648=DIRECTION('',(1.0,0.0,0.0));
#1649=CARTESIAN_POINT('',(-3.5,0.0,0.0));
#1650=DIRECTION('',(1.0,0.0,0.0));
#1651=DIRECTION('',(0.0,1.0,0.0));
#1652=DIRECTION('',(1.0,0.0,0.0));
#1653=CARTESIAN_POINT('',(7.0,-0.00017220525528483,-0.00081012135728642));
#1654=DIRECTION('',(-1.0,0.0,0.0));
#1655=DIRECTION('',(0.0,0.248914128321987,0.968525558114862));
#1656=DIRECTION('',(1.0,0.0,0.0));
#1657=CARTESIAN_POINT('',(7.0,4.44089209850063E-16,-4.0));
#1658=DIRECTION('',(-1.0,-0.0,0.0));
#1659=DIRECTION('',(0.0,-1.0,0.0));
#1660=DIRECTION('',(1.0,0.0,0.0));
#1661=DIRECTION('',(1.0,0.0,0.0));
#1662=DIRECTION('',(-0.0,0.0,1.0));
#1663=DIRECTION('',(1.0,0.0,0.0));
#1664=CARTESIAN_POINT('',(7.0,-4.44089209850063E-16,0.0));
#1665=DIRECTION('',(-1.0,0.0,-0.0));
#1666=DIRECTION('',(0.0,1.0,-2.04964250700029E-16));
#1667=DIRECTION('',(1.0,0.0,0.0));
#1668=DIRECTION('',(0.0,0.0,-1.0));
#1669=CARTESIAN_POINT('',(7.0,1.37725297832958E-09,-8.82766926224576E-09));
#1670=DIRECTION('',(-1.0,-0.0,0.0));
#1671=DIRECTION('',(0.0,-0.0829718431005406,0.99655189190152));
#1672=DIRECTION('',(0.0,0.0,1.0));
#1673=CARTESIAN_POINT('',(7.0,-8.88178419700125E-16,-4.0));
#1674=DIRECTION('',(-1.0,-0.0,0.0));
#1675=DIRECTION('',(0.0,-1.0,1.83697019872103E-16));
#1676=DIRECTION('',(-0.0,-0.0,-1.0));
#1677=DIRECTION('',(0.0,0.0,-1.0));
#1678=DIRECTION('',(1.0,0.0,0.0));
#1679=DIRECTION('',(1.0,0.0,0.0));
#1680=CARTESIAN_POINT('',(-3.5,1.9132277984113E-09,1.0523105942184E-08));
#1681=DIRECTION('',(1.0,0.0,-0.0));
#1682=DIRECTION('',(0.0,0.22165948895952,0.975124131049071));
#1683=DIRECTION('',(1.0,0.0,0.0));
#1684=DIRECTION('',(0.0,0.173648177630303,0.984807753018666));
#1685=DIRECTION('',(1.0,0.0,0.0));
#1686=CARTESIAN_POINT('',(-3.5,-2.47238673978245E-09,1.65339066882098E-08));
#1687=DIRECTION('',(1.0,0.0,0.0));
#1688=DIRECTION('',(0.0,-0.0784313725035787,0.996919515210333));
#1689=CARTESIAN_POINT('',(2.07071876203766E-11,0.0,0.0));
#1690=DIRECTION('',(-1.0,0.0,0.0));
#1691=DIRECTION('',(0.0,0.0,1.0));
#1692=CARTESIAN_POINT('',(2.07069916768887E-11,-22.5626248691518,2.76312463263692E-15));
#1693=DIRECTION('',(0.0,-1.22464679914735E-16,-1.0));
#1694=DIRECTION('',(-0.0,-1.0,1.22464679914735E-16));
#1695=CARTESIAN_POINT('',(1.478207252,0.0,0.0));
#1696=DIRECTION('',(1.0,0.0,0.0));
#1697=DIRECTION('',(0.0,1.0,0.0));
#1698=CARTESIAN_POINT('',(2.07069916768887E-11,22.5626248691518,-2.76312463263692E-15));
#1699=DIRECTION('',(0.0,-1.22464679914735E-16,-1.0));
#1700=DIRECTION('',(0.0,1.0,-1.22464679914735E-16));
#1701=CARTESIAN_POINT('',(2.07071876203766E-11,0.0,0.0));
#1702=DIRECTION('',(-1.0,0.0,0.0));
#1703=DIRECTION('',(0.0,0.0,1.0));
#1704=CARTESIAN_POINT('',(1.478207252,0.0,0.0));
#1705=DIRECTION('',(1.0,0.0,0.0));
#1706=DIRECTION('',(0.0,1.0,0.0));
#1707=DIRECTION('',(1.0,0.0,0.0));
#1708=CARTESIAN_POINT('',(2.7,0.0,0.0));
#1709=DIRECTION('',(1.0,0.0,0.0));
#1710=DIRECTION('',(0.0,1.0,0.0));
#1711=DIRECTION('',(-1.0,-0.0,-0.0));
#1712=CARTESIAN_POINT('',(3.5,0.0,0.0));
#1713=DIRECTION('',(1.0,0.0,0.0));
#1714=DIRECTION('',(0.0,1.0,0.0));
#1715=DIRECTION('',(0.382683432368489,0.923879532509879,-1.13142611228598E-16));
#1716=DIRECTION('',(-0.382683432368489,0.923879532509879,-1.13142611228598E-16));
#1717=CARTESIAN_POINT('',(2.07069916768887E-11,-22.5626248691518,2.76312463263692E-15));
#1718=DIRECTION('',(0.0,-1.22464679914735E-16,-1.0));
#1719=DIRECTION('',(-0.0,-1.0,1.22464679914735E-16));
#1720=CARTESIAN_POINT('',(-1.47820725200001,0.0,0.0));
#1721=DIRECTION('',(1.0,0.0,0.0));
#1722=DIRECTION('',(0.0,1.0,0.0));
#1723=CARTESIAN_POINT('',(2.07069916768887E-11,22.5626248691518,-2.76312463263692E-15));
#1724=DIRECTION('',(0.0,-1.22464679914735E-16,-1.0));
#1725=DIRECTION('',(0.0,1.0,-1.22464679914735E-16));
#1726=DIRECTION('',(0.382683432341754,-0.923879532520953,1.13142611229954E-16));
#1727=CARTESIAN_POINT('',(-2.6999999999,0.0,0.0));
#1728=DIRECTION('',(1.0,0.0,0.0));
#1729=DIRECTION('',(0.0,1.0,0.0));
#1730=DIRECTION('',(-0.382683432341754,-0.923879532520953,1.13142611229954E-16));
#1731=CARTESIAN_POINT('',(-1.47820725200001,0.0,0.0));
#1732=DIRECTION('',(1.0,0.0,0.0));
#1733=DIRECTION('',(0.0,1.0,0.0));
#1734=DIRECTION('',(1.0,0.0,0.0));
#1735=CARTESIAN_POINT('',(-3.4999999999,0.0,0.0));
#1736=DIRECTION('',(1.0,0.0,0.0));
#1737=DIRECTION('',(0.0,1.0,0.0));
#1738=DIRECTION('',(-1.0,-0.0,-0.0));
#1739=DIRECTION('',(-1.0,-0.0,0.0));
#1740=CARTESIAN_POINT('',(3.5,0.0,0.0));
#1741=DIRECTION('',(-1.0,0.0,0.0));
#1742=DIRECTION('',(0.0,1.0,0.0));
#1743=DIRECTION('',(1.0,-0.0,0.0));
#1744=CARTESIAN_POINT('',(-3.4999999999,0.0,0.0));
#1745=DIRECTION('',(1.0,0.0,-0.0));
#1746=DIRECTION('',(0.0,1.0,0.0));
#1747=CARTESIAN_POINT('',(-3.4999999999,0.0,0.0));
#1748=DIRECTION('',(1.0,0.0,-0.0));
#1749=DIRECTION('',(0.0,1.0,0.0));
#1750=CARTESIAN_POINT('',(3.5,0.0,0.0));
#1751=DIRECTION('',(-1.0,0.0,0.0));
#1752=DIRECTION('',(0.0,1.0,0.0));
#1753=CARTESIAN_POINT('',(-3.4999999999,0.0,0.0));
#1754=DIRECTION('',(1.0,0.0,0.0));
#1755=DIRECTION('',(0.0,1.0,0.0));
#1756=CARTESIAN_POINT('',(-2.6999999999,0.0,0.0));
#1757=DIRECTION('',(1.0,0.0,0.0));
#1758=DIRECTION('',(0.0,1.0,0.0));
#1759=CARTESIAN_POINT('',(2.7,0.0,0.0));
#1760=DIRECTION('',(1.0,0.0,0.0));
#1761=DIRECTION('',(0.0,1.0,0.0));
#1762=CARTESIAN_POINT('',(3.5,0.0,0.0));
#1763=DIRECTION('',(1.0,0.0,0.0));
#1764=DIRECTION('',(0.0,1.0,0.0));
#1765=DIRECTION('',(1.0,0.0,0.0));
#1766=CARTESIAN_POINT('',(-5.0,0.0,0.0));
#1767=DIRECTION('',(-1.0,0.0,0.0));
#1768=DIRECTION('',(0.0,1.0,0.0));
#1769=DIRECTION('',(-1.0,-0.0,-0.0));
#1770=CARTESIAN_POINT('',(5.0,0.0,0.0));
#1771=DIRECTION('',(1.0,0.0,0.0));
#1772=DIRECTION('',(0.0,1.0,0.0));
#1773=DIRECTION('',(-1.0,-0.0,0.0));
#1774=CARTESIAN_POINT('',(5.0,0.0,0.0));
#1775=DIRECTION('',(-1.0,0.0,0.0));
#1776=DIRECTION('',(0.0,1.0,0.0));
#1777=DIRECTION('',(1.0,-0.0,0.0));
#1778=CARTESIAN_POINT('',(-5.0,0.0,0.0));
#1779=DIRECTION('',(1.0,0.0,-0.0));
#1780=DIRECTION('',(0.0,1.0,0.0));
#1781=CARTESIAN_POINT('',(-5.0,0.0,0.0));
#1782=DIRECTION('',(1.0,0.0,-0.0));
#1783=DIRECTION('',(0.0,1.0,0.0));
#1784=CARTESIAN_POINT('',(5.0,0.0,0.0));
#1785=DIRECTION('',(-1.0,0.0,0.0));
#1786=DIRECTION('',(0.0,1.0,0.0));
#1787=CARTESIAN_POINT('',(5.0,0.0,0.0));
#1788=DIRECTION('',(1.0,0.0,0.0));
#1789=DIRECTION('',(0.0,1.0,0.0));
#1790=CARTESIAN_POINT('',(-5.0,0.0,0.0));
#1791=DIRECTION('',(-1.0,0.0,0.0));
#1792=DIRECTION('',(0.0,1.0,0.0));
ENDSEC;
END-ISO-10303-21;
